<svg width="41" height="40" viewBox="0 0 41 40" fill="none" xmlns="http://www.w3.org/2000/svg">
<path d="M20.1248 32.9776C28.9553 32.9776 36.1139 25.8191 36.1139 16.9886C36.1139 8.15806 28.9553 0.999512 20.1248 0.999512C11.2943 0.999512 4.13574 8.15806 4.13574 16.9886C4.13574 25.8191 11.2943 32.9776 20.1248 32.9776Z" fill="#FFD1C3"/>
<path d="M35.2221 22.2637C34.0096 25.7355 31.633 28.6621 28.5596 30.573C26.1111 32.098 23.2205 32.9777 20.1252 32.9777C17.0299 32.9777 14.1393 32.098 11.6908 30.573C8.61738 28.6621 6.24082 25.7355 5.02832 22.2637H35.2221Z" fill="#ADADAD"/>
<path d="M28.5592 30.5729C26.1107 32.0979 23.2201 32.9776 20.1248 32.9776C17.0295 32.9776 14.1389 32.0979 11.6904 30.5729C11.8795 29.2948 12.9857 28.3088 14.317 28.3088H25.9326C27.2639 28.309 28.3701 29.2949 28.5592 30.5729Z" fill="#898989"/>
<path d="M12.7549 37.4379V30.9656C12.7549 30.1026 13.4544 29.4031 14.3174 29.4031H25.9327C26.7957 29.4031 27.4952 30.1026 27.4952 30.9656V37.4378C27.4952 38.3007 26.7957 39.0003 25.9327 39.0003H14.3174C13.4544 39.0004 12.7549 38.3009 12.7549 37.4379Z" fill="#EFEFEF"/>
<path d="M24.9119 14.545L23.6938 15.5071L23.8739 17.0504C23.8852 17.1488 23.8742 17.2485 23.8416 17.342C23.809 17.4355 23.7557 17.5204 23.6856 17.5904C23.6156 17.6605 23.5307 17.7138 23.4372 17.7464C23.3437 17.779 23.244 17.79 23.1456 17.7787L21.6024 17.5986C20.6463 18.8084 20.6405 18.8165 20.6402 18.8167C20.3766 19.1484 19.8724 19.1484 19.6099 18.8167C19.6099 18.8167 19.6099 18.8156 19.6088 18.8145C18.2378 17.082 18.7819 17.7698 18.6466 17.5986L17.1044 17.7787C17.006 17.7901 16.9063 17.7791 16.8128 17.7465C16.7192 17.714 16.6342 17.6607 16.5642 17.5906C16.4941 17.5206 16.4408 17.4356 16.4083 17.3421C16.3757 17.2485 16.3647 17.1488 16.3761 17.0504L16.5563 15.5071L15.3381 14.545C15.0064 14.2814 15.0064 13.7771 15.3381 13.5146L16.5563 12.5525L16.3761 11.0092C16.3647 10.9108 16.3757 10.8111 16.4083 10.7175C16.4408 10.624 16.4941 10.539 16.5642 10.469C16.6342 10.3989 16.7192 10.3456 16.8128 10.3131C16.9063 10.2805 17.006 10.2695 17.1044 10.2809L18.6466 10.4611L19.6099 9.24293C19.8724 8.91121 20.3766 8.91121 20.6402 9.24293L21.6024 10.4611L23.1456 10.2809C23.5663 10.2325 23.9222 10.5884 23.8739 11.0092L23.6938 12.5525L24.9119 13.5146C25.2436 13.7771 25.2436 14.2814 24.9119 14.545Z" fill="#F05220"/>
<path d="M20.1247 16.2555C21.354 16.2555 22.3505 15.259 22.3505 14.0297C22.3505 12.8005 21.354 11.804 20.1247 11.804C18.8954 11.804 17.8989 12.8005 17.8989 14.0297C17.8989 15.259 18.8954 16.2555 20.1247 16.2555Z" fill="#E64A19"/>
<path d="M33.4377 22.57C33.3411 22.5326 33.2633 22.4583 33.2215 22.3635C33.1796 22.2688 33.1771 22.1613 33.2145 22.0647C33.8425 20.4445 34.1609 18.7367 34.1609 16.9887C34.1609 10.0353 28.9734 4.06029 22.0942 3.09045C22.0434 3.08328 21.9945 3.06617 21.9504 3.04011C21.9062 3.01404 21.8676 2.97953 21.8367 2.93854C21.8059 2.89756 21.7834 2.85089 21.7706 2.80122C21.7578 2.75155 21.7549 2.69984 21.762 2.64904C21.7692 2.59825 21.7863 2.54936 21.8124 2.50518C21.8384 2.461 21.8729 2.42238 21.9139 2.39153C21.9549 2.36068 22.0016 2.33821 22.0513 2.3254C22.1009 2.31259 22.1526 2.30968 22.2034 2.31686C29.4658 3.34076 34.9422 9.64826 34.9422 16.9887C34.9422 18.8337 34.6061 20.6365 33.943 22.347C33.9244 22.3948 33.8967 22.4385 33.8612 22.4756C33.8258 22.5127 33.7834 22.5425 33.7365 22.5632C33.6896 22.5839 33.639 22.5951 33.5878 22.5963C33.5365 22.5975 33.4855 22.5885 33.4377 22.57ZM20.5938 2.96014L20.5808 2.95998C20.4289 2.9551 20.277 2.95265 20.125 2.95264C20.0214 2.95264 19.922 2.91148 19.8488 2.83823C19.7755 2.76497 19.7344 2.66561 19.7344 2.56201C19.7344 2.45841 19.7755 2.35905 19.8488 2.2858C19.922 2.21254 20.0214 2.17139 20.125 2.17139C20.2859 2.17139 20.4464 2.17389 20.6061 2.17904C20.7088 2.18193 20.8063 2.22518 20.8773 2.29942C20.9484 2.37367 20.9873 2.47293 20.9857 2.57569C20.9841 2.67844 20.942 2.77642 20.8687 2.84839C20.7953 2.92035 20.6965 2.9605 20.5938 2.96014Z" fill="white"/>
<path d="M29.138 28.2585C29.1049 28.2193 29.0799 28.174 29.0643 28.1251C29.0488 28.0762 29.043 28.0247 29.0473 27.9736C29.0516 27.9225 29.066 27.8727 29.0895 27.8272C29.1131 27.7816 29.1454 27.7411 29.1846 27.708C29.3008 27.6101 29.4154 27.5101 29.5283 27.4083C29.5664 27.374 29.6109 27.3475 29.6593 27.3303C29.7077 27.3132 29.7589 27.3057 29.8102 27.3084C29.8614 27.3111 29.9116 27.3238 29.9579 27.3459C30.0043 27.3679 30.0458 27.3989 30.0801 27.437C30.1145 27.4751 30.141 27.5196 30.1581 27.568C30.1753 27.6164 30.1827 27.6676 30.1801 27.7189C30.1774 27.7701 30.1647 27.8203 30.1426 27.8666C30.1205 27.9129 30.0896 27.9545 30.0515 27.9888C29.9322 28.0962 29.8112 28.2017 29.6885 28.3052C29.6093 28.3719 29.5068 28.4045 29.4036 28.3957C29.3004 28.387 29.2049 28.3376 29.138 28.2585ZM30.6318 26.8832C30.5935 26.849 30.5624 26.8076 30.5401 26.7614C30.5178 26.7152 30.5049 26.6651 30.502 26.6139C30.4991 26.5626 30.5063 26.5113 30.5233 26.4629C30.5402 26.4145 30.5665 26.3699 30.6007 26.3316C31.722 25.0785 32.6075 23.633 33.2144 22.0648C33.2325 22.0163 33.26 21.9719 33.2953 21.9341C33.3307 21.8964 33.3732 21.866 33.4204 21.8449C33.4676 21.8237 33.5185 21.812 33.5702 21.8107C33.6219 21.8093 33.6733 21.8182 33.7216 21.8369C33.7698 21.8556 33.8138 21.8837 33.8511 21.9195C33.8884 21.9554 33.9182 21.9982 33.9388 22.0457C33.9594 22.0931 33.9703 22.1442 33.971 22.1959C33.9717 22.2476 33.9622 22.299 33.9429 22.3469C33.302 24.0027 32.3671 25.529 31.1832 26.8521C31.1142 26.9293 31.0173 26.976 30.9139 26.9818C30.8105 26.9876 30.709 26.9522 30.6318 26.8832Z" fill="#FED3C5"/>
<path d="M18.3174 23.9214H17.7593C17.6557 23.9214 17.5563 23.9625 17.4831 24.0358C17.4098 24.1091 17.3687 24.2084 17.3687 24.312C17.3687 24.4156 17.4098 24.515 17.4831 24.5882C17.5563 24.6615 17.6557 24.7026 17.7593 24.7026H18.3174C18.421 24.7026 18.5204 24.6615 18.5936 24.5882C18.6669 24.515 18.708 24.4156 18.708 24.312C18.708 24.2084 18.6669 24.1091 18.5936 24.0358C18.5204 23.9625 18.421 23.9214 18.3174 23.9214ZM12.7549 25.6342H12.1968C12.0932 25.6342 11.9938 25.6754 11.9206 25.7486C11.8473 25.8219 11.8062 25.9212 11.8062 26.0248C11.8062 26.1284 11.8473 26.2278 11.9206 26.301C11.9938 26.3743 12.0932 26.4155 12.1968 26.4155H12.7549C12.8585 26.4155 12.9579 26.3743 13.0311 26.301C13.1044 26.2278 13.1455 26.1284 13.1455 26.0248C13.1455 25.9212 13.1044 25.8219 13.0311 25.7486C12.9579 25.6754 12.8585 25.6342 12.7549 25.6342ZM22.943 26.6639H22.3849C22.2813 26.6639 22.1819 26.705 22.1087 26.7783C22.0354 26.8516 21.9943 26.9509 21.9943 27.0545C21.9943 27.1581 22.0354 27.2575 22.1087 27.3307C22.1819 27.404 22.2813 27.4451 22.3849 27.4451H22.943C23.0466 27.4451 23.146 27.404 23.2192 27.3307C23.2925 27.2575 23.3337 27.1581 23.3337 27.0545C23.3337 26.9509 23.2925 26.8516 23.2192 26.7783C23.146 26.705 23.0466 26.6639 22.943 26.6639ZM28.8338 25.0162H28.2757C28.1721 25.0162 28.0727 25.0574 27.9995 25.1306C27.9262 25.2039 27.8851 25.3033 27.8851 25.4069C27.8851 25.5105 27.9262 25.6098 27.9995 25.6831C28.0727 25.7563 28.1721 25.7975 28.2757 25.7975H28.8338C28.9374 25.7975 29.0368 25.7563 29.11 25.6831C29.1833 25.6098 29.2244 25.5105 29.2244 25.4069C29.2244 25.3033 29.1833 25.2039 29.11 25.1306C29.0368 25.0574 28.9374 25.0162 28.8338 25.0162ZM24.5112 36.9959C24.6148 36.9959 24.7141 36.9548 24.7874 36.8815C24.8606 36.8082 24.9018 36.7089 24.9018 36.6053V31.7981C24.9018 31.4064 24.3854 31.2587 24.179 31.5926L22.7969 33.8262L21.4147 31.5926C21.2087 31.2592 20.6919 31.4059 20.6919 31.7981V36.6053C20.6919 36.7089 20.7331 36.8082 20.8063 36.8815C20.8796 36.9548 20.979 36.9959 21.0826 36.9959C21.1862 36.9959 21.2855 36.9548 21.3588 36.8815C21.432 36.8082 21.4732 36.7089 21.4732 36.6053V33.1719L22.4647 34.7742C22.6171 35.0204 22.9765 35.0209 23.1291 34.7742L24.1205 33.1719V36.6054C24.1206 36.709 24.1617 36.8083 24.235 36.8816C24.3082 36.9548 24.4076 36.9959 24.5112 36.9959ZM15.7393 31.4076C15.6357 31.4076 15.5363 31.4488 15.4631 31.522C15.3898 31.5953 15.3487 31.6947 15.3487 31.7983V36.6053C15.3487 36.7089 15.3898 36.8082 15.4631 36.8815C15.5363 36.9548 15.6357 36.9959 15.7393 36.9959C15.8429 36.9959 15.9422 36.9548 16.0155 36.8815C16.0887 36.8082 16.1299 36.7089 16.1299 36.6053V35.1297H17.6974C18.7235 35.1297 19.5585 34.2947 19.5585 33.2686C19.5585 32.2425 18.7237 31.4076 17.6974 31.4076H15.7393ZM18.7772 33.2686C18.7772 33.864 18.2929 34.3484 17.6974 34.3484H16.1299V32.1889H17.6974C18.2927 32.1889 18.7772 32.6731 18.7772 33.2686Z" fill="#424242"/>
<path d="M22.8076 39.3906C23.0234 39.3906 23.1982 39.2157 23.1982 39C23.1982 38.7843 23.0234 38.6094 22.8076 38.6094C22.5919 38.6094 22.417 38.7843 22.417 39C22.417 39.2157 22.5919 39.3906 22.8076 39.3906Z" fill="#424242"/>
<path d="M20.1248 0.608887L20.1211 0.609199C13.3501 0.610762 7.51246 4.72717 5.0248 10.6312C4.98477 10.7266 4.98417 10.8339 5.02312 10.9296C5.06208 11.0254 5.13741 11.1018 5.23262 11.1422C5.2799 11.1623 5.33069 11.1729 5.38207 11.1733C5.43346 11.1738 5.48443 11.1641 5.53205 11.1447C5.57967 11.1254 5.623 11.0969 5.65957 11.0608C5.69613 11.0247 5.72521 10.9817 5.74512 10.9344C8.1173 5.30467 13.6773 1.39045 20.1248 1.39045L20.1275 1.39014C28.7271 1.3917 35.7232 8.38842 35.7232 16.9886C35.724 18.6482 35.4591 20.2972 34.9384 21.8729H5.31121C4.79051 20.2972 4.52554 18.6483 4.52637 16.9887C4.52637 15.9295 4.63262 14.8701 4.84512 13.8389C4.86526 13.7374 4.84455 13.6321 4.7875 13.5459C4.73045 13.4596 4.64167 13.3993 4.54043 13.3781C4.33105 13.3358 4.12168 13.4765 4.07949 13.6826C3.85703 14.7705 3.745 15.8781 3.74512 16.9886C3.74512 16.9886 3.74512 16.9884 3.74512 16.9886V16.9889C3.74527 22.9836 6.99777 28.5195 12.3639 31.4114V37.4376C12.3639 38.5147 13.24 39.3908 14.317 39.3908C14.3186 39.3908 14.32 39.3903 14.3215 39.3903H21.2451C21.3487 39.3903 21.4481 39.3491 21.5213 39.2759C21.5946 39.2026 21.6357 39.1033 21.6357 38.9997C21.6357 38.8961 21.5946 38.7967 21.5213 38.7235C21.4481 38.6502 21.3487 38.609 21.2451 38.609H14.317L14.314 38.6094C13.6692 38.6076 13.1453 38.0828 13.1453 37.4376V30.9654C13.1453 30.3192 13.6709 29.7936 14.3171 29.7936H25.9323C26.5786 29.7936 27.1042 30.3192 27.1042 30.9654V37.4376C27.1042 38.0828 26.5803 38.6075 25.9356 38.6094L25.9328 38.609H24.3703C24.2667 38.609 24.1673 38.6502 24.0941 38.7235C24.0208 38.7967 23.9796 38.8961 23.9796 38.9997C23.9796 39.1033 24.0208 39.2026 24.0941 39.2759C24.1673 39.3491 24.2667 39.3903 24.3703 39.3903H25.9279C25.9295 39.3903 25.9309 39.3908 25.9325 39.3908C27.0095 39.3908 27.8856 38.5147 27.8856 37.4376V31.4115C33.2482 28.5217 36.5048 22.9873 36.5048 16.9884C36.5045 7.95685 29.1567 0.608887 20.1248 0.608887ZM27.8387 30.5458C27.6459 29.6701 26.865 29.0125 25.9323 29.0125H14.317C13.3843 29.0125 12.6034 29.67 12.4106 30.5456C9.2859 28.7665 6.89262 25.9969 5.59184 22.6542H34.6576C33.357 25.9969 30.9637 28.7667 27.8387 30.5458Z" fill="#424242"/>
<path d="M4.73424 12.6218C4.92299 12.6848 5.15502 12.583 5.2233 12.3641C5.25358 12.2653 5.24344 12.1585 5.19512 12.0671C5.14679 11.9757 5.06422 11.9073 4.96549 11.8766C4.76237 11.8126 4.54049 11.9313 4.47799 12.1313L4.47643 12.1329C4.44581 12.2319 4.45577 12.339 4.50412 12.4307C4.55246 12.5224 4.63524 12.5911 4.73424 12.6218ZM15.0958 14.8516L16.1428 15.6787L15.988 17.006C15.911 17.6752 16.4742 18.2427 17.1496 18.1668L18.4752 18.012C19.1902 18.9165 19.2871 19.038 19.3035 19.0593C19.7222 19.5882 20.5253 19.589 20.946 19.0599C21.0583 18.9229 20.6044 19.4913 21.7736 18.012L23.1011 18.1668C23.7694 18.2451 24.3394 17.6782 24.2619 17.0052L24.1071 15.6787L25.1541 14.8516L25.155 14.8509C25.6838 14.4305 25.6836 13.6274 25.1541 13.2082L24.1071 12.3812L24.2619 11.0538C24.3386 10.3879 23.7791 9.81789 23.1003 9.89289L21.7738 10.0477L20.9461 8.99992C20.5263 8.4718 19.723 8.4707 19.3036 9.0007L18.4755 10.0477L17.1491 9.89289C16.4841 9.81398 15.9108 10.3787 15.9885 11.0546L16.1433 12.3812L15.0961 13.2084C14.5669 13.627 14.5653 14.4298 15.0958 14.8516ZM15.5802 13.8213L16.7983 12.8591C16.8506 12.8178 16.8915 12.7638 16.917 12.7022C16.9425 12.6406 16.9518 12.5735 16.9441 12.5073L16.7641 10.9648C16.7444 10.7929 16.8897 10.6484 17.0589 10.669L18.6011 10.8491C18.6673 10.8567 18.7343 10.8472 18.7958 10.8217C18.8573 10.7962 18.9114 10.7555 18.9528 10.7034L19.9161 9.48539C19.9411 9.45402 19.9728 9.42868 20.0089 9.41125C20.045 9.39382 20.0846 9.38476 20.1247 9.38473C20.1648 9.3847 20.2044 9.3937 20.2405 9.41108C20.2767 9.42845 20.3084 9.45374 20.3335 9.48508L21.2956 10.7032C21.3372 10.7553 21.3912 10.796 21.4528 10.8216C21.5143 10.8471 21.5813 10.8566 21.6475 10.8491L23.1902 10.669C23.2301 10.6644 23.2705 10.6688 23.3084 10.682C23.3463 10.6952 23.3808 10.7168 23.4092 10.7451C23.4376 10.7735 23.4593 10.8079 23.4725 10.8458C23.4858 10.8837 23.4903 10.9241 23.4858 10.964L23.3056 12.5073C23.2979 12.5735 23.3072 12.6406 23.3327 12.7022C23.3582 12.7638 23.3991 12.8178 23.4514 12.8591L24.6692 13.8212C24.7007 13.8462 24.726 13.878 24.7435 13.9142C24.7609 13.9503 24.7699 13.99 24.7699 14.0302C24.7699 14.0703 24.7608 14.11 24.7433 14.1461C24.7258 14.1823 24.7004 14.214 24.6689 14.239L23.4514 15.2007C23.3991 15.242 23.3582 15.2961 23.3327 15.3577C23.3072 15.4193 23.2979 15.4864 23.3056 15.5526L23.4856 17.0951C23.4903 17.135 23.4858 17.1754 23.4727 17.2133C23.4595 17.2513 23.4379 17.2857 23.4096 17.3141C23.3812 17.3426 23.3468 17.3642 23.3089 17.3775C23.271 17.3907 23.2305 17.3953 23.1906 17.3907L21.6474 17.2107C21.4006 17.1838 21.2928 17.3677 21.2772 17.3799C20.9629 17.7771 20.6489 18.1745 20.3353 18.5723L20.3341 18.5738C20.2336 18.7004 20.0366 18.7245 19.8999 18.5535C19.846 18.4865 18.9996 17.4157 18.9522 17.3559C18.9108 17.3038 18.8569 17.2632 18.7954 17.2378C18.7339 17.2124 18.667 17.2031 18.601 17.2107L17.0597 17.3907C17.0198 17.3955 16.9793 17.3911 16.9414 17.378C16.9034 17.3649 16.8689 17.3433 16.8404 17.3149C16.8119 17.2866 16.7903 17.2521 16.777 17.2142C16.7638 17.1762 16.7593 17.1358 16.7639 17.0959L16.9441 15.5526C16.9518 15.4864 16.9425 15.4193 16.917 15.3577C16.8915 15.2961 16.8506 15.242 16.7983 15.2007L15.5811 14.2393C15.5496 14.2144 15.5241 14.1827 15.5066 14.1465C15.489 14.1104 15.4798 14.0707 15.4797 14.0305C15.4797 13.9904 15.4886 13.9507 15.506 13.9144C15.5234 13.8782 15.5488 13.8464 15.5802 13.8213Z" fill="#424242"/>
<path d="M20.1247 16.6462C21.76 16.6462 22.9797 15.1574 22.7046 13.5938C22.6702 13.3845 22.4655 13.236 22.2546 13.2735C22.0391 13.3092 21.8999 13.5157 21.9342 13.7218V13.7235C22.1238 14.8223 21.2735 15.8649 20.1247 15.8649C19.1128 15.8649 18.2896 15.0417 18.2896 14.0298C18.2896 13.0179 19.1128 12.1946 20.1247 12.1946C20.1761 12.1946 20.2269 12.1845 20.2744 12.1648C20.3218 12.1451 20.3649 12.1163 20.4012 12.0799C20.4375 12.0436 20.4663 12.0004 20.4859 11.9529C20.5055 11.9055 20.5156 11.8546 20.5155 11.8032C20.5155 11.6042 20.35 11.414 20.1258 11.4134L20.1249 11.4126C18.6869 11.4126 17.5083 12.5843 17.5083 14.0298C17.5083 15.4724 18.6821 16.6462 20.1247 16.6462Z" fill="#424242"/>
<path d="M21.8596 12.5813C21.9986 12.4188 21.9783 12.1719 21.8158 12.0328L21.8143 12.0313C21.6564 11.8969 21.3971 11.9186 21.2643 12.0766C21.2309 12.1157 21.2056 12.161 21.1898 12.21C21.174 12.2589 21.168 12.3105 21.1722 12.3617C21.1764 12.413 21.1907 12.4629 21.2143 12.5086C21.2379 12.5543 21.2703 12.5949 21.3096 12.628C21.4749 12.768 21.7238 12.746 21.8596 12.5813Z" fill="#424242"/>
</svg>
