<svg width="34" height="28" viewBox="0 0 34 28" fill="none" xmlns="http://www.w3.org/2000/svg">
<path d="M27.0007 15.6667V12.3334H33.6673V15.6667H27.0007ZM29.0007 27.3334L23.6673 23.3334L25.6673 20.6667L31.0007 24.6667L29.0007 27.3334ZM25.6673 7.33341L23.6673 4.66675L29.0007 0.666748L31.0007 3.33341L25.6673 7.33341ZM5.33398 25.6667V19.0001H3.66732C2.75065 19.0001 1.96593 18.6737 1.31315 18.0209C0.660373 17.3681 0.333984 16.5834 0.333984 15.6667V12.3334C0.333984 11.4167 0.660373 10.632 1.31315 9.97925C1.96593 9.32647 2.75065 9.00008 3.66732 9.00008H10.334L18.6673 4.00008V24.0001L10.334 19.0001H8.66732V25.6667H5.33398ZM20.334 19.5834V8.41675C21.084 9.08341 21.6882 9.89591 22.1465 10.8542C22.6048 11.8126 22.834 12.8612 22.834 14.0001C22.834 15.139 22.6048 16.1876 22.1465 17.1459C21.6882 18.1042 21.084 18.9167 20.334 19.5834ZM3.66732 12.3334V15.6667H11.2507L15.334 18.0834V9.91675L11.2507 12.3334H3.66732Z" fill="white"/>
</svg>
