<svg width="41" height="40" viewBox="0 0 41 40" fill="none" xmlns="http://www.w3.org/2000/svg">
<g clip-path="url(#clip0_1253_5180)">
<path d="M5.2915 21.7577C5.2915 12.3637 12.9279 4.66675 22.3824 4.66675C31.837 4.66675 39.4127 12.3031 39.4127 21.7577C39.4127 31.2122 31.7764 38.788 22.3218 38.788C12.8673 38.788 5.2915 31.1516 5.2915 21.7577Z" fill="#CFCFCF"/>
<path opacity="0.3" d="M35.534 10.9092C32.5643 8.48493 28.8067 7.03038 24.6855 7.03038C15.2916 7.03038 7.59459 14.6667 7.59459 24.0607C7.59459 28.1819 9.04914 31.9395 11.4734 34.9092C7.6552 31.7577 5.23096 27.0304 5.23096 21.697C5.23096 12.2425 12.8673 4.66675 22.3219 4.66675C27.6552 4.66675 32.3825 7.09099 35.534 10.9092Z" fill="white"/>
<path opacity="0.1" d="M9.17041 32.5454C12.1401 34.9697 15.8977 36.4242 20.0189 36.4242C29.4128 36.4242 37.1098 28.7878 37.1098 19.3939C37.1098 15.2727 35.6553 11.5151 33.231 8.54541C36.9886 11.6969 39.4128 16.4242 39.4128 21.7575C39.4128 31.1515 31.7765 38.7878 22.3219 38.7878C17.0492 38.7878 12.3219 36.3636 9.17041 32.5454Z" fill="#424242"/>
<path d="M8.20068 21.7575C8.20068 13.9393 14.5643 7.57568 22.3219 7.57568C30.0795 7.57568 36.5037 13.9393 36.5037 21.7575C36.5037 29.5757 30.1401 35.8787 22.3219 35.8787C14.5037 35.8787 8.20068 29.5757 8.20068 21.7575Z" fill="#FEF3F0"/>
<path opacity="0.1" d="M36.5036 21.7576C36.5036 29.5758 30.14 35.8789 22.3218 35.8789C17.5945 35.8789 13.3521 33.5152 10.8066 29.9395C13.1097 31.5758 15.9582 32.6061 19.0491 32.6061C26.8672 32.6061 33.1703 26.2425 33.1703 18.4243C33.1703 15.3334 32.2006 12.4849 30.5036 10.1819C34.14 12.7879 36.5036 16.9698 36.5036 21.7576Z" fill="#424242"/>
<path opacity="0.3" d="M10.625 29.6364C12.8674 31.1515 15.5947 32.0606 18.5644 32.0606C26.3826 32.0606 32.6856 25.7576 32.6856 17.9394C32.6856 15.0303 31.7765 12.2424 30.2614 10C34.0189 12.5455 36.5038 16.8485 36.5038 21.697C36.5038 29.5152 30.1402 35.8182 22.3826 35.8182C17.4735 35.8788 13.1705 33.3939 10.625 29.6364Z" fill="white"/>
<path d="M22.3217 10.7273V12.7273V10.7273ZM22.3217 32.7273V30.7273V32.7273ZM30.1399 13.9394L28.6854 15.394L30.1399 13.9394ZM14.5642 29.5152L16.0187 28.0606L14.5642 29.5152ZM33.3521 21.7576H31.3521H33.3521ZM11.3521 21.7576H13.3521H11.3521Z" fill="#CFCFCF"/>
<path d="M30.1402 29.5152L28.6857 28.0607L30.1402 29.5152ZM14.5645 13.9395L16.019 15.394L14.5645 13.9395Z" fill="#424242"/>
<path d="M20.6855 21.7575C20.6855 20.8484 21.4128 20.1211 22.3219 20.1211C23.231 20.1211 23.9583 20.8484 23.9583 21.7575C23.9583 22.6665 23.231 23.3938 22.3219 23.3938C21.4734 23.3938 20.6855 22.6059 20.6855 21.7575Z" fill="#E64A19"/>
<path opacity="0.1" d="M20.8066 22.1817C20.9279 22.2423 21.1097 22.2423 21.2915 22.2423C22.2006 22.2423 22.9279 21.515 22.9279 20.6059C22.9279 20.4241 22.9279 20.3029 22.8672 20.1211C23.5339 20.3029 24.0188 20.9696 24.0188 21.6969C24.0188 22.6059 23.2915 23.3332 22.3824 23.3332C21.5945 23.3938 20.9885 22.8484 20.8066 22.1817Z" fill="#424242"/>
<path d="M19.4127 10C19.4127 14.8485 15.4733 18.7879 10.6248 18.7879C5.77631 18.7879 1.83691 14.8485 1.83691 10C1.83691 5.15155 5.77631 1.21216 10.6248 1.21216C15.4733 1.21216 19.4127 5.15155 19.4127 10Z" fill="#E64A19"/>
<path opacity="0.3" d="M17.7157 4.78792C16.2612 3.69701 14.443 3.09095 12.5036 3.09095C7.6551 3.09095 3.7157 7.03034 3.7157 11.8788C3.7157 13.8182 4.32176 15.6364 5.41267 17.0909C3.23085 15.4546 1.83691 12.9091 1.83691 10C1.83691 5.15155 5.77631 1.21216 10.6248 1.21216C13.5339 1.21216 16.0793 2.6061 17.7157 4.78792Z" fill="white"/>
<path opacity="0.1" d="M15.8372 2.90918C16.9281 4.36373 17.5342 6.18191 17.5342 8.1213C17.5342 12.9698 13.5948 16.9092 8.7463 16.9092C6.80691 16.9092 4.98873 16.3031 3.53418 15.2122C5.10994 17.394 7.716 18.788 10.6251 18.788C15.4736 18.788 19.413 14.8486 19.413 10.0001C19.413 7.091 18.019 4.54554 15.8372 2.90918Z" fill="#424242"/>
<path d="M22.3219 4.06055C21.6552 4.06055 21.0492 4.12115 20.4431 4.18176C20.1401 4.24237 19.8977 4.5454 19.8977 4.84843C19.9583 5.15146 20.2613 5.39388 20.5643 5.39388C21.1098 5.33327 21.7158 5.27267 22.3219 5.27267C31.4128 5.27267 38.8068 12.6666 38.8068 21.6969C38.8068 30.7878 31.4128 38.1818 22.3219 38.1818C13.231 38.1818 5.89767 30.7878 5.89767 21.7575C5.89767 21.1515 5.95827 20.5454 6.01888 19.9999C6.07949 19.6969 5.83706 19.3939 5.47343 19.3333C5.10979 19.2727 4.86737 19.5151 4.80676 19.8787C4.74615 20.4848 4.68555 21.0908 4.68555 21.7575C4.68555 31.4545 12.6249 39.3939 22.3219 39.3939C32.0189 39.3939 40.0189 31.4545 40.0189 21.7575C40.0189 11.9999 32.0795 4.06055 22.3219 4.06055Z" fill="#8C8C8C"/>
<path d="M8.26139 20.3636C7.89776 20.3636 7.65533 20.606 7.59473 20.9091V21.7575C7.59473 29.8788 14.2008 36.4848 22.322 36.4848C30.4432 36.4848 37.0493 29.8788 37.0493 21.7575C37.0493 13.6363 30.4432 7.03027 22.322 7.03027H21.4735C21.1099 7.03027 20.8675 7.3333 20.9281 7.69694C20.9281 8.06058 21.2311 8.303 21.5947 8.24239H22.322C29.7765 8.24239 35.8372 14.303 35.8372 21.7575C35.8372 29.2121 29.7765 35.2727 22.322 35.2727C14.8675 35.2727 8.80685 29.2121 8.80685 21.7575V21.0303C8.86745 20.6666 8.62503 20.3636 8.26139 20.3636Z" fill="#8C8C8C"/>
<path d="M21.7158 10.7272V12.7272C21.7158 13.0908 21.9582 13.3332 22.3219 13.3332C22.6855 13.3332 22.9279 13.0908 22.9279 12.7272V10.7272C22.9279 10.3635 22.6855 10.1211 22.3219 10.1211C21.9582 10.1211 21.7158 10.4241 21.7158 10.7272ZM22.9279 32.7272V30.7272C22.9279 30.3635 22.6855 30.1211 22.3219 30.1211C21.9582 30.1211 21.7158 30.3635 21.7158 30.7272V32.7272C21.7158 33.0908 21.9582 33.3332 22.3219 33.3332C22.6855 33.3332 22.9279 33.0302 22.9279 32.7272ZM30.5643 13.515C30.3219 13.2726 29.9582 13.2726 29.7158 13.515L28.3219 14.909C28.0794 15.1514 28.0794 15.515 28.3219 15.7575C28.5643 15.9999 28.9279 15.9999 29.1703 15.7575L30.5643 14.3635C30.8067 14.1211 30.8067 13.7575 30.5643 13.515ZM14.9885 29.9393L16.3825 28.5453C16.6249 28.3029 16.6249 27.9393 16.3825 27.6969C16.14 27.4544 15.7764 27.4544 15.534 27.6969L14.14 29.0908C13.8976 29.3332 13.8976 29.6969 14.14 29.9393C14.2613 30.0605 14.4431 30.1211 14.5643 30.1211C14.6855 30.1211 14.8673 30.0605 14.9885 29.9393ZM33.3522 22.3635C33.7158 22.3635 33.9582 22.1211 33.9582 21.7575C33.9582 21.3938 33.7158 21.1514 33.3522 21.1514H31.3522C30.9885 21.1514 30.7461 21.3938 30.7461 21.7575C30.7461 22.1211 30.9885 22.3635 31.3522 22.3635H33.3522ZM13.3522 22.3635C13.7158 22.3635 13.9582 22.1211 13.9582 21.7575C13.9582 21.3938 13.7158 21.1514 13.3522 21.1514H11.3522C10.9885 21.1514 10.7461 21.3938 10.7461 21.7575C10.7461 22.1211 10.9885 22.3635 11.3522 22.3635H13.3522ZM28.2613 27.6363C28.0188 27.8787 28.0188 28.2423 28.2613 28.4847L29.6552 29.8787C29.8976 30.1211 30.2613 30.1211 30.5037 29.8787C30.7461 29.6363 30.7461 29.2726 30.5037 29.0302L29.1097 27.6363C28.9279 27.3938 28.5037 27.3938 28.2613 27.6363ZM19.7764 27.7575C20.0794 27.8787 20.4431 27.7575 20.5643 27.4544L22.0794 23.9393H22.3825C23.5946 23.9393 24.6249 22.909 24.6249 21.6969V21.4544L30.0794 19.212C30.3825 19.0908 30.5643 18.7272 30.3825 18.4241C30.2007 18.1211 29.8976 17.9393 29.5946 18.1211L24.14 20.3635C23.7158 19.8181 23.1097 19.515 22.3825 19.515C21.1704 19.515 20.14 20.5454 20.14 21.7575C20.14 22.4847 20.4431 23.0908 20.9885 23.515L19.4128 26.9696C19.2916 27.2726 19.4734 27.6363 19.7764 27.7575ZM21.3522 21.7575C21.3522 21.212 21.837 20.7272 22.3825 20.7272C22.9279 20.7272 23.4128 21.212 23.4128 21.7575C23.4128 22.3029 22.9885 22.7878 22.3825 22.7878C21.7764 22.7878 21.3522 22.3029 21.3522 21.7575ZM20.0188 9.9999C20.0188 4.84838 15.837 0.605957 10.6249 0.605957C5.41277 0.605957 1.23096 4.84838 1.23096 9.9999C1.23096 15.1514 5.47338 19.3938 10.6249 19.3938C15.7764 19.3938 20.0188 15.212 20.0188 9.9999ZM2.44308 9.9999C2.44308 5.51505 6.14005 1.81808 10.6249 1.81808C15.1704 1.81808 18.8067 5.51505 18.8067 9.9999C18.8067 12.1817 17.8976 14.2423 16.5037 15.6969L16.3219 15.8787C14.8673 17.3332 12.8673 18.1817 10.6249 18.1817C6.14005 18.1817 2.44308 14.5454 2.44308 9.9999Z" fill="#8C8C8C"/>
<path d="M9.04921 13.4544H6.26133C5.8977 13.4544 5.65527 13.212 5.65527 12.8484V10.0605C5.65527 9.87868 5.71588 9.75747 5.83709 9.63626C5.9583 9.51505 6.07952 9.45444 6.26133 9.45444H8.44315V7.87868H6.26133C5.8977 7.87868 5.65527 7.63626 5.65527 7.27262C5.65527 6.90899 5.8977 6.66656 6.26133 6.66656H9.04921C9.41285 6.66656 9.65527 6.90899 9.65527 7.27262V10.0605C9.65527 10.2423 9.59467 10.3635 9.47346 10.4847C9.35224 10.606 9.23103 10.6666 9.04921 10.6666H6.86739V12.2423H9.04921C9.41285 12.2423 9.65527 12.4847 9.65527 12.8484C9.65527 13.212 9.41285 13.4544 9.04921 13.4544ZM12.2007 10.606C12.0189 10.606 11.8977 10.5454 11.7765 10.4241C11.6553 10.3029 11.5947 10.1817 11.5947 9.9999V7.21202C11.5947 6.84838 11.8371 6.60596 12.2007 6.60596C12.5644 6.60596 12.8068 6.84838 12.8068 7.21202V9.39384H14.9886C15.3522 9.39384 15.5947 9.63626 15.5947 9.9999C15.5947 10.3635 15.3522 10.606 14.9886 10.606H12.2007Z" fill="#424242"/>
<path d="M15.0494 13.4544C14.6858 13.4544 14.4434 13.212 14.4434 12.8484V7.21202C14.4434 6.84838 14.6858 6.60596 15.0494 6.60596C15.4131 6.60596 15.6555 6.84838 15.6555 7.21202V12.8484C15.6555 13.1514 15.3525 13.4544 15.0494 13.4544Z" fill="#424242"/>
</g>
<defs>
<clipPath id="clip0_1253_5180">
<rect width="40" height="40" fill="white" transform="translate(0.625)"/>
</clipPath>
</defs>
</svg>
