<svg width="24" height="24" viewBox="0 0 24 24" fill="none" xmlns="http://www.w3.org/2000/svg">
<path d="M15.6752 18.75C15.9585 18.2 16.1752 17.6208 16.3252 17.0125C16.4752 16.4042 16.5502 15.775 16.5502 15.125C16.5502 13.7917 16.2585 12.5708 15.6752 11.4625C15.0919 10.3542 14.3002 9.43333 13.3002 8.7L11.0002 11V3H19.0002L16.7002 5.3C17.5669 6.08333 18.2585 7.01667 18.7752 8.1C19.2919 9.18333 19.5502 10.3583 19.5502 11.625C19.5502 13.1417 19.196 14.5167 18.4877 15.75C17.7794 16.9833 16.8419 17.9833 15.6752 18.75ZM5.0002 21L7.3002 18.7C6.41686 17.9167 5.72103 16.9833 5.2127 15.9C4.70436 14.8167 4.4502 13.6417 4.4502 12.375C4.4502 10.8583 4.80436 9.48333 5.5127 8.25C6.22103 7.01667 7.16686 6.01667 8.3502 5.25C8.06686 5.8 7.84603 6.37917 7.6877 6.9875C7.52936 7.59583 7.4502 8.225 7.4502 8.875C7.4502 10.2083 7.74603 11.4292 8.3377 12.5375C8.92936 13.6458 9.71686 14.5667 10.7002 15.3L13.0002 13V21H5.0002Z" fill="#EDF1FA"/>
</svg>
