<svg width="18" height="18" viewBox="0 0 18 18" fill="none" xmlns="http://www.w3.org/2000/svg">
<path d="M10.5626 16.2278H7.43694V17.3999H10.5626V16.2278ZM1.77172 10.5626V7.43698H0.59961V10.5626H1.77172ZM16.2278 10.2211V10.5626H17.3999V10.2211H16.2278ZM11.2588 3.22597L14.3524 6.01013L15.1362 5.13808L12.0433 2.35392L11.2588 3.22597ZM17.3999 10.2211C17.3999 8.90134 17.4116 8.06523 17.0795 7.3182L16.0082 7.79565C16.2161 8.26293 16.2278 8.79819 16.2278 10.2211H17.3999ZM14.3524 6.01013C15.4097 6.96188 15.8004 7.32914 16.0082 7.79565L17.0795 7.3182C16.7466 6.5704 16.1176 6.02107 15.1362 5.13808L14.3524 6.01013ZM7.46038 1.77177C8.69657 1.77177 9.16307 1.78114 9.578 1.94055L9.99839 0.846578C9.33263 0.590276 8.60749 0.599653 7.46038 0.599653V1.77177ZM12.0433 2.3547C11.1947 1.59126 10.6642 1.10132 9.99839 0.846578L9.57878 1.94055C9.99449 2.09996 10.3446 2.40314 11.2588 3.22597L12.0433 2.3547ZM7.43694 16.2278C5.94679 16.2278 4.88876 16.2263 4.08469 16.1184C3.29938 16.0129 2.84616 15.8145 2.51562 15.4839L1.68733 16.3122C2.27183 16.8983 3.01338 17.1569 3.92919 17.2804C4.82781 17.4015 5.98039 17.3999 7.43694 17.3999V16.2278ZM0.59961 10.5626C0.59961 12.0192 0.598048 13.171 0.719166 14.0704C0.842628 14.9862 1.10206 15.7277 1.68655 16.313L2.51484 15.4847C2.18509 15.1534 1.98661 14.7002 1.88112 13.9141C1.77329 13.1116 1.77172 12.0528 1.77172 10.5626H0.59961ZM10.5626 17.3999C12.0191 17.3999 13.1709 17.4015 14.0703 17.2804C14.9861 17.1569 15.7277 16.8975 16.313 16.313L15.4847 15.4847C15.1533 15.8145 14.7001 16.0129 13.914 16.1184C13.1115 16.2263 12.0527 16.2278 10.5626 16.2278V17.3999ZM16.2278 10.5626C16.2278 12.0528 16.2262 13.1116 16.1184 13.9149C16.0129 14.7002 15.8144 15.1534 15.4839 15.4839L16.3122 16.3122C16.8982 15.7277 17.1569 14.9862 17.2803 14.0704C17.4015 13.1717 17.3999 12.0192 17.3999 10.5626H16.2278ZM1.77172 7.43698C1.77172 5.94683 1.77329 4.88881 1.88112 4.08474C1.98661 3.29942 2.18509 2.8462 2.51562 2.51567L1.68733 1.68737C1.10127 2.27187 0.842628 3.01342 0.719166 3.92924C0.598048 4.82786 0.59961 5.98043 0.59961 7.43698H1.77172ZM7.46038 0.599653C5.99524 0.599653 4.83797 0.59809 3.93544 0.719209C3.01573 0.842671 2.27183 1.1021 1.68655 1.68659L2.51484 2.51489C2.84616 2.18513 3.30016 1.98665 4.09095 1.88116C4.89814 1.77333 5.96242 1.77177 7.46038 1.77177V0.599653Z" fill="#BF360C"/>
<path d="M9.78125 1.57642V3.52994C9.78125 5.37172 9.78125 6.293 10.3532 6.86499C10.9252 7.43698 11.8465 7.43698 13.6883 7.43698H16.8139" stroke="#BF360C"/>
</svg>
