<svg width="25" height="25" viewBox="0 0 25 25" fill="none" xmlns="http://www.w3.org/2000/svg">
<path fill-rule="evenodd" clip-rule="evenodd" d="M11.5696 3.75C10.7956 3.75 10.1506 4.341 10.0826 5.112C9.94147 6.72294 9.90573 8.34139 9.97564 9.957L9.72264 9.975L8.23264 10.083C8.01504 10.0989 7.80529 10.171 7.62394 10.2923C7.44258 10.4136 7.29583 10.5799 7.19806 10.775C7.10028 10.97 7.05483 11.1871 7.06615 11.405C7.07747 11.6229 7.14518 11.8341 7.26264 12.018C8.35906 13.7337 9.77184 15.2252 11.4256 16.413L12.0216 16.842C12.2577 17.0116 12.541 17.1029 12.8316 17.1029C13.1223 17.1029 13.4056 17.0116 13.6416 16.842L14.2376 16.413C15.8911 15.2252 17.3035 13.7337 18.3996 12.018C18.5171 11.8341 18.5848 11.6229 18.5961 11.405C18.6075 11.1871 18.562 10.97 18.4642 10.775C18.3665 10.5799 18.2197 10.4136 18.0383 10.2923C17.857 10.171 17.6472 10.0989 17.4296 10.083L15.9396 9.975C15.8557 9.96875 15.7717 9.96275 15.6876 9.957C15.7576 8.342 15.7216 6.723 15.5806 5.112C15.5481 4.74011 15.3774 4.39392 15.1021 4.14177C14.8268 3.88962 14.467 3.74983 14.0936 3.75H11.5696ZM11.5136 10.615C11.3997 8.82763 11.4208 7.03421 11.5766 5.25H14.0866C14.2429 7.03418 14.2643 8.8276 14.1506 10.615C14.1444 10.7141 14.158 10.8134 14.1904 10.9073C14.2229 11.0011 14.2737 11.0875 14.3398 11.1616C14.406 11.2356 14.4861 11.2958 14.5757 11.3386C14.6653 11.3814 14.7625 11.406 14.8616 11.411C15.1856 11.427 15.5086 11.447 15.8316 11.471L16.9126 11.55C15.9525 12.964 14.7508 14.1979 13.3626 15.195L12.8326 15.576L12.3006 15.195C10.9124 14.1976 9.71067 12.9634 8.75064 11.549L9.83164 11.472C10.1546 11.448 10.4786 11.428 10.8016 11.412C10.9009 11.4072 10.9982 11.3826 11.0879 11.3399C11.1776 11.2971 11.2579 11.237 11.3241 11.1629C11.3904 11.0888 11.4412 11.0024 11.4738 10.9085C11.5063 10.8146 11.5199 10.7152 11.5136 10.616V10.615Z" fill="#BF360C"/>
<path d="M6.58203 17.5C6.58203 17.3011 6.50301 17.1103 6.36236 16.9697C6.22171 16.829 6.03094 16.75 5.83203 16.75C5.63312 16.75 5.44235 16.829 5.3017 16.9697C5.16105 17.1103 5.08203 17.3011 5.08203 17.5V19.5C5.08203 20.466 5.86603 21.25 6.83203 21.25H18.832C19.2962 21.25 19.7413 21.0656 20.0695 20.7374C20.3977 20.4092 20.582 19.9641 20.582 19.5V17.5C20.582 17.3011 20.503 17.1103 20.3624 16.9697C20.2217 16.829 20.0309 16.75 19.832 16.75C19.6331 16.75 19.4424 16.829 19.3017 16.9697C19.161 17.1103 19.082 17.3011 19.082 17.5V19.5C19.082 19.5663 19.0557 19.6299 19.0088 19.6768C18.9619 19.7237 18.8983 19.75 18.832 19.75H6.83203C6.76573 19.75 6.70214 19.7237 6.65525 19.6768C6.60837 19.6299 6.58203 19.5663 6.58203 19.5V17.5Z" fill="#BF360C"/>
</svg>
