<svg width="18" height="18" viewBox="0 0 18 18" fill="none" xmlns="http://www.w3.org/2000/svg">
<path style="transform: translate(-9px, -9px);" d="M12.75 23.25H13.8L20.2688 16.7812L19.2188 15.7313L12.75 22.2V23.25ZM23.475 15.6938L20.2875 12.5438L21.3375 11.4938C21.625 11.2063 21.9781 11.0625 22.3969 11.0625C22.8156 11.0625 23.1688 11.2063 23.4563 11.4938L24.5063 12.5438C24.7938 12.8313 24.9438 13.1781 24.9563 13.5844C24.9688 13.9906 24.8313 14.3375 24.5438 14.625L23.475 15.6938ZM22.3875 16.8L14.4375 24.75H11.25V21.5625L19.2 13.6125L22.3875 16.8ZM19.7438 16.2563L19.2188 15.7313L20.2688 16.7812L19.7438 16.2563Z" fill="#BF360C"/>
</svg>
