<svg width="14" height="14" viewBox="0 0 14 14" fill="none" xmlns="http://www.w3.org/2000/svg">
<path d="M1.64648 12.3438H2.69648L9.16523 5.875L8.11523 4.825L1.64648 11.2938V12.3438ZM12.3715 4.7875L9.18398 1.6375L10.234 0.5875C10.5215 0.3 10.8746 0.15625 11.2934 0.15625C11.7121 0.15625 12.0652 0.3 12.3527 0.5875L13.4027 1.6375C13.6902 1.925 13.8402 2.27188 13.8527 2.67813C13.8652 3.08438 13.7277 3.43125 13.4402 3.71875L12.3715 4.7875ZM11.284 5.89375L3.33398 13.8438H0.146484V10.6562L8.09648 2.70625L11.284 5.89375ZM8.64023 5.35L8.11523 4.825L9.16523 5.875L8.64023 5.35Z" fill="white"/>
</svg>
