<svg width="18" height="18" viewBox="0 0 18 18" fill="none" xmlns="http://www.w3.org/2000/svg">
<g id="Group">
<path id="Vector" d="M10.5626 16.2279H7.43694V17.4H10.5626V16.2279ZM1.77172 10.5627V7.43704H0.59961V10.5627H1.77172ZM16.2278 10.2212V10.5627H17.3999V10.2212H16.2278ZM11.2588 3.22603L14.3524 6.01019L15.1362 5.13814L12.0433 2.35398L11.2588 3.22603ZM17.3999 10.2212C17.3999 8.9014 17.4116 8.06529 17.0795 7.31827L16.0082 7.79571C16.2161 8.26299 16.2278 8.79825 16.2278 10.2212H17.3999ZM14.3524 6.01019C15.4097 6.96194 15.8004 7.32921 16.0082 7.79571L17.0795 7.31827C16.7466 6.57046 16.1176 6.02113 15.1362 5.13814L14.3524 6.01019ZM7.46038 1.77183C8.69657 1.77183 9.16307 1.7812 9.578 1.94061L9.99839 0.846639C9.33263 0.590337 8.60749 0.599714 7.46038 0.599714V1.77183ZM12.0433 2.35476C11.1947 1.59132 10.6642 1.10138 9.99839 0.846639L9.57878 1.94061C9.99449 2.10002 10.3446 2.40321 11.2588 3.22603L12.0433 2.35476ZM7.43694 16.2279C5.94679 16.2279 4.88876 16.2263 4.08469 16.1185C3.29938 16.013 2.84616 15.8145 2.51562 15.484L1.68733 16.3123C2.27183 16.8983 3.01338 17.157 3.92919 17.2804C4.82781 17.4016 5.98039 17.4 7.43694 17.4V16.2279ZM0.59961 10.5627C0.59961 12.0192 0.598048 13.171 0.719166 14.0704C0.842628 14.9862 1.10206 15.7278 1.68655 16.3131L2.51484 15.4848C2.18509 15.1535 1.98661 14.7002 1.88112 13.9141C1.77329 13.1116 1.77172 12.0528 1.77172 10.5627H0.59961ZM10.5626 17.4C12.0191 17.4 13.1709 17.4016 14.0703 17.2804C14.9861 17.157 15.7277 16.8976 16.313 16.3131L15.4847 15.4848C15.1533 15.8145 14.7001 16.013 13.914 16.1185C13.1115 16.2263 12.0527 16.2279 10.5626 16.2279V17.4ZM16.2278 10.5627C16.2278 12.0528 16.2262 13.1116 16.1184 13.9149C16.0129 14.7002 15.8144 15.1535 15.4839 15.484L16.3122 16.3123C16.8982 15.7278 17.1569 14.9862 17.2803 14.0704C17.4015 13.1718 17.3999 12.0192 17.3999 10.5627H16.2278ZM1.77172 7.43704C1.77172 5.94689 1.77329 4.88887 1.88112 4.0848C1.98661 3.29948 2.18509 2.84626 2.51562 2.51573L1.68733 1.68744C1.10127 2.27193 0.842628 3.01349 0.719166 3.9293C0.598048 4.82792 0.59961 5.98049 0.59961 7.43704H1.77172ZM7.46038 0.599714C5.99524 0.599714 4.83797 0.598151 3.93544 0.71927C3.01573 0.842732 2.27183 1.10216 1.68655 1.68665L2.51484 2.51495C2.84616 2.18519 3.30016 1.98671 4.09095 1.88122C4.89814 1.77339 5.96242 1.77183 7.46038 1.77183V0.599714Z" fill="black"/>
<path id="Vector_2" d="M9.78125 1.57654V3.53006C9.78125 5.37184 9.78125 6.29312 10.3532 6.86511C10.9252 7.4371 11.8465 7.4371 13.6883 7.4371H16.8139" stroke="black"/>
</g>
</svg>
