<svg width="20" height="20" viewBox="0 0 20 20" fill="none" xmlns="http://www.w3.org/2000/svg">
<path d="M16.6663 15.8333V8.74996C16.6663 8.62059 16.6362 8.49299 16.5784 8.37728C16.5205 8.26157 16.4365 8.16091 16.333 8.08329L10.4997 3.70829C10.3554 3.60011 10.18 3.54163 9.99967 3.54163C9.81937 3.54163 9.64392 3.60011 9.49967 3.70829L3.66634 8.08329C3.56284 8.16091 3.47884 8.26157 3.42099 8.37728C3.36313 8.49299 3.33301 8.62059 3.33301 8.74996V15.8333C3.33301 16.0543 3.42081 16.2663 3.57709 16.4225C3.73337 16.5788 3.94533 16.6666 4.16634 16.6666H7.49967C7.72069 16.6666 7.93265 16.5788 8.08893 16.4225C8.24521 16.2663 8.33301 16.0543 8.33301 15.8333V13.3333C8.33301 13.1123 8.42081 12.9003 8.57709 12.744C8.73337 12.5878 8.94533 12.5 9.16634 12.5H10.833C11.054 12.5 11.266 12.5878 11.4223 12.744C11.5785 12.9003 11.6663 13.1123 11.6663 13.3333V15.8333C11.6663 16.0543 11.7541 16.2663 11.9104 16.4225C12.0667 16.5788 12.2787 16.6666 12.4997 16.6666H15.833C16.054 16.6666 16.266 16.5788 16.4223 16.4225C16.5785 16.2663 16.6663 16.0543 16.6663 15.8333Z" fill="black" stroke="black" stroke-width="1.66667" stroke-linecap="round" stroke-linejoin="round"/>
</svg>
