<svg width="23" height="19" viewBox="0 0 23 19" fill="none" xmlns="http://www.w3.org/2000/svg">
<path d="M11.3027 17.1699L12.2305 15.7051C11.1969 14.2891 10.2204 12.5638 9.30078 10.5293C8.56022 8.85286 7.68945 6.24056 6.68848 2.69238C6.6071 2.40755 6.54606 2.17562 6.50537 1.99658C6.34261 2.01286 6.17578 2.021 6.00488 2.021C5.69564 2.021 5.43522 2.021 5.22363 2.021C5.01204 2.021 4.83708 2.01286 4.69873 1.99658C6.1473 8.15706 8.34863 13.2148 11.3027 17.1699ZM15.7949 0.373047C17.1865 0.625326 18.1631 0.751465 18.7246 0.751465C19.4814 0.751465 20.3644 0.633464 21.3735 0.397461L21.52 0.373047C21.6991 0.373047 21.8537 0.44222 21.9839 0.580566C22.1141 0.710775 22.1792 0.85319 22.1792 1.00781C22.1792 1.34961 22.0124 1.56527 21.6787 1.65479C20.93 1.83382 20.1772 1.94775 19.4204 1.99658C18.4683 6.2609 16.7471 10.5252 14.2568 14.7896C13.4919 16.0916 12.6984 17.3693 11.8765 18.6226C11.7544 18.7853 11.5794 18.887 11.3516 18.9277C11.1318 18.9277 10.9569 18.8423 10.8267 18.6714C7.43311 14.3501 4.95101 8.77555 3.38037 1.94775C2.97347 1.90706 2.56657 1.86637 2.15967 1.82568C1.75277 1.78499 1.4069 1.74023 1.12207 1.69141C0.641927 1.61003 0.401855 1.38623 0.401855 1.02002C0.401855 0.824707 0.475098 0.670085 0.621582 0.556152C0.768066 0.434082 0.910482 0.373047 1.04883 0.373047C1.42318 0.470703 2.07829 0.560221 3.01416 0.641602C3.95003 0.714844 4.9917 0.751465 6.13916 0.751465C7.28662 0.751465 8.49105 0.625326 9.75244 0.373047C9.93962 0.373047 10.0902 0.44222 10.2041 0.580566C10.318 0.710775 10.375 0.857259 10.375 1.02002C10.375 1.17464 10.3262 1.31299 10.2285 1.43506C10.1309 1.55713 9.95589 1.64258 9.70361 1.69141C9.45947 1.7321 9.1665 1.77279 8.82471 1.81348C8.49105 1.84603 8.14925 1.88265 7.79932 1.92334C8.41781 4.3973 9.01595 6.37077 9.59375 7.84375C10.6517 10.5374 11.7707 12.755 12.9507 14.4966C14.2365 12.34 15.2008 10.4845 15.8438 8.93018C16.8854 6.3667 17.6382 4.0555 18.1021 1.99658C16.4582 1.89079 15.5264 1.70361 15.3066 1.43506C15.2008 1.31299 15.1479 1.17057 15.1479 1.00781C15.1479 0.845052 15.2131 0.698568 15.3433 0.568359C15.4816 0.438151 15.6322 0.373047 15.7949 0.373047Z" fill="white"/>
</svg>
