<svg width="41" height="40" viewBox="0 0 41 40" fill="none" xmlns="http://www.w3.org/2000/svg">
<path d="M30.875 3.01758C31.9373 3.01758 32.7981 3.87835 32.7981 4.94066C32.7981 6.00296 31.9373 6.86373 30.875 6.86373C29.8127 6.86373 28.952 6.00296 28.952 4.94066C28.952 3.87835 29.8127 3.01758 30.875 3.01758ZM35.875 24.1714C36.512 24.1714 37.0289 24.6883 37.0289 25.3253C37.0289 25.9622 36.512 26.4791 35.875 26.4791C35.2373 26.4791 34.7212 25.9622 34.7212 25.3253C34.7212 24.6883 35.2373 24.1714 35.875 24.1714ZM6.25965 27.2483C7.10888 27.2483 7.79811 27.9367 7.79811 28.7868C7.79811 29.6367 7.10888 30.3253 6.25965 30.3253C5.40965 30.3253 4.72119 29.6367 4.72119 28.7868C4.72119 27.9368 5.40965 27.2483 6.25965 27.2483Z" fill="#878787"/>
<path d="M9.09595 8.54615L16.8128 12.3892C16.0051 12.8023 15.249 13.3469 14.572 14.0223C13.8967 14.6992 13.3521 15.4554 12.939 16.2638L9.09595 8.54615ZM4.21826 20.3254L12.3921 17.5868C12.1136 18.4499 11.9629 19.3699 11.9629 20.3254C11.9629 21.2808 12.1136 22.2008 12.3921 23.0638L4.21826 20.3254ZM16.8128 28.2615L9.09595 32.1031L12.939 24.3868C13.3521 25.1937 13.8967 25.9514 14.572 26.6268C15.249 27.3023 16.0051 27.847 16.8128 28.2615ZM23.6136 28.8085L20.8752 36.9823L18.1366 28.8085C18.9998 29.087 19.9198 29.2378 20.8752 29.2378C21.8306 29.2378 22.7506 29.087 23.6136 28.8085ZM28.8106 24.3868L32.6529 32.1032L24.9367 28.2615C25.7436 27.8469 26.5013 27.3022 27.1767 26.6269C27.8521 25.9515 28.3967 25.1938 28.8106 24.3868ZM37.5321 20.3254L29.3583 23.0638C29.6366 22.2008 29.7875 21.2808 29.7875 20.3254C29.7875 19.37 29.6366 18.45 29.3583 17.5868L37.5321 20.3254ZM32.6529 8.54615L28.8106 16.2638C28.3967 15.4554 27.8521 14.6992 27.1767 14.0223C26.5013 13.3469 25.7436 12.8023 24.9367 12.3892L32.6529 8.54615ZM20.8752 3.66846L23.6136 11.8423C22.7506 11.5638 21.8306 11.4131 20.8752 11.4131C19.9198 11.4131 18.9998 11.5638 18.1366 11.8423L20.8752 3.66846Z" fill="#E64A19"/>
<path d="M20.875 13.1677C16.9327 13.1677 13.7173 16.3831 13.7173 20.3254C13.7173 24.2677 16.9327 27.483 20.875 27.483C24.8173 27.483 28.0327 24.2677 28.0327 20.3254C28.0327 16.3831 24.8173 13.1677 20.875 13.1677Z" fill="#FF794F"/>
<path d="M36.8367 8.7869C37.1553 8.7869 37.4136 8.52861 37.4136 8.20998C37.4136 7.89135 37.1553 7.63306 36.8367 7.63306C36.5181 7.63306 36.2598 7.89135 36.2598 8.20998C36.2598 8.52861 36.5181 8.7869 36.8367 8.7869Z" fill="#424242"/>
<path d="M35.6829 31.0947C36.0013 31.0947 36.2598 31.3532 36.2598 31.6716C36.2598 31.99 36.0013 32.2486 35.6829 32.2486C35.3644 32.2486 35.106 31.99 35.106 31.6716C35.106 31.3533 35.3644 31.0947 35.6829 31.0947Z" fill="#424242"/>
<path d="M26.2596 21.864C26.472 21.864 26.6442 21.6918 26.6442 21.4793C26.6442 21.2669 26.472 21.0947 26.2596 21.0947C26.0472 21.0947 25.875 21.2669 25.875 21.4793C25.875 21.6918 26.0472 21.864 26.2596 21.864Z" fill="#424242"/>
<path d="M26.0672 32.6331C26.3856 32.6331 26.6441 32.8915 26.6441 33.21C26.6441 33.5284 26.3856 33.7869 26.0672 33.7869C25.7487 33.7869 25.4902 33.5284 25.4902 33.21C25.4902 32.8916 25.7487 32.6331 26.0672 32.6331Z" fill="#424242"/>
<path d="M24.1443 6.09452C24.4629 6.09452 24.7212 5.83622 24.7212 5.5176C24.7212 5.19897 24.4629 4.94067 24.1443 4.94067C23.8257 4.94067 23.5674 5.19897 23.5674 5.5176C23.5674 5.83622 23.8257 6.09452 24.1443 6.09452Z" fill="#424242"/>
<path d="M13.3748 5.32548C13.6934 5.32548 13.9517 5.06718 13.9517 4.74855C13.9517 4.42993 13.6934 4.17163 13.3748 4.17163C13.0561 4.17163 12.7979 4.42993 12.7979 4.74855C12.7979 5.06718 13.0561 5.32548 13.3748 5.32548Z" fill="#424242"/>
<path d="M13.3748 33.4023C13.6932 33.4023 13.9517 33.6608 13.9517 33.9793C13.9517 34.2977 13.6932 34.5562 13.3748 34.5562C13.0563 34.5562 12.7979 34.2977 12.7979 33.9793C12.7979 33.6609 13.0563 33.4023 13.3748 33.4023Z" fill="#424242"/>
<path d="M5.29811 14.1714C5.61674 14.1714 5.87504 13.9131 5.87504 13.5945C5.87504 13.2759 5.61674 13.0176 5.29811 13.0176C4.97949 13.0176 4.72119 13.2759 4.72119 13.5945C4.72119 13.9131 4.97949 14.1714 5.29811 14.1714Z" fill="#424242"/>
<path d="M20.8748 27.8675C16.716 27.8675 13.3325 24.4841 13.3325 20.3253C13.3325 16.1664 16.7159 12.783 20.8748 12.783C25.0336 12.783 28.4171 16.1664 28.4171 20.3253C28.4171 24.4841 25.0336 27.8675 20.8748 27.8675ZM20.8748 13.5522C17.1401 13.5522 14.1018 16.5906 14.1018 20.3253C14.1018 24.06 17.1401 27.0983 20.8748 27.0983C24.6095 27.0983 27.6479 24.06 27.6479 20.3253C27.6479 16.5906 24.6095 13.5522 20.8748 13.5522Z" fill="#424242"/>
<path d="M26.1096 20.71C25.8973 20.71 25.725 20.5378 25.725 20.3254C25.725 17.6511 23.5493 15.4754 20.875 15.4754C20.6626 15.4754 20.4904 15.3031 20.4904 15.0907C20.4904 14.8784 20.6626 14.7061 20.875 14.7061C23.9735 14.7061 26.4943 17.2269 26.4943 20.3254C26.4943 20.5378 26.3221 20.71 26.1096 20.71ZM23.6135 12.2269C23.574 12.2269 23.5342 12.2208 23.4954 12.2083C22.6509 11.9358 21.7693 11.7977 20.8751 11.7977C19.9809 11.7977 19.0993 11.9358 18.2547 12.2083C18.1166 12.2528 17.9652 12.2158 17.8632 12.1127C17.7611 12.0095 17.7259 11.8577 17.7719 11.7201L20.5104 3.54621C20.563 3.38944 20.7098 3.28375 20.8751 3.28375C21.0404 3.28375 21.1873 3.38944 21.2398 3.54621L23.9783 11.7201C24.0244 11.8577 23.9891 12.0095 23.887 12.1127C23.8136 12.187 23.7146 12.2269 23.6135 12.2269ZM20.875 4.87913L18.7315 11.2773C19.4313 11.112 20.1494 11.0284 20.875 11.0284C21.6007 11.0284 22.3189 11.112 23.0186 11.2773L20.875 4.87913ZM28.8104 16.6484C28.6661 16.6484 28.5338 16.5677 28.468 16.4391C28.065 15.6517 27.5389 14.9299 26.9043 14.2939C26.2718 13.6614 25.5507 13.1357 24.7613 12.7315C24.6321 12.6654 24.5513 12.5321 24.552 12.387C24.5528 12.2418 24.6352 12.1096 24.7651 12.0448L32.4813 8.20175C32.6293 8.12806 32.8077 8.15713 32.9247 8.27406C33.0417 8.39098 33.0707 8.56944 32.997 8.71744L29.1547 16.4351C29.09 16.5651 28.9577 16.6475 28.8126 16.6483C28.8119 16.6484 28.8111 16.6484 28.8104 16.6484ZM25.7568 12.4104C26.3683 12.7881 26.9351 13.237 27.4485 13.7503C27.963 14.2658 28.4119 14.8332 28.7892 15.4436L31.797 9.40198L25.7568 12.4104ZM29.3581 23.4484C29.2584 23.4484 29.1609 23.4097 29.0877 23.3374C28.9844 23.2353 28.9475 23.0838 28.992 22.9457C29.2645 22.1011 29.4027 21.2195 29.4027 20.3254C29.4027 19.4313 29.2645 18.5498 28.992 17.7051C28.9475 17.567 28.9844 17.4155 29.0877 17.3135C29.1908 17.2114 29.3425 17.1761 29.4803 17.2223L37.6541 19.9608C37.8109 20.0134 37.9166 20.1602 37.9166 20.3255C37.9166 20.4907 37.8109 20.6377 37.6541 20.6901L29.4803 23.4286C29.4403 23.4418 29.3991 23.4484 29.3581 23.4484ZM29.923 18.1818C30.0883 18.8816 30.172 19.5998 30.172 20.3254C30.172 21.051 30.0884 21.7692 29.923 22.4689L36.3213 20.3254L29.923 18.1818ZM32.6526 32.4877C32.5944 32.4877 32.5357 32.4746 32.4813 32.4474L24.765 28.6058C24.6352 28.5413 24.5528 28.409 24.5519 28.2641C24.551 28.1191 24.6317 27.9858 24.7607 27.9195C25.5514 27.5133 26.2727 26.9868 26.9045 26.3551C27.537 25.7226 28.063 25.0014 28.4681 24.2115C28.534 24.083 28.6661 24.0023 28.8103 24.0023C28.8111 24.0023 28.8119 24.0023 28.8126 24.0023C28.9577 24.0032 29.0899 24.0857 29.1546 24.2155L32.9824 31.9027C33.0182 31.961 33.0387 32.0297 33.0387 32.1031C33.0387 32.315 32.8673 32.4869 32.6557 32.4877C32.6547 32.4877 32.6537 32.4877 32.6526 32.4877ZM25.7561 28.2399L31.797 31.2474L28.789 25.2068C28.4107 25.8187 27.9617 26.3857 27.4484 26.8989C26.9356 27.4118 26.3684 27.8611 25.7561 28.2399ZM20.875 37.3669C20.7097 37.3669 20.5628 37.2613 20.5103 37.1044L17.7718 28.9307C17.7257 28.7931 17.761 28.6412 17.8631 28.5381C17.9651 28.4349 18.1166 28.3981 18.2547 28.4425C19.0992 28.7151 19.9808 28.8532 20.875 28.8532C21.7693 28.8532 22.6509 28.7151 23.4953 28.4425C23.6335 28.3982 23.785 28.4349 23.887 28.5381C23.989 28.6413 24.0243 28.7931 23.9782 28.9307L21.2397 37.1044C21.1872 37.2612 21.0403 37.3669 20.875 37.3669ZM18.7315 29.3734L20.875 35.7716L23.0186 29.3734C21.6191 29.7041 20.131 29.7041 18.7315 29.3734ZM9.09588 32.4877C8.99604 32.4877 8.89765 32.4489 8.8238 32.375C8.70688 32.2581 8.67788 32.0796 8.75157 31.9316L12.5947 24.2154C12.6593 24.0854 12.7917 24.003 12.9367 24.0022C12.9375 24.0022 12.9383 24.0022 12.9389 24.0022C13.0832 24.0022 13.2154 24.0831 13.2812 24.2117C13.6853 25.0009 14.211 25.7221 14.8439 26.355C15.4789 26.9885 16.2005 27.5149 16.9883 27.9194C17.1173 27.9856 17.1982 28.1188 17.1973 28.2639C17.1963 28.4089 17.114 28.5411 16.9841 28.6057L9.26719 32.4472C9.21273 32.4746 9.15404 32.4877 9.09588 32.4877ZM12.96 25.2071L9.95165 31.2473L15.993 28.2398C15.3824 27.862 14.8152 27.4129 14.3003 26.8991C13.7866 26.3855 13.3377 25.8185 12.96 25.2071ZM12.392 23.4484C12.351 23.4484 12.3099 23.4418 12.2698 23.4284L4.09588 20.69C3.93911 20.6375 3.8335 20.4906 3.8335 20.3254C3.8335 20.1601 3.93911 20.0131 4.09588 19.9607L12.2698 17.2221C12.4073 17.1761 12.5592 17.2113 12.6624 17.3134C12.7656 17.4154 12.8026 17.5668 12.758 17.7049C12.4856 18.5494 12.3473 19.4311 12.3473 20.3253C12.3473 21.2083 12.4821 22.079 12.7478 22.9137C12.7673 22.9597 12.7782 23.0105 12.7782 23.0637C12.7782 23.2756 12.6067 23.4474 12.3951 23.4483C12.394 23.4484 12.3929 23.4484 12.392 23.4484ZM5.4288 20.3254L11.827 22.4688C11.6617 21.7691 11.5781 21.051 11.5781 20.3254C11.5781 19.5998 11.6617 18.8815 11.827 18.1818L5.4288 20.3254ZM12.9389 16.6484C12.9382 16.6484 12.9375 16.6484 12.9369 16.6484C12.7917 16.6477 12.6593 16.5652 12.5947 16.4353L8.75157 8.71752C8.67788 8.56952 8.70696 8.39098 8.8238 8.27413C8.94073 8.15721 9.11927 8.12806 9.26727 8.20183L16.9842 12.0449C17.114 12.1096 17.1966 12.242 17.1973 12.3871C17.1982 12.5323 17.1171 12.6655 16.9879 12.7317C16.2013 13.1339 15.4799 13.6597 14.8436 14.2946C14.2092 14.9305 13.6833 15.6521 13.2813 16.4388C13.2157 16.5675 13.0833 16.6484 12.9389 16.6484ZM9.95165 9.40206L12.9599 15.4433C13.3365 14.8334 13.7852 14.2662 14.2997 13.7507C14.8155 13.2361 15.3826 12.7872 15.9923 12.4104L9.95165 9.40206ZM6.25965 30.71C5.19927 30.71 4.33657 29.8473 4.33657 28.7869C4.33657 27.7264 5.19927 26.8638 6.25965 26.8638C7.32003 26.8638 8.18273 27.7264 8.18273 28.7869C8.18273 29.8474 7.32003 30.71 6.25965 30.71ZM6.25965 27.6331C5.62342 27.6331 5.1058 28.1507 5.1058 28.7869C5.1058 29.4231 5.62342 29.9408 6.25965 29.9408C6.89588 29.9408 7.4135 29.4231 7.4135 28.7869C7.4135 28.1507 6.89588 27.6331 6.25965 27.6331ZM35.875 26.8638C35.0267 26.8638 34.3366 26.1736 34.3366 25.3254C34.3366 24.4771 35.0267 23.7869 35.875 23.7869C36.7233 23.7869 37.4135 24.4771 37.4135 25.3254C37.4135 26.1737 36.7233 26.8638 35.875 26.8638ZM35.875 24.5561C35.4508 24.5561 35.1058 24.9011 35.1058 25.3254C35.1058 25.7495 35.4508 26.0946 35.875 26.0946C36.2992 26.0946 36.6443 25.7495 36.6443 25.3254C36.6443 24.9012 36.2992 24.5561 35.875 24.5561ZM30.875 7.24844C29.6026 7.24844 28.5673 6.21321 28.5673 4.94075C28.5673 3.66829 29.6026 2.63306 30.875 2.63306C32.1475 2.63306 33.1827 3.66829 33.1827 4.94075C33.1827 6.21321 32.1475 7.24844 30.875 7.24844ZM30.875 3.40229C30.0267 3.40229 29.3366 4.09244 29.3366 4.94075C29.3366 5.78906 30.0267 6.47921 30.875 6.47921C31.7233 6.47921 32.4135 5.78906 32.4135 4.94075C32.4135 4.09244 31.7233 3.40229 30.875 3.40229Z" fill="#424242"/>
</svg>
