<svg width="41" height="40" viewBox="0 0 41 40" fill="none" xmlns="http://www.w3.org/2000/svg">
<path d="M20.3349 38.8399C30.3202 38.8399 38.4149 30.7452 38.4149 20.7599C38.4149 10.7746 30.3202 2.67993 20.3349 2.67993C10.3496 2.67993 2.25488 10.7746 2.25488 20.7599C2.25488 30.7452 10.3496 38.8399 20.3349 38.8399Z" fill="#D6D6D6"/>
<path d="M25.9351 18.9201C25.9351 18.8801 25.9351 18.8801 25.9351 18.9201C25.9351 17.8401 25.0951 17.0401 24.0951 17.0401C23.8151 17.0401 23.5351 17.1201 23.2951 17.2401C23.0151 16.6001 22.3351 16.1201 21.6151 16.1201C20.8151 16.1201 20.1351 16.6401 19.8951 17.3201C19.6951 17.2401 19.4951 17.2001 19.2951 17.2001C18.3751 17.2001 17.6151 17.9601 17.6151 18.8801C17.6151 18.9201 17.6151 19.0001 17.6151 19.0401C17.2151 19.3601 16.9351 19.8401 16.9351 20.4001C16.9351 21.3201 17.6951 22.0801 18.6151 22.0801H25.1751C26.0951 22.0801 26.8551 21.3201 26.8551 20.4001C26.8151 19.7601 26.4551 19.2001 25.9351 18.9201Z" fill="#FEF6F3"/>
<path d="M18.5748 22.2799C18.0548 22.2799 17.6148 22.0799 17.2548 21.7199C16.8948 21.3599 16.6948 20.8799 16.6948 20.3999C16.6948 19.8399 16.9348 19.3199 17.3748 18.9599C17.3748 18.9199 17.3748 18.9199 17.3748 18.8799C17.3748 18.3599 17.5748 17.9199 17.9348 17.5599C18.4148 17.0799 19.1348 16.8799 19.7748 17.0799C20.1348 16.3599 20.8548 15.9199 21.6148 15.9199C22.3748 15.9199 23.0548 16.3199 23.4148 16.9599C23.6548 16.8799 23.8948 16.8399 24.1348 16.8399C24.6948 16.8399 25.2148 17.0399 25.5748 17.4399C25.9348 17.7999 26.1748 18.2799 26.1748 18.7999C26.7348 19.1599 27.0548 19.7599 27.0548 20.3999C27.0548 20.9199 26.8548 21.3599 26.4948 21.7199C26.1348 22.0799 25.6548 22.2799 25.1748 22.2799H18.5748ZM19.2148 17.3999C18.8148 17.3999 18.4548 17.5599 18.1748 17.8399C17.8948 18.1199 17.7348 18.4799 17.7348 18.8799C17.7348 18.9199 17.7348 18.9599 17.7348 19.0399C17.7348 19.1199 17.6948 19.1599 17.6548 19.2399C17.2548 19.5199 17.0548 19.9599 17.0548 20.4399C17.0548 20.8399 17.2148 21.1999 17.4948 21.4799C17.7748 21.7599 18.1348 21.9199 18.5348 21.9199H25.0948C25.4948 21.9199 25.8548 21.7599 26.1348 21.4799C26.4148 21.1999 26.5748 20.8399 26.5748 20.4399C26.5748 19.8799 26.2948 19.3999 25.7748 19.1199C25.6948 19.0799 25.6548 18.9999 25.6548 18.9599V18.9199C25.6548 18.4799 25.4948 18.0399 25.1748 17.7599C24.8548 17.4799 24.5348 17.1999 24.0948 17.1999C23.8548 17.1999 23.6148 17.2399 23.3748 17.3599C23.3348 17.3999 23.2548 17.3999 23.2148 17.3599C23.1748 17.3599 23.1348 17.3199 23.0948 17.2399C22.8148 16.6399 22.2148 16.2399 21.5748 16.2399C20.8948 16.2399 20.2548 16.6799 20.0148 17.3199C20.0148 17.3599 19.9748 17.3999 19.8948 17.4399C19.8548 17.4799 19.7748 17.4799 19.7348 17.4399C19.5748 17.4399 19.4148 17.3999 19.2148 17.3999Z" fill="#C4C4C4"/>
<path d="M25.9351 18.9201C25.9351 18.8801 25.9351 18.8801 25.9351 18.9201C25.9351 17.8401 25.0951 17.0401 24.0951 17.0401C23.8151 17.0401 23.5351 17.1201 23.2951 17.2401C23.0151 16.6001 22.3351 16.1201 21.6151 16.1201C20.8151 16.1201 20.1351 16.6401 19.8951 17.3201C19.6951 17.2401 19.4951 17.2001 19.2951 17.2001C18.3751 17.2001 17.6151 17.9601 17.6151 18.8801C17.6151 18.9201 17.6151 19.0001 17.6151 19.0401C17.2151 19.3601 16.9351 19.8401 16.9351 20.4001C16.9351 21.3201 17.6951 22.0801 18.6151 22.0801H25.1751C26.0951 22.0801 26.8551 21.3201 26.8551 20.4001C26.8151 19.7601 26.4551 19.2001 25.9351 18.9201Z" fill="#FEF6F3"/>
<path d="M18.5748 22.2799C18.0548 22.2799 17.6148 22.0799 17.2548 21.7199C16.8948 21.3599 16.6948 20.8799 16.6948 20.3999C16.6948 19.8399 16.9348 19.3199 17.3748 18.9599C17.3748 18.9199 17.3748 18.9199 17.3748 18.8799C17.3748 18.3599 17.5748 17.9199 17.9348 17.5599C18.4148 17.0799 19.1348 16.8799 19.7748 17.0799C20.1348 16.3599 20.8548 15.9199 21.6148 15.9199C22.3748 15.9199 23.0548 16.3199 23.4148 16.9599C23.6548 16.8799 23.8948 16.8399 24.1348 16.8399C24.6948 16.8399 25.2148 17.0399 25.5748 17.4399C25.9348 17.7999 26.1748 18.2799 26.1748 18.7999C26.7348 19.1599 27.0548 19.7599 27.0548 20.3999C27.0548 20.9199 26.8548 21.3599 26.4948 21.7199C26.1348 22.0799 25.6548 22.2799 25.1748 22.2799H18.5748ZM19.2148 17.3999C18.8148 17.3999 18.4548 17.5599 18.1748 17.8399C17.8948 18.1199 17.7348 18.4799 17.7348 18.8799C17.7348 18.9199 17.7348 18.9599 17.7348 19.0399C17.7348 19.1199 17.6948 19.1599 17.6548 19.2399C17.2548 19.5199 17.0548 19.9599 17.0548 20.4399C17.0548 20.8399 17.2148 21.1999 17.4948 21.4799C17.7748 21.7599 18.1348 21.9199 18.5348 21.9199H25.0948C25.4948 21.9199 25.8548 21.7599 26.1348 21.4799C26.4148 21.1999 26.5748 20.8399 26.5748 20.4399C26.5748 19.8799 26.2948 19.3999 25.7748 19.1199C25.6948 19.0799 25.6548 18.9999 25.6548 18.9599V18.9199C25.6548 18.4799 25.4948 18.0399 25.1748 17.7599C24.8548 17.4799 24.5348 17.1999 24.0948 17.1999C23.8548 17.1999 23.6148 17.2399 23.3748 17.3599C23.3348 17.3999 23.2548 17.3999 23.2148 17.3599C23.1748 17.3599 23.1348 17.3199 23.0948 17.2399C22.8148 16.6399 22.2148 16.2399 21.5748 16.2399C20.8948 16.2399 20.2548 16.6799 20.0148 17.3199C20.0148 17.3599 19.9748 17.3999 19.8948 17.4399C19.8548 17.4799 19.7748 17.4799 19.7348 17.4399C19.5748 17.4399 19.4148 17.3999 19.2148 17.3999Z" fill="#C4C4C4"/>
<path d="M25.9351 18.9201C25.9351 18.8801 25.9351 18.8801 25.9351 18.9201C25.9351 17.8401 25.0951 17.0401 24.0951 17.0401C23.8151 17.0401 23.5351 17.1201 23.2951 17.2401C23.0151 16.6001 22.3351 16.1201 21.6151 16.1201C20.8151 16.1201 20.1351 16.6401 19.8951 17.3201C19.6951 17.2401 19.4951 17.2001 19.2951 17.2001C18.3751 17.2001 17.6151 17.9601 17.6151 18.8801C17.6151 18.9201 17.6151 19.0001 17.6151 19.0401C17.2151 19.3601 16.9351 19.8401 16.9351 20.4001C16.9351 21.3201 17.6951 22.0801 18.6151 22.0801H25.1751C26.0951 22.0801 26.8551 21.3201 26.8551 20.4001C26.8151 19.7601 26.4551 19.2001 25.9351 18.9201Z" fill="#FEF6F3"/>
<path d="M18.5748 22.2799C18.0548 22.2799 17.6148 22.0799 17.2548 21.7199C16.8948 21.3599 16.6948 20.8799 16.6948 20.3999C16.6948 19.8399 16.9348 19.3199 17.3748 18.9599C17.3748 18.9199 17.3748 18.9199 17.3748 18.8799C17.3748 18.3599 17.5748 17.9199 17.9348 17.5599C18.4148 17.0799 19.1348 16.8799 19.7748 17.0799C20.1348 16.3599 20.8548 15.9199 21.6148 15.9199C22.3748 15.9199 23.0548 16.3199 23.4148 16.9599C23.6548 16.8799 23.8948 16.8399 24.1348 16.8399C24.6948 16.8399 25.2148 17.0399 25.5748 17.4399C25.9348 17.7999 26.1748 18.2799 26.1748 18.7999C26.7348 19.1599 27.0548 19.7599 27.0548 20.3999C27.0548 20.9199 26.8548 21.3599 26.4948 21.7199C26.1348 22.0799 25.6548 22.2799 25.1748 22.2799H18.5748ZM19.2148 17.3999C18.8148 17.3999 18.4548 17.5599 18.1748 17.8399C17.8948 18.1199 17.7348 18.4799 17.7348 18.8799C17.7348 18.9199 17.7348 18.9599 17.7348 19.0399C17.7348 19.1199 17.6948 19.1599 17.6548 19.2399C17.2548 19.5199 17.0548 19.9599 17.0548 20.4399C17.0548 20.8399 17.2148 21.1999 17.4948 21.4799C17.7748 21.7599 18.1348 21.9199 18.5348 21.9199H25.0948C25.4948 21.9199 25.8548 21.7599 26.1348 21.4799C26.4148 21.1999 26.5748 20.8399 26.5748 20.4399C26.5748 19.8799 26.2948 19.3999 25.7748 19.1199C25.6948 19.0799 25.6548 18.9999 25.6548 18.9599V18.9199C25.6548 18.4799 25.4948 18.0399 25.1748 17.7599C24.8548 17.4799 24.5348 17.1999 24.0948 17.1999C23.8548 17.1999 23.6148 17.2399 23.3748 17.3599C23.3348 17.3999 23.2548 17.3999 23.2148 17.3599C23.1748 17.3599 23.1348 17.3199 23.0948 17.2399C22.8148 16.6399 22.2148 16.2399 21.5748 16.2399C20.8948 16.2399 20.2548 16.6799 20.0148 17.3199C20.0148 17.3599 19.9748 17.3999 19.8948 17.4399C19.8548 17.4799 19.7748 17.4799 19.7348 17.4399C19.5748 17.4399 19.4148 17.3999 19.2148 17.3999Z" fill="#C4C4C4"/>
<path d="M18.5748 22.2799C18.0548 22.2799 17.6148 22.0799 17.2548 21.7199C16.8948 21.3599 16.6948 20.8799 16.6948 20.3999C16.6948 19.8399 16.9348 19.3199 17.3748 18.9599C17.3748 18.9199 17.3748 18.9199 17.3748 18.8799C17.3748 18.3599 17.5748 17.9199 17.9348 17.5599C18.4148 17.0799 19.1348 16.8799 19.7748 17.0799C20.1348 16.3599 20.8548 15.9199 21.6148 15.9199C22.3748 15.9199 23.0548 16.3199 23.4148 16.9599C23.6548 16.8799 23.8948 16.8399 24.1348 16.8399C24.6948 16.8399 25.2148 17.0399 25.5748 17.4399C25.9348 17.7999 26.1748 18.2799 26.1748 18.7999C26.7348 19.1599 27.0548 19.7599 27.0548 20.3999C27.0548 20.9199 26.8548 21.3599 26.4948 21.7199C26.1348 22.0799 25.6548 22.2799 25.1748 22.2799H18.5748ZM19.2148 17.3999C18.8148 17.3999 18.4548 17.5599 18.1748 17.8399C17.8948 18.1199 17.7348 18.4799 17.7348 18.8799C17.7348 18.9199 17.7348 18.9599 17.7348 19.0399C17.7348 19.1199 17.6948 19.1599 17.6548 19.2399C17.2548 19.5199 17.0548 19.9599 17.0548 20.4399C17.0548 20.8399 17.2148 21.1999 17.4948 21.4799C17.7748 21.7599 18.1348 21.9199 18.5348 21.9199H25.0948C25.4948 21.9199 25.8548 21.7599 26.1348 21.4799C26.4148 21.1999 26.5748 20.8399 26.5748 20.4399C26.5748 19.8799 26.2948 19.3999 25.7748 19.1199C25.6948 19.0799 25.6548 18.9999 25.6548 18.9599V18.9199C25.6548 18.4799 25.4948 18.0399 25.1748 17.7599C24.8548 17.4799 24.5348 17.1999 24.0948 17.1999C23.8548 17.1999 23.6148 17.2399 23.3748 17.3599C23.3348 17.3999 23.2548 17.3999 23.2148 17.3599C23.1748 17.3599 23.1348 17.3199 23.0948 17.2399C22.8148 16.6399 22.2148 16.2399 21.5748 16.2399C20.8948 16.2399 20.2548 16.6799 20.0148 17.3199C20.0148 17.3599 19.9748 17.3999 19.8948 17.4399C19.8548 17.4799 19.7748 17.4799 19.7348 17.4399C19.5748 17.4399 19.4148 17.3999 19.2148 17.3999Z" fill="#C4C4C4"/>
<path d="M34.4551 21.5999L35.2551 22.1599C35.3351 22.1999 35.4151 22.2399 35.5351 22.1999L36.4551 21.8399C36.6551 21.7599 36.8951 21.9599 36.8151 22.1599L36.5351 23.1199C36.4951 23.1999 36.5351 23.3199 36.5751 23.3599L37.2151 24.1199C37.3751 24.3199 37.2551 24.5599 37.0151 24.5999L36.0151 24.6399C35.9351 24.6399 35.8551 24.6799 35.7751 24.7599L35.2551 25.5999C35.1351 25.7999 34.8151 25.7599 34.7351 25.5599L34.4151 24.6399C34.3751 24.5599 34.2951 24.4799 34.2151 24.4799L33.2551 24.2399C33.0151 24.1999 32.9751 23.8799 33.1351 23.7599L33.8951 23.1599C33.9751 23.1199 34.0151 22.9999 34.0151 22.9199L33.9751 21.9199C33.9751 21.6399 34.2551 21.4799 34.4551 21.5999Z" fill="#FDD0C2"/>
<path d="M36.4151 21.84L35.4951 22.2C35.4151 22.24 35.2951 22.24 35.2151 22.16L34.4151 21.6C34.2551 21.48 34.0551 21.56 34.0151 21.72L34.5751 22.24C35.3751 23 35.3751 24.28 34.6151 25.08L34.7751 25.52C34.8551 25.72 35.1351 25.76 35.2951 25.56L35.8151 24.72C35.8551 24.64 35.9351 24.6 36.0551 24.6L37.0551 24.56C37.2951 24.56 37.4151 24.28 37.2551 24.08L36.6151 23.32C36.5751 23.24 36.5351 23.16 36.5751 23.08L36.8551 22.12C36.8551 21.96 36.6551 21.72 36.4151 21.84Z" fill="#FFB7A1"/>
<path d="M35.0152 25.9199H34.9752C34.7752 25.9199 34.6552 25.7599 34.5752 25.5999L34.2552 24.6799C34.2552 24.6399 34.2152 24.6399 34.2152 24.6399L33.2552 24.3999C33.0952 24.3599 32.9352 24.1999 32.8952 24.0399C32.8552 23.8399 32.9352 23.6799 33.0552 23.5599L33.8152 22.9599C33.8552 22.9599 33.8552 22.9199 33.8552 22.8799L33.8152 21.8799C33.8152 21.6799 33.8952 21.5199 34.0552 21.4399C34.2152 21.3599 34.4152 21.3599 34.5752 21.4399L35.3752 21.9999C35.4152 21.9999 35.4152 21.9999 35.4552 21.9999L36.3752 21.6399C36.5352 21.5599 36.7352 21.5999 36.8952 21.7199C37.0152 21.8399 37.0952 22.0399 37.0152 22.1999L36.7352 23.1599C36.7352 23.1999 36.7352 23.1999 36.7352 23.2399L37.3752 23.9999C37.4952 24.1599 37.5352 24.3199 37.4552 24.5199C37.3752 24.6799 37.2152 24.7999 37.0152 24.7999L36.0152 24.8399C35.9752 24.8399 35.9752 24.8399 35.9352 24.8799L35.4152 25.7199C35.3352 25.8399 35.1752 25.9199 35.0152 25.9199ZM34.2952 21.7599H34.2552C34.2552 21.7599 34.2152 21.7999 34.2152 21.8399L34.2552 22.8399C34.2552 22.9999 34.2152 23.1599 34.0552 23.2399L33.2952 23.8399C33.2552 23.8799 33.2552 23.9199 33.2552 23.9199C33.2552 23.9199 33.2552 23.9599 33.2952 23.9999L34.2552 24.2399C34.4152 24.2799 34.5352 24.3999 34.5752 24.5599L34.8952 25.4799C34.8952 25.5199 34.9352 25.5199 34.9752 25.5199C34.9752 25.5199 35.0152 25.5199 35.0552 25.4799L35.5752 24.6399C35.6552 24.5199 35.8152 24.4399 35.9752 24.3999L36.9752 24.3599C37.0152 24.3599 37.0552 24.3199 37.0552 24.3199C37.0552 24.3199 37.0552 24.2799 37.0552 24.2399L36.4152 23.4799C36.2952 23.3599 36.2952 23.1999 36.3352 23.0399L36.6152 22.0799C36.6152 22.0399 36.6152 21.9999 36.5752 21.9999C36.5752 21.9999 36.5352 21.9599 36.4952 21.9999L35.5752 22.3599C35.4152 22.3999 35.2552 22.3999 35.1352 22.3199L34.3352 21.7599C34.2952 21.7599 34.2952 21.7599 34.2952 21.7599Z" fill="#505050"/>
<path d="M21.135 1.47992L21.375 2.43992C21.415 2.51992 21.455 2.59992 21.535 2.63992L22.455 2.99992C22.655 3.07992 22.695 3.35992 22.495 3.51992L21.695 3.99992C21.615 4.03992 21.575 4.11992 21.575 4.23992L21.535 5.19992C21.535 5.43992 21.255 5.55992 21.055 5.39992L20.295 4.75992C20.215 4.71992 20.135 4.67992 20.055 4.71992L19.095 4.99992C18.855 5.07992 18.655 4.83992 18.775 4.63992L19.135 3.71992C19.175 3.59992 19.175 3.51992 19.135 3.43992L18.575 2.59992C18.455 2.39992 18.615 2.15992 18.815 2.15992L19.815 2.23992C19.895 2.23992 20.015 2.19992 20.055 2.11992L20.655 1.35992C20.815 1.19992 21.095 1.23992 21.135 1.47992Z" fill="#FDD0C2"/>
<path d="M22.4949 2.96008L21.5749 2.60008C21.4949 2.56008 21.4149 2.48008 21.4149 2.40008L21.1749 1.44008C21.1349 1.24008 20.9349 1.20008 20.7749 1.28008L20.8149 2.04008C20.8949 3.16008 20.0549 4.08008 18.9749 4.16008L18.7749 4.60009C18.6949 4.80009 18.8949 5.04009 19.0949 4.96008L20.0549 4.68008C20.1349 4.64008 20.2549 4.68009 20.2949 4.72009L21.0549 5.36009C21.2149 5.52008 21.4949 5.40008 21.5349 5.16008L21.5749 4.16008C21.5749 4.08008 21.6149 4.00008 21.6949 3.92008L22.5349 3.40008C22.7349 3.36009 22.6949 3.04008 22.4949 2.96008Z" fill="#FFB7A1"/>
<path d="M21.2552 5.68002C21.1352 5.68002 21.0552 5.64002 20.9352 5.56002L20.1752 4.92002C20.1352 4.92002 20.1352 4.88002 20.0952 4.92002L19.1752 5.16002C19.0152 5.20002 18.8152 5.16002 18.6952 5.00002C18.5752 4.88002 18.5352 4.68002 18.6152 4.48002L18.9752 3.56002C18.9752 3.52002 18.9752 3.52002 18.9752 3.48002L18.4152 2.64002C18.2952 2.48002 18.2952 2.28002 18.4152 2.12002C18.4952 1.96002 18.6952 1.88002 18.8552 1.88002L19.8552 1.96002C19.8952 1.96002 19.8952 1.96002 19.9352 1.92002L20.5352 1.16002C20.6552 1.00002 20.8152 0.960023 21.0152 1.00002C21.2152 1.04002 21.3352 1.16002 21.3752 1.36002L21.5752 2.36002C21.5752 2.40002 21.6152 2.40002 21.6152 2.40002L22.5352 2.76002C22.6952 2.84002 22.8152 2.96002 22.8552 3.16002C22.8552 3.36002 22.7752 3.52002 22.6152 3.60002L21.7752 4.12002C21.7352 4.12002 21.7352 4.16002 21.7352 4.20002V5.20002C21.7352 5.40002 21.6152 5.56002 21.4552 5.64002C21.3752 5.64002 21.3352 5.68002 21.2552 5.68002ZM20.1352 4.52002C20.2552 4.52002 20.3752 4.56002 20.4552 4.64002L21.2152 5.28002C21.2552 5.32002 21.2952 5.28002 21.2952 5.28002C21.2952 5.28002 21.3352 5.24002 21.3352 5.20002L21.3752 4.20002C21.3752 4.04002 21.4552 3.88002 21.6152 3.80002L22.4552 3.28002C22.4952 3.24002 22.4952 3.24002 22.4952 3.20002C22.4952 3.20002 22.4952 3.16002 22.4552 3.12002L21.4952 2.80002C21.3352 2.76002 21.2152 2.64002 21.2152 2.48002L20.9752 1.52002C20.9752 1.48002 20.9352 1.48002 20.8952 1.48002C20.8952 1.48002 20.8552 1.48002 20.8152 1.52002L20.2152 2.28002C20.1352 2.40002 19.9752 2.48002 19.8152 2.48002L18.8152 2.40002C18.7752 2.36002 18.7352 2.40002 18.7352 2.40002C18.7352 2.40002 18.6952 2.44002 18.7352 2.48002L19.2952 3.32002C19.3752 3.44002 19.4152 3.60002 19.3352 3.76002L18.9752 4.68002C18.9752 4.72002 18.9752 4.76002 18.9752 4.76002C18.9752 4.76002 19.0152 4.80002 19.0552 4.80002L20.0152 4.52002C20.0552 4.52002 20.0952 4.52002 20.1352 4.52002Z" fill="#505050"/>
<path d="M4.61539 6.79995H4.53539C4.53539 5.27995 3.29539 4.03995 1.77539 4.03995V3.95995C3.29539 3.95995 4.53539 2.71995 4.53539 1.19995H4.61539C4.61539 2.71995 5.85539 3.95995 7.37539 3.95995V4.03995C5.85539 4.03995 4.61539 5.27995 4.61539 6.79995Z" fill="#FDD0C2"/>
<path d="M5.01525 2.63989C5.01525 3.59989 4.21525 4.39989 3.25525 4.39989H3.13525C3.97525 4.87989 4.57525 5.75989 4.57525 6.83989H4.65525C4.65525 5.31989 5.89525 4.07989 7.41525 4.07989V3.95989C6.37525 3.95989 5.49525 3.43989 5.01525 2.63989Z" fill="#FFB7A1"/>
<path d="M4.6152 7H4.53519C4.45519 7 4.3752 6.92 4.3352 6.84V6.8C4.3352 5.4 3.1752 4.24 1.7752 4.24C1.6552 4.24 1.5752 4.16 1.5752 4.04V3.96C1.5752 3.84 1.6552 3.76 1.7752 3.76C3.2152 3.76 4.3752 2.64 4.3752 1.2C4.3752 1.08 4.4552 1 4.5752 1H4.65519C4.7752 1 4.8552 1.08 4.8552 1.2C4.8552 2.6 6.0152 3.76 7.41519 3.76C7.5352 3.76 7.6152 3.84 7.6152 3.96V4.04C7.6152 4.16 7.5352 4.24 7.41519 4.24C6.0152 4.24 4.8552 5.4 4.8552 6.8C4.8152 6.92 4.7352 7 4.6152 7ZM2.7752 4C3.6152 4.28 4.2952 4.96 4.5752 5.8C4.8552 4.96 5.5352 4.28 6.3752 4C5.5352 3.72 4.8552 3.04 4.5752 2.2C4.2952 3.04 3.6152 3.72 2.7752 4Z" fill="#505050"/>
<path d="M34.0553 38.8H33.9753C33.9753 37.28 32.7353 36.04 31.2153 36.04V35.96C32.7353 35.96 33.9753 34.72 33.9753 33.2H34.0553C34.0553 34.72 35.2953 35.96 36.8153 35.96V36.04C35.2953 36.04 34.0553 37.28 34.0553 38.8Z" fill="#FDD0C2"/>
<path d="M34.4552 34.6001C34.4552 35.5601 33.6552 36.3601 32.6952 36.3601H32.5352C33.3752 36.8401 33.9752 37.7201 33.9752 38.8001H34.0552C34.0552 37.2801 35.2952 36.0401 36.8152 36.0401V35.9601C35.8152 35.9601 34.9352 35.4001 34.4552 34.6001Z" fill="#FFB7A1"/>
<path d="M34.0551 39H33.9751C33.8551 39 33.7751 38.92 33.7751 38.8C33.7751 37.4 32.6151 36.24 31.2151 36.24C31.0951 36.24 31.0151 36.16 31.0151 36.04V35.96C31.0151 35.84 31.0951 35.76 31.2151 35.76C32.6151 35.76 33.7751 34.6 33.7751 33.2C33.7751 33.08 33.8551 33 33.9751 33H34.0551C34.1751 33 34.2551 33.08 34.2551 33.2C34.2551 34.6 35.4151 35.76 36.8151 35.76C36.9351 35.76 37.0151 35.84 37.0151 35.96V36.04C37.0151 36.16 36.9351 36.24 36.8151 36.24C35.4151 36.24 34.2551 37.4 34.2551 38.8C34.2551 38.88 34.1751 39 34.0551 39ZM32.2151 36C33.0551 36.28 33.7351 36.96 34.0151 37.8C34.2951 36.96 34.9751 36.28 35.8151 36C34.9751 35.72 34.2951 35.04 34.0151 34.2C33.7351 35.04 33.0551 35.68 32.2151 36Z" fill="#505050"/>
<path d="M35.735 5.12011C36.221 5.12011 36.615 4.72612 36.615 4.24011C36.615 3.7541 36.221 3.36011 35.735 3.36011C35.249 3.36011 34.855 3.7541 34.855 4.24011C34.855 4.72612 35.249 5.12011 35.735 5.12011Z" fill="#FDD0C2"/>
<path d="M35.975 3.36011V3.44011C35.975 4.04011 35.495 4.52011 34.895 4.52011C35.015 4.92011 35.415 5.20011 35.895 5.12011C36.255 5.04011 36.535 4.76011 36.615 4.40011C36.695 3.92011 36.415 3.48011 35.975 3.36011Z" fill="#FFB7A1"/>
<path d="M35.7351 5.48C35.0551 5.48 34.4951 4.92 34.4951 4.24C34.4951 3.56 35.0551 3 35.7351 3C36.4151 3 36.9751 3.56 36.9751 4.24C36.9751 4.92 36.4151 5.48 35.7351 5.48ZM35.7351 3.56C35.3751 3.56 35.0551 3.84 35.0551 4.24C35.0551 4.6 35.3351 4.92 35.7351 4.92C36.1351 4.92 36.4151 4.64 36.4151 4.24C36.4151 3.84 36.0951 3.56 35.7351 3.56Z" fill="#424242"/>
<path d="M3.21496 11.6802C3.70097 11.6802 4.09496 11.2862 4.09496 10.8002C4.09496 10.3142 3.70097 9.92017 3.21496 9.92017C2.72895 9.92017 2.33496 10.3142 2.33496 10.8002C2.33496 11.2862 2.72895 11.6802 3.21496 11.6802Z" fill="#FDD0C2"/>
<path d="M3.455 9.92017V10.0002C3.455 10.6002 2.975 11.0802 2.375 11.0802C2.495 11.4802 2.895 11.7602 3.375 11.6802C3.735 11.6002 4.015 11.3202 4.095 10.9602C4.175 10.4802 3.855 10.0402 3.455 9.92017Z" fill="#FFB7A1"/>
<path d="M3.2151 12.0401C2.5351 12.0401 1.9751 11.4801 1.9751 10.8001C1.9751 10.1201 2.5351 9.56006 3.2151 9.56006C3.8951 9.56006 4.4551 10.1201 4.4551 10.8001C4.4551 11.4801 3.8951 12.0401 3.2151 12.0401ZM3.2151 10.1201C2.8551 10.1201 2.5351 10.4001 2.5351 10.8001C2.5351 11.1601 2.8151 11.4801 3.2151 11.4801C3.6151 11.4801 3.8951 11.2001 3.8951 10.8001C3.8951 10.4001 3.5751 10.1201 3.2151 10.1201Z" fill="#424242"/>
<path d="M37.6549 32.28C38.1409 32.28 38.5349 31.886 38.5349 31.4C38.5349 30.914 38.1409 30.52 37.6549 30.52C37.1689 30.52 36.7749 30.914 36.7749 31.4C36.7749 31.886 37.1689 32.28 37.6549 32.28Z" fill="#FDD0C2"/>
<path d="M37.8949 30.5598V30.6398C37.8949 31.2398 37.4149 31.7198 36.8149 31.7198C36.9349 32.1198 37.3349 32.3998 37.8149 32.3198C38.1749 32.2398 38.4549 31.9598 38.5349 31.5998C38.6149 31.0798 38.2949 30.6798 37.8949 30.5598Z" fill="#FFB7A1"/>
<path d="M37.655 32.6399C36.975 32.6399 36.415 32.0799 36.415 31.3999C36.415 30.7199 36.975 30.1599 37.655 30.1599C38.335 30.1599 38.895 30.7199 38.895 31.3999C38.895 32.0799 38.335 32.6399 37.655 32.6399ZM37.655 30.7599C37.295 30.7599 36.975 31.0399 36.975 31.4399C36.975 31.7999 37.255 32.1199 37.655 32.1199C38.015 32.1199 38.335 31.8399 38.335 31.4399C38.335 31.0399 38.015 30.7599 37.655 30.7599Z" fill="#424242"/>
<path d="M28.3748 24.2801C28.2548 24.4001 28.0948 24.4001 27.9748 24.2801L27.4948 23.8001C27.3748 23.6801 27.3748 23.5201 27.4948 23.4001C27.6148 23.2801 27.7748 23.2801 27.8948 23.4001L28.3748 23.8801C28.4948 24.0001 28.4948 24.1601 28.3748 24.2801ZM29.9348 25.8801C29.8148 26.0001 29.6548 26.0001 29.5348 25.8801L29.0548 25.4001C28.9348 25.2801 28.9348 25.1201 29.0548 25.0001C29.1748 24.8801 29.3348 24.8801 29.4548 25.0001L29.9348 25.4801C30.0548 25.5601 30.0548 25.7601 29.9348 25.8801ZM29.0948 24.2801C28.9748 24.1601 28.9748 24.0001 29.0948 23.8801L29.5748 23.4001C29.6948 23.2801 29.8548 23.2801 29.9748 23.4001C30.0948 23.5201 30.0948 23.6801 29.9748 23.8001L29.4948 24.2801C29.3748 24.4001 29.1748 24.4001 29.0948 24.2801ZM27.4948 25.8801C27.3748 25.7601 27.3748 25.6001 27.4948 25.4801L27.9748 25.0001C28.0948 24.8801 28.2548 24.8801 28.3748 25.0001C28.4948 25.1201 28.4948 25.2801 28.3748 25.4001L27.8948 25.8801C27.8148 25.9601 27.6148 25.9601 27.4948 25.8801Z" fill="#ADADAD"/>
<path d="M28.7346 24.8801C28.8672 24.8801 28.9746 24.7727 28.9746 24.6401C28.9746 24.5076 28.8672 24.4001 28.7346 24.4001C28.6021 24.4001 28.4946 24.5076 28.4946 24.6401C28.4946 24.7727 28.6021 24.8801 28.7346 24.8801Z" fill="#ADADAD"/>
<path d="M18.4148 13.0401C18.2948 13.1601 18.1348 13.1601 18.0148 13.0401L17.5348 12.5601C17.4148 12.4401 17.4148 12.2801 17.5348 12.1601C17.6548 12.0401 17.8148 12.0401 17.9348 12.1601L18.4148 12.6401C18.5348 12.7201 18.5348 12.9201 18.4148 13.0401ZM19.9748 14.6001C19.8548 14.7201 19.6948 14.7201 19.5748 14.6001L19.0948 14.1201C18.9748 14.0001 18.9748 13.8401 19.0948 13.7201C19.2148 13.6001 19.3748 13.6001 19.4948 13.7201L19.9748 14.2001C20.0948 14.3201 20.0948 14.4801 19.9748 14.6001ZM19.0948 13.0401C18.9748 12.9201 18.9748 12.7601 19.0948 12.6401L19.5748 12.1601C19.6948 12.0401 19.8548 12.0401 19.9748 12.1601C20.0948 12.2801 20.0948 12.4401 19.9748 12.5601L19.4948 13.0401C19.4148 13.1601 19.2148 13.1601 19.0948 13.0401ZM17.5348 14.6001C17.4148 14.4801 17.4148 14.3201 17.5348 14.2001L18.0148 13.7201C18.1348 13.6001 18.2948 13.6001 18.4148 13.7201C18.5348 13.8401 18.5348 14.0001 18.4148 14.1201L17.9348 14.6001C17.8148 14.7201 17.6548 14.7201 17.5348 14.6001Z" fill="#E64A19"/>
<path d="M18.7747 13.6402C18.9072 13.6402 19.0147 13.5327 19.0147 13.4002C19.0147 13.2676 18.9072 13.1602 18.7747 13.1602C18.6421 13.1602 18.5347 13.2676 18.5347 13.4002C18.5347 13.5327 18.6421 13.6402 18.7747 13.6402Z" fill="#E64A19"/>
<path d="M34.1347 30.12C29.7347 34.68 22.8947 36.76 16.0547 34.52C9.41474 32.28 4.73474 26.12 4.37474 19.12C4.01474 11.84 7.97474 5.71998 13.6947 2.75998C14.6147 2.27998 15.6147 3.19998 15.2147 4.15998C14.4147 5.95998 13.9347 7.95998 13.7747 10.08C13.7347 10.96 13.7347 11.84 13.8147 12.72C13.9347 14.12 14.2547 15.48 14.6947 16.76C15.3347 18.64 16.3347 20.4 17.5747 21.96C18.5747 23.2 19.6947 24.28 20.9747 25.2C22.8147 26.52 24.8947 27.48 27.2147 28C29.2547 28.44 31.2547 28.52 33.1747 28.28C34.2547 28.12 34.8547 29.36 34.1347 30.12Z" fill="#FFB7A1"/>
<path d="M13.8549 9.59997C14.0149 7.63997 14.4949 5.83997 15.2549 4.15997C15.5349 3.51997 15.1749 2.91997 14.6549 2.71997C14.2149 4.07997 13.9349 5.51997 13.8549 7.03997C13.7749 7.91997 13.7749 8.75997 13.8549 9.59997ZM33.2149 28.28C33.0549 28.28 32.9349 28.32 32.7749 28.32C28.4149 32 22.2549 33.48 16.0549 31.44C9.57491 29.32 5.01491 23.44 4.41491 16.72C4.33491 17.52 4.33491 18.32 4.37491 19.12C4.73491 26.12 9.37491 32.28 16.0549 34.52C22.8949 36.8 29.7349 34.68 34.1349 30.12C34.8549 29.36 34.2549 28.12 33.2149 28.28Z" fill="#FDD0C2"/>
<path d="M33.2148 28.28C31.2948 28.52 29.2948 28.44 27.2548 28C24.9748 27.48 22.8548 26.52 21.0148 25.2C19.7348 24.28 18.5748 23.2 17.6148 21.96C16.3748 20.4 15.3748 18.64 14.7348 16.76C14.2948 15.48 13.9748 14.12 13.8548 12.72C13.7748 11.84 13.7748 10.96 13.8148 10.08C13.9348 7.95998 14.4548 5.95998 15.2548 4.15998C15.6548 3.19998 14.6548 2.27998 13.7348 2.75998C12.6948 3.31998 11.6948 3.95998 10.7748 4.67998C10.8548 4.91998 10.8548 5.15998 10.7348 5.43998C9.93483 7.23998 9.45483 9.23998 9.29483 11.36C9.25483 12.24 9.25483 13.12 9.33483 14C9.45483 15.4 9.77483 16.76 10.2148 18.04C10.8548 19.92 11.8548 21.68 13.0948 23.24C14.0948 24.48 15.2148 25.56 16.4948 26.48C18.3348 27.8 20.4148 28.76 22.7348 29.28C24.7748 29.72 26.7748 29.8 28.6948 29.56C29.7348 29.44 30.3348 30.64 29.6148 31.4C28.0548 33.04 26.1748 34.32 24.0948 35.24C27.9748 34.68 31.4948 32.84 34.0948 30.12C34.8548 29.36 34.2548 28.12 33.2148 28.28Z" fill="#FFA68A"/>
<path d="M38.8547 17.16C39.1347 15.76 38.8547 14.44 38.1747 13.2C37.3747 11.72 36.2147 10.56 34.8547 9.59995C34.8147 9.55995 34.7747 9.55995 34.7347 9.51995C34.7347 9.51995 34.6947 9.51995 34.6547 9.51995C34.6547 9.59995 34.6547 9.71995 34.6547 9.79995C34.5747 10.2 34.5747 10.64 34.4547 11.04C34.1747 11.92 33.4547 12.36 32.4947 12.28C32.1747 12.24 31.8547 12.16 31.4947 12.12C32.0947 11.48 32.1747 10.32 32.0947 9.51995C31.7747 9.75995 31.5347 9.95995 31.2947 10.12L30.6147 9.83995L29.9747 9.59995C29.9347 9.31995 29.8947 8.99995 29.8547 8.59995C29.2547 9.07995 28.4547 9.95995 28.3747 10.84C28.0947 10.64 27.8147 10.44 27.5747 10.24C26.8547 9.59995 26.6947 8.75995 27.0947 7.95995C27.2947 7.59995 27.6147 7.27995 27.8547 6.95995C27.8947 6.87995 27.9747 6.83995 28.0547 6.75995C28.0147 6.71995 28.0147 6.71995 28.0147 6.71995C27.9747 6.71995 27.9347 6.67995 27.8947 6.67995C26.2547 6.39995 24.6147 6.31995 22.9747 6.75995C21.6147 7.11995 20.4547 7.79995 19.6547 8.99995C19.4147 9.31995 19.2547 9.67995 19.0547 10.04L19.0947 10.08C19.1747 10.04 19.2547 10.04 19.3347 9.99995C20.1347 9.75995 20.9347 9.59995 21.7747 9.67995C22.8547 9.83995 23.4547 10.48 23.5747 11.56C23.6147 11.84 23.6147 12.12 23.6147 12.36C23.9747 12.48 24.3347 12.56 24.6547 12.72C25.4547 13.08 25.7347 13.76 25.4547 14.6C25.3747 14.8 25.2947 15 25.1747 15.24C25.3747 15.2 25.5747 15.2 25.7747 15.2C26.4547 15.2 27.0147 15.68 27.2147 16.4C27.2947 16.72 27.3347 17.04 27.3747 17.4C27.6547 17.2 27.9347 17 28.2147 16.84C28.8947 16.48 29.6147 16.56 30.0547 17.04C30.1747 17.16 30.2947 17.32 30.4147 17.52C30.4947 17.28 30.5747 17.08 30.6947 16.88C31.0947 16.08 31.8147 15.8 32.6147 16.16C32.9347 16.28 33.2547 16.48 33.6147 16.68C33.8147 16.52 34.0147 16.32 34.2147 16.16C35.0547 15.48 35.9747 15.52 36.8147 16.16C37.4947 16.68 37.8947 17.4 38.2947 18.16C38.3347 18.24 38.3747 18.32 38.4147 18.4H38.4947C38.6147 17.96 38.7747 17.56 38.8547 17.16Z" fill="#848484"/>
<path d="M28.7348 10.0802C28.7348 10.0002 28.7748 9.88018 28.7748 9.80018C28.7348 9.88018 28.6948 9.96018 28.6548 10.0402C28.6948 10.0402 28.7348 10.0802 28.7348 10.0802ZM27.2948 7.76018C27.4948 7.48018 27.6948 7.24018 27.9348 6.96018C27.9748 6.88018 28.0548 6.84018 28.1348 6.76018C28.0948 6.72018 28.0948 6.72018 28.0948 6.72018C28.0548 6.72018 28.0148 6.68018 27.9748 6.68018C27.9348 6.68018 27.9348 6.68018 27.8948 6.68018C27.7348 6.84018 27.6148 7.04018 27.4948 7.24018C27.3748 7.40018 27.3348 7.56018 27.2948 7.76018ZM34.4948 10.8802C34.6148 10.7202 34.7348 10.5202 34.7748 10.3202C34.8548 10.1202 34.8948 9.88018 34.8948 9.68018C34.8548 9.68018 34.8548 9.64018 34.8148 9.64018C34.7748 9.60018 34.7348 9.60018 34.6948 9.56018C34.6948 9.56018 34.6548 9.56018 34.6148 9.56018C34.6148 9.64018 34.6148 9.76018 34.6148 9.84018C34.6148 10.2002 34.5748 10.5602 34.4948 10.8802ZM31.8148 11.4002C31.8548 11.4002 31.8948 11.4002 31.8948 11.4002C31.9348 11.3202 31.9348 11.2402 31.9748 11.2002C31.9348 11.2802 31.8948 11.3602 31.8148 11.4002ZM38.6948 17.3202C38.3348 16.5602 37.8948 15.8802 37.2148 15.3202C36.3748 14.6402 35.4548 14.6402 34.6148 15.3202C34.4148 15.4802 34.1748 15.6802 34.0148 15.8402C33.6948 15.6802 33.3748 15.4802 33.0148 15.3202C32.2148 15.0002 31.4948 15.2402 31.0948 16.0402C31.0148 16.2402 30.9348 16.4402 30.8148 16.6802C30.6948 16.5202 30.5748 16.3602 30.4548 16.2002C29.9748 15.7202 29.2548 15.6402 28.6148 16.0002C28.3348 16.1602 28.0548 16.3602 27.7748 16.5602C27.7348 16.2402 27.6948 15.8802 27.6148 15.5602C27.4148 14.8402 26.8548 14.3602 26.1748 14.3602C25.9748 14.3602 25.8148 14.4002 25.5748 14.4002C25.6548 14.1602 25.7748 14.0002 25.8548 13.7602C26.1348 12.9202 25.8548 12.2402 25.0548 11.8802C24.7348 11.7202 24.3748 11.6402 24.0148 11.5202C24.0148 11.2802 24.0148 11.0002 23.9748 10.7202C23.8548 9.64018 23.2548 9.00018 22.1748 8.84018C21.3348 8.72018 20.5348 8.88018 19.7348 9.16018C19.6548 9.20018 19.5748 9.20018 19.5348 9.24018C19.3748 9.48018 19.2548 9.72018 19.1348 9.96018L19.1748 10.0002C19.2548 9.96018 19.3348 9.96018 19.4148 9.92018C20.2148 9.68018 21.0148 9.52018 21.8548 9.60018C22.9348 9.76018 23.5348 10.4002 23.6548 11.4802C23.6948 11.7602 23.6948 12.0402 23.6948 12.2802C24.0548 12.4002 24.4148 12.4802 24.7348 12.6402C25.5348 13.0002 25.8148 13.6802 25.5348 14.5202C25.4548 14.7202 25.3748 14.9202 25.2548 15.1602C25.4548 15.1202 25.6548 15.1202 25.8548 15.1202C26.5348 15.1202 27.0948 15.6002 27.2948 16.3202C27.3748 16.6402 27.4148 16.9602 27.4548 17.3202C27.7348 17.1202 28.0148 16.9202 28.2948 16.7602C28.9748 16.4002 29.6948 16.4802 30.1348 16.9602C30.2548 17.0802 30.3748 17.2402 30.4948 17.4402C30.5748 17.2002 30.6548 17.0002 30.7748 16.8002C31.1748 16.0002 31.8948 15.7202 32.6948 16.0802C33.0148 16.2002 33.3348 16.4002 33.6948 16.6002C33.8948 16.4402 34.0948 16.2402 34.2948 16.0802C35.1348 15.4002 36.0548 15.4402 36.8948 16.0802C37.5748 16.6002 37.9748 17.3202 38.3748 18.0802C38.4148 18.1602 38.4548 18.2402 38.4948 18.3202H38.5748C38.6548 18.0402 38.7348 17.7602 38.8148 17.4802C38.7348 17.4402 38.6948 17.4002 38.6948 17.3202Z" fill="#676767"/>
<path d="M34.5747 10.52C35.8947 11.48 37.0147 12.64 37.8147 14.08C38.4947 15.32 38.7747 16.64 38.4947 18.04C38.4947 18.12 38.4547 18.2 38.4547 18.28C38.4547 18.32 38.4947 18.32 38.4947 18.36H38.5747C38.6947 17.96 38.8147 17.6 38.8947 17.2C39.1747 15.8 38.8947 14.48 38.2147 13.24C37.4147 11.76 36.2547 10.6 34.8947 9.63995C34.8547 9.59995 34.8147 9.59995 34.7747 9.55995C34.7747 9.55995 34.7347 9.55995 34.6947 9.55995C34.6947 9.63995 34.6947 9.75995 34.6947 9.83995C34.6147 10.08 34.5747 10.32 34.5747 10.52ZM19.1747 10.08C19.2147 9.99995 19.2547 9.91995 19.3347 9.83995C20.1347 8.67995 21.2947 7.95995 22.6547 7.59995C24.2547 7.15995 25.8547 7.19995 27.4547 7.47995C27.6147 7.27995 27.7347 7.11995 27.8947 6.95995C27.9347 6.87995 28.0147 6.83995 28.0947 6.75995C28.0547 6.71995 28.0547 6.71995 28.0547 6.71995C28.0147 6.71995 27.9747 6.67995 27.9347 6.67995C26.2947 6.39995 24.6547 6.31995 23.0147 6.75995C21.6547 7.11995 20.4947 7.79995 19.6947 8.99995C19.4547 9.31995 19.2947 9.67995 19.0947 10.04L19.1747 10.08ZM31.1347 13.04C31.4947 13.08 31.8147 13.16 32.1347 13.2C33.0947 13.28 33.8547 12.8 34.0947 11.96C34.1347 11.88 34.1347 11.8 34.1747 11.72C33.8147 12.2 33.2147 12.44 32.4947 12.36C32.2147 12.32 31.8947 12.28 31.6147 12.2C31.4547 12.52 31.3347 12.8 31.1347 13.04ZM29.4947 9.47995C29.5347 9.87995 29.5747 10.2 29.6147 10.48L30.2947 10.76L30.9747 11.04C31.2147 10.88 31.4547 10.68 31.7747 10.44C31.8147 10.92 31.8147 11.48 31.6547 12.04C32.1347 11.36 32.2147 10.32 32.1347 9.59995C31.8147 9.83995 31.5747 10.04 31.3347 10.2L30.6547 9.91995L29.9747 9.59995C29.9347 9.31995 29.8947 8.99995 29.8547 8.59995C29.2947 9.03995 28.6147 9.79995 28.4147 10.6C28.7347 10.16 29.1347 9.75995 29.4947 9.47995ZM26.7747 8.83995C26.3347 9.63995 26.5347 10.48 27.2547 11.12C27.4947 11.32 27.7747 11.52 28.0547 11.72C28.0947 11.4 28.1747 11.12 28.3347 10.8C28.0947 10.6 27.8547 10.44 27.6147 10.28C27.0947 9.79995 26.8547 9.19995 26.9347 8.59995C26.8947 8.63995 26.8147 8.71995 26.7747 8.83995Z" fill="#909090"/>
<path d="M27.8948 6.96014C27.9348 6.88014 28.0148 6.84014 28.0948 6.76014C28.0548 6.72014 28.0548 6.72014 28.0548 6.72014C28.0148 6.72014 27.9748 6.68014 27.9348 6.68014C27.8548 6.68014 27.8148 6.64014 27.7348 6.64014C27.6548 6.84014 27.6548 7.04014 27.6548 7.24014C27.7748 7.16014 27.8548 7.08014 27.8948 6.96014ZM34.6148 10.2801C34.7748 10.1601 34.9348 9.96014 35.0548 9.76014C34.9748 9.72014 34.9348 9.68014 34.8548 9.60014C34.8148 9.56014 34.7748 9.56014 34.7348 9.52014C34.7348 9.52014 34.6948 9.52014 34.6548 9.52014C34.6548 9.60014 34.6548 9.72014 34.6548 9.80014C34.6148 10.0001 34.6148 10.1201 34.6148 10.2801Z" fill="#676767"/>
<path d="M31.495 12.2001C31.495 12.2001 30.415 15.2401 28.815 16.6401C28.655 16.6801 28.455 16.7201 28.295 16.8401C28.015 17.0001 27.735 17.2001 27.455 17.4001C27.415 17.0801 27.375 16.7201 27.295 16.4001C27.215 16.1601 27.135 15.9601 27.015 15.8001C26.975 13.6801 28.415 10.8401 28.415 10.8401C28.455 9.9601 29.255 9.0801 29.895 8.6001C29.935 9.0001 29.975 9.3201 30.015 9.6001L30.695 9.8801L31.375 10.1601C31.615 10.0001 31.855 9.7601 32.175 9.5601C32.175 10.3601 32.095 11.5201 31.495 12.2001Z" fill="#676767"/>
<path d="M27.335 13.6001L30.215 14.8801C31.015 13.5601 31.495 12.2001 31.495 12.2001C32.095 11.5201 32.175 10.4001 32.095 9.6001C31.775 9.8401 31.535 10.0401 31.295 10.2001L30.615 9.9201L29.975 9.6001C29.935 9.3201 29.895 9.0001 29.855 8.6001C29.255 9.0801 28.455 9.9601 28.375 10.8401C28.415 10.8801 27.775 12.1201 27.335 13.6001Z" fill="#848484"/>
<path d="M27.9749 11.8401C27.7749 12.3601 27.4949 13.0401 27.2549 13.8001C28.0549 14.5201 29.0549 14.9601 30.1349 15.0401C30.5349 14.3601 30.8549 13.7201 31.0949 13.2001C29.8949 13.1201 28.8149 12.6401 27.9749 11.8401Z" fill="#909090"/>
<path d="M20.2148 30.04C20.2148 30 20.2148 30 20.2148 29.96C20.2148 28.04 18.6548 26.48 16.7348 26.48C16.2148 26.48 15.6948 26.6 15.2548 26.84C14.6948 25.6 13.4948 24.76 12.0548 24.76C10.5748 24.76 9.2948 25.72 8.7748 27.04C8.4148 26.92 8.0148 26.84 7.6148 26.84C5.8548 26.84 4.4548 28.28 4.4548 30C4.4548 30.12 4.4548 30.2 4.4548 30.32C3.6948 30.88 3.1748 31.8 3.1748 32.84C3.1748 34.6 4.6148 36 6.3348 36H18.6548C20.4148 36 21.8148 34.56 21.8148 32.84C21.8548 31.6 21.1748 30.56 20.2148 30.04Z" fill="#848484"/>
<path d="M20.2148 30.04C20.2148 30 20.2148 30 20.2148 29.96C20.2148 28.04 18.6548 26.48 16.7348 26.48C16.2148 26.48 15.6948 26.6 15.2548 26.84C14.6948 25.6 13.4948 24.76 12.0548 24.76C10.5748 24.76 9.2948 25.72 8.7748 27.04C8.4148 26.92 8.0148 26.84 7.6148 26.84C5.8548 26.84 4.4548 28.28 4.4548 30C4.4548 30.12 4.4548 30.2 4.4548 30.32C3.6948 30.88 3.1748 31.8 3.1748 32.84C3.1748 34.6 4.6148 36 6.3348 36H18.6548C20.4148 36 21.8148 34.56 21.8148 32.84C21.8548 31.6 21.1748 30.56 20.2148 30.04Z" fill="#848484"/>
<path d="M20.2148 30.04C20.2148 30 20.2148 30 20.2148 29.96C20.2148 28.04 18.6548 26.48 16.7348 26.48C16.2148 26.48 15.6948 26.6 15.2548 26.84C14.6948 25.6 13.4948 24.76 12.0548 24.76C10.5748 24.76 9.2948 25.72 8.7748 27.04C8.4148 26.92 8.0148 26.84 7.6148 26.84C5.8548 26.84 4.4548 28.28 4.4548 30C4.4548 30.12 4.4548 30.2 4.4548 30.32C3.6948 30.88 3.1748 31.8 3.1748 32.84C3.1748 34.6 4.6148 36 6.3348 36H18.6548C20.4148 36 21.8148 34.56 21.8148 32.84C21.8548 31.6 21.1748 30.56 20.2148 30.04Z" fill="#848484"/>
<path d="M20.2148 30.04C20.2148 30 20.2148 30 20.2148 29.96C20.2148 28.04 18.6548 26.48 16.7348 26.48C16.2148 26.48 15.6948 26.6 15.2548 26.84C14.6948 25.6 13.4948 24.76 12.0548 24.76C10.5748 24.76 9.2948 25.72 8.7748 27.04C8.4148 26.92 8.0148 26.84 7.6148 26.84C5.8548 26.84 4.4548 28.28 4.4548 30C4.4548 30.12 4.4548 30.2 4.4548 30.32C3.6948 30.88 3.1748 31.8 3.1748 32.84C3.1748 34.6 4.6148 36 6.3348 36H18.6548C20.4148 36 21.8148 34.56 21.8148 32.84C21.8548 31.6 21.1748 30.56 20.2148 30.04Z" fill="#848484"/>
<path d="M20.2149 30.0401C20.2149 30.0001 20.2149 30.0001 20.2149 29.9601C20.2149 28.6001 19.4149 27.4001 18.2549 26.8401C18.2949 27.0401 18.3349 27.2401 18.3349 27.4801C18.3349 27.5201 18.3349 27.5201 18.3349 27.5601C19.3349 28.0801 20.0149 29.1601 20.0149 30.3601C20.0149 32.1201 18.6149 33.5201 16.8549 33.5201H4.53492C4.09492 33.5201 3.69492 33.4401 3.29492 33.2801C3.41492 34.8001 4.73492 36.0001 6.33492 36.0001H18.6549C20.4149 36.0001 21.8149 34.5601 21.8149 32.8401C21.8549 31.6001 21.1749 30.5601 20.2149 30.0401Z" fill="#676767"/>
<path d="M33.1749 27.8801C31.2549 28.1201 29.2949 28.0401 27.3749 27.6001C25.1749 27.1201 23.1349 26.2001 21.2949 24.8801C20.0549 23.9601 18.9349 22.9201 17.9749 21.7201C16.7349 20.2001 15.7749 18.4801 15.1749 16.6401C14.7349 15.3601 14.4149 14.0401 14.2949 12.7201C14.2149 11.8801 14.2149 11.0001 14.2549 10.1601C14.3749 8.12007 14.8549 6.20007 15.6549 4.36007C15.8949 3.76007 15.7749 3.12007 15.2949 2.68007C14.7749 2.20007 14.1349 2.12007 13.5349 2.40007C7.2949 5.64007 3.6549 12.0401 3.9749 19.1201C4.0949 21.8401 4.8549 24.4001 6.1349 26.6801C5.7349 26.8401 5.3749 27.1201 5.0549 27.4001C4.3749 28.0801 4.0149 28.9601 4.0149 29.9201C4.0149 29.9601 4.0149 30.0001 4.0149 30.0401C3.2549 30.8001 2.7749 31.7601 2.7749 32.8401C2.7749 34.8401 4.3749 36.4001 6.3349 36.4001H18.6549C19.3749 36.4001 20.0549 36.2001 20.6549 35.8001C21.0149 35.8401 21.3349 35.8401 21.6549 35.8401C24.0149 35.8401 26.3749 35.3601 28.5349 34.4401C30.6949 33.5201 32.6949 32.1601 34.4149 30.4001C34.8549 29.9201 34.9749 29.2801 34.6949 28.6801C34.4149 28.1201 33.8149 27.8001 33.1749 27.8801ZM18.6949 35.6001H6.3749C3.7349 35.6001 2.5749 32.2001 4.7349 30.6001C4.8549 30.5201 4.8949 30.4001 4.8949 30.2401C4.8949 30.1601 4.8949 30.0401 4.8949 29.9601C4.8949 28.4801 6.0549 27.2801 7.4149 27.2001C7.4949 27.2001 7.5749 27.2001 7.6549 27.2001C7.9749 27.2001 8.3349 27.2801 8.6549 27.4001C8.7749 27.4401 8.8549 27.4401 8.9749 27.4001C9.0949 27.3601 9.1349 27.2801 9.1749 27.1601C9.6149 25.9601 10.7749 25.1601 12.0549 25.1601C13.2549 25.1601 14.3749 25.8801 14.8549 27.0001C14.8949 27.0801 14.9749 27.1601 15.0949 27.2001C15.2149 27.2401 15.2949 27.2401 15.4149 27.2001C15.8149 27.0001 16.2949 26.8801 16.7349 26.8801C17.5749 26.8801 18.3349 27.2001 18.9349 27.8001C19.5349 28.4001 19.8549 29.1601 19.8549 30.0001V30.0401C19.8549 30.2001 19.9349 30.3201 20.0549 30.4001C20.9349 30.8801 21.4949 31.8001 21.4949 32.8401C21.4949 34.3601 20.2949 35.5601 18.8549 35.6001C18.7749 35.6001 18.8149 35.6001 18.6949 35.6001ZM33.8549 29.8401C30.5349 33.2801 26.0949 35.0801 21.4949 35.0401C21.9749 34.4001 22.2549 33.6401 22.2549 32.8401C22.2549 31.6001 21.6149 30.4801 20.5749 29.8401C20.5349 28.8801 20.1349 27.9601 19.4549 27.2401C18.7349 26.5201 17.7349 26.1201 16.6949 26.1201C16.2549 26.1201 15.8149 26.2001 15.3749 26.3601C14.6949 25.1601 13.4149 24.4001 12.0149 24.4001C10.5349 24.4001 9.1749 25.2401 8.5349 26.5601C8.2149 26.4801 7.9349 26.4401 7.6149 26.4401C7.3749 26.4401 7.1749 26.4801 6.9349 26.5201C5.6949 24.3201 4.9349 21.8001 4.7749 19.1601C4.4549 12.4001 7.9349 6.24007 13.8949 3.16007C14.0149 3.12007 14.1349 3.08007 14.2149 3.08007C14.4149 3.08007 14.5749 3.16007 14.6949 3.28007C14.8549 3.44007 15.0149 3.72007 14.8549 4.04007C14.0149 5.96007 13.5349 8.00007 13.4149 10.1201C13.3749 11.0001 13.3749 11.9201 13.4549 12.8001C13.5749 14.2001 13.8949 15.6001 14.3749 16.9201C15.0549 18.8401 16.0549 20.6401 17.3349 22.2401C18.3349 23.4801 19.5349 24.6001 20.8149 25.5601C22.7349 26.9601 24.8949 27.9201 27.1749 28.4401C29.2149 28.8801 31.2549 29.0001 33.2549 28.7601C33.6149 28.7201 33.8549 28.9201 33.9749 29.1201C34.0949 29.2401 34.0949 29.5601 33.8549 29.8401Z" fill="#505050"/>
<path d="M38.335 13.12C37.615 11.8 36.575 10.64 35.095 9.55995C35.135 9.51995 35.175 9.43995 35.215 9.39995C35.335 9.11995 35.215 8.83995 35.175 8.79995C35.135 8.71995 35.015 8.67995 34.895 8.71995C34.815 8.75995 34.775 8.87995 34.815 8.99995C34.855 9.03995 34.895 9.15995 34.855 9.27995C34.855 9.31995 34.815 9.35995 34.775 9.35995C34.735 9.35995 34.735 9.35995 34.695 9.35995C34.575 9.35995 34.495 9.43995 34.495 9.55995V9.63995C34.495 9.67995 34.495 9.75995 34.495 9.79995C34.495 9.91995 34.455 10.04 34.455 10.16C34.415 10.48 34.375 10.76 34.295 11C34.055 11.76 33.415 12.16 32.535 12.12C32.335 12.12 32.135 12.08 31.935 12.04C31.935 12.04 31.935 12.04 31.895 12.04C32.415 11.2 32.415 10.04 32.335 9.55995C32.335 9.47995 32.295 9.39995 32.215 9.39995C32.135 9.35995 32.055 9.35995 32.015 9.43995C31.735 9.63995 31.535 9.83995 31.295 9.99995L30.175 9.51995L30.095 8.63995C30.095 8.55995 30.055 8.51995 29.975 8.47995C29.895 8.43995 29.815 8.43995 29.775 8.51995C29.375 8.83995 28.495 9.63995 28.295 10.56C27.375 9.87995 26.815 9.11995 27.375 8.11995C27.495 7.87995 27.695 7.63995 27.895 7.43995C27.975 7.31995 28.055 7.23995 28.135 7.11995C28.175 7.07995 28.215 7.03995 28.255 6.99995C28.295 6.95995 28.295 6.95995 28.335 6.91995C28.415 6.83995 28.375 6.71995 28.335 6.59995C28.295 6.51995 28.295 6.39995 28.335 6.35995C28.375 6.27995 28.495 6.19995 28.535 6.19995C28.655 6.15995 28.695 6.03995 28.655 5.95995C28.615 5.83995 28.495 5.79995 28.415 5.83995C28.375 5.83995 28.095 5.95995 27.935 6.23995C27.895 6.31995 27.895 6.39995 27.895 6.51995C26.095 6.19995 24.535 6.23995 23.095 6.63995C21.615 7.03995 20.455 7.79995 19.655 8.95995C19.495 9.19995 19.335 9.43995 19.215 9.67995C19.175 9.79995 19.095 9.91995 19.015 9.99995C18.975 10.08 18.975 10.2 19.055 10.24L19.095 10.28C19.135 10.32 19.215 10.36 19.295 10.32H19.375C19.415 10.28 19.495 10.28 19.535 10.28C20.175 10.08 21.015 9.87995 21.895 9.95995C22.855 10.08 23.415 10.68 23.535 11.64C23.575 11.84 23.575 12 23.575 12.2V12.4C23.575 12.48 23.615 12.52 23.655 12.56H23.695C23.815 12.6 23.935 12.64 24.055 12.68C24.295 12.76 24.535 12.84 24.735 12.92C25.455 13.24 25.695 13.8 25.415 14.56C25.375 14.68 25.295 14.84 25.255 14.96L25.175 15.16C25.135 15.24 25.175 15.28 25.215 15.36C25.255 15.4 25.335 15.44 25.415 15.44C25.495 15.44 25.535 15.44 25.615 15.4C25.735 15.36 25.855 15.36 25.975 15.36C26.375 15.36 26.735 15.56 26.975 15.88C27.295 16.32 27.295 16.84 27.375 17.36C27.375 17.4 27.415 17.44 27.455 17.48L27.495 17.52C27.535 17.52 27.575 17.56 27.575 17.56C27.615 17.56 27.655 17.56 27.695 17.52C27.775 17.44 27.855 17.4 27.935 17.32C28.135 17.2 28.295 17.04 28.495 16.96C28.655 16.88 28.815 16.84 28.975 16.8C29.415 16.72 29.815 16.84 30.135 17.12C30.215 17.2 30.295 17.28 30.375 17.4C30.415 17.44 30.455 17.52 30.495 17.56C30.535 17.6 30.615 17.64 30.695 17.64C30.775 17.64 30.815 17.6 30.855 17.52L30.935 17.32C30.975 17.16 31.055 17.04 31.095 16.92C31.455 16.2 32.055 16 32.775 16.28C33.095 16.4 33.455 16.64 33.615 16.72C33.615 16.84 33.695 16.92 33.815 16.92C33.855 16.92 33.935 16.88 33.975 16.84C34.855 15.88 35.775 15.32 36.935 16.24C37.615 16.8 38.055 17.56 38.335 18.16C38.335 18.2 38.375 18.24 38.415 18.28L38.455 18.4C38.495 18.48 38.535 18.52 38.615 18.52H38.695C38.775 18.52 38.855 18.44 38.895 18.36C38.935 18.24 38.975 18.12 39.015 18C39.095 17.72 39.175 17.44 39.255 17.16C39.295 15.88 39.055 14.48 38.335 13.12ZM21.855 9.47995C20.975 9.35995 20.135 9.55995 19.455 9.75995C19.575 9.51995 19.695 9.31995 19.855 9.07995C20.615 7.99995 21.655 7.31995 23.055 6.91995C23.855 6.71995 24.655 6.59995 25.535 6.59995C26.015 6.59995 26.495 6.63995 27.015 6.67995C26.015 6.95995 24.335 7.91995 23.655 10.84C23.415 10.12 22.775 9.59995 21.855 9.47995ZM24.775 12.56C24.535 12.44 24.295 12.36 24.055 12.28C24.015 12.28 23.935 12.24 23.855 12.24C24.255 8.23995 26.295 7.31995 27.255 7.07995C26.615 7.87995 25.415 9.79995 25.415 13.04C25.295 12.84 25.055 12.68 24.775 12.56ZM26.815 15.24C26.815 15.28 26.815 15.28 26.815 15.32C26.535 15.12 26.215 15 25.855 15C25.775 15 25.695 15 25.615 15C25.655 14.88 25.695 14.8 25.735 14.68C25.775 14.52 25.815 14.4 25.855 14.24C25.935 14.2 25.975 14.12 25.935 14.04C25.735 11.68 26.215 9.95995 26.775 8.75995C26.775 9.87995 27.575 10.36 28.215 10.88C27.615 11.92 26.895 14 26.815 15.24ZM28.815 16.36C28.775 16.4 28.735 16.4 28.695 16.44C28.535 16.48 28.335 16.56 28.175 16.64C27.975 16.76 27.775 16.88 27.575 17.04C27.575 17.04 27.575 17.04 27.575 17C27.535 16.76 27.495 16.56 27.455 16.32C27.415 16.08 27.295 15.88 27.175 15.72C27.175 14.28 27.855 12.32 28.575 10.96C28.575 10.92 28.575 10.88 28.575 10.88C28.615 10.16 29.255 9.43995 29.695 9.03995L29.775 9.63995C29.775 9.71995 29.815 9.75995 29.895 9.79995L31.215 10.36C31.295 10.4 31.375 10.4 31.415 10.32C31.575 10.2 31.735 10.08 31.895 9.91995C31.895 10.48 31.815 11.44 31.295 12C31.295 12 31.255 12.04 31.255 12.08C31.255 12.08 31.255 12.12 31.215 12.2C30.695 13.56 29.975 15.24 28.815 16.36ZM30.575 16.76C30.535 16.88 30.495 16.96 30.415 17.08C30.135 16.68 29.735 16.44 29.295 16.4C29.335 16.32 29.415 16.28 29.455 16.2C30.335 15.2 31.095 13.64 31.575 12.4C31.615 12.4 31.695 12.44 31.735 12.44C31.975 12.48 32.175 12.52 32.375 12.56C33.175 12.64 33.855 12.32 34.255 11.76C33.815 13 32.855 14.68 30.775 16.28C30.695 16.32 30.695 16.4 30.695 16.48C30.735 16.56 30.655 16.64 30.575 16.76ZM32.015 15.8C34.335 13.68 34.935 11.52 35.095 10.52C35.575 11.36 36.215 13.44 33.775 16.32C33.735 16.36 33.695 16.4 33.655 16.4C33.135 16.12 32.615 15.8 32.015 15.8ZM38.655 17.12C38.615 17.36 38.535 17.6 38.455 17.88C38.135 17.28 37.695 16.52 37.015 15.96C36.575 15.6 36.055 15.4 35.575 15.4C35.335 15.4 35.055 15.44 34.815 15.56C36.455 13.08 35.935 11.2 35.455 10.32C36.575 11.24 37.375 12.2 37.975 13.28C38.695 14.6 38.895 15.88 38.655 17.12Z" fill="#505050"/>
<path d="M29.735 10.56C29.655 10.52 29.535 10.6 29.495 10.72C29.455 10.84 29.455 10.96 29.535 11C29.615 11.04 29.735 10.96 29.775 10.84C29.815 10.72 29.815 10.6 29.735 10.56ZM30.615 11.48C30.695 11.52 30.815 11.44 30.855 11.32C30.895 11.2 30.895 11.08 30.815 11.04C30.735 11 30.615 11.08 30.575 11.2C30.535 11.32 30.535 11.44 30.615 11.48Z" fill="#505050"/>
<path d="M10.7441 31.5521C12.3203 30.8557 13.2506 29.5049 12.822 28.535C12.3935 27.565 10.7684 27.3433 9.19224 28.0396C7.6161 28.736 6.68578 30.0868 7.11432 31.0568C7.54286 32.0267 9.16798 32.2485 10.7441 31.5521Z" fill="#909090"/>
</svg>
