<svg width="24" height="24" viewBox="0 0 24 24" fill="none" xmlns="http://www.w3.org/2000/svg">
<path d="M6.64648 17.3438H7.69648L14.1652 10.875L13.1152 9.825L6.64648 16.2938V17.3438ZM17.3715 9.7875L14.184 6.6375L15.234 5.5875C15.5215 5.3 15.8746 5.15625 16.2934 5.15625C16.7121 5.15625 17.0652 5.3 17.3527 5.5875L18.4027 6.6375C18.6902 6.925 18.8402 7.27188 18.8527 7.67813C18.8652 8.08438 18.7277 8.43125 18.4402 8.71875L17.3715 9.7875ZM16.284 10.8938L8.33398 18.8438H5.14648V15.6562L13.0965 7.70625L16.284 10.8938ZM13.6402 10.35L13.1152 9.825L14.1652 10.875L13.6402 10.35Z" fill="#BF360C"/>
</svg>
