<svg width="24" height="24" viewBox="0 0 24 24" fill="none" xmlns="http://www.w3.org/2000/svg">
<path d="M20 7.423V18.385C20 18.845 19.846 19.229 19.538 19.537C19.2293 19.8457 18.845 20 18.385 20H5.615C5.155 20 4.771 19.846 4.463 19.538C4.15433 19.2293 4 18.845 4 18.385V5.615C4 5.155 4.15433 4.771 4.463 4.463C4.771 4.15433 5.155 4 5.615 4H16.577L20 7.423ZM19 7.85L16.15 5H5.615C5.43567 5 5.28833 5.05767 5.173 5.173C5.05767 5.28833 5 5.43567 5 5.615V18.385C5 18.5643 5.05767 18.7117 5.173 18.827C5.28833 18.9423 5.43567 19 5.615 19H18.385C18.5643 19 18.7117 18.9423 18.827 18.827C18.9423 18.7117 19 18.5643 19 18.385V7.85ZM12 16.538C12.5513 16.538 13.0223 16.3427 13.413 15.952C13.8043 15.5607 14 15.0893 14 14.538C14 13.9867 13.8043 13.5157 13.413 13.125C13.0223 12.7337 12.5513 12.538 12 12.538C11.4487 12.538 10.9777 12.7337 10.587 13.125C10.1957 13.5163 10 13.9873 10 14.538C10 15.0887 10.1957 15.56 10.587 15.952C10.9777 16.3427 11.4487 16.538 12 16.538ZM6.77 9.77H14.192V6.77H6.77V9.77ZM5 7.85V19V5V7.85Z" fill="white"/>
</svg>
