<svg width="22" height="19" viewBox="0 0 22 19" fill="none" xmlns="http://www.w3.org/2000/svg">
<g id="Group">
<g id="Vector">
<path d="M1 1.5H21H1ZM1 9.5H6.5H1ZM1 17.5H6.5H1Z" fill="#EDF1FA"/>
<path d="M1 1.5H21M1 9.5H6.5M1 17.5H6.5" stroke="white" stroke-width="1.66667" stroke-linecap="round"/>
</g>
<path id="Vector_2" d="M14.75 15C15.8772 15 16.9582 14.5522 17.7552 13.7552C18.5522 12.9582 19 11.8772 19 10.75C19 9.62283 18.5522 8.54183 17.7552 7.7448C16.9582 6.94777 15.8772 6.5 14.75 6.5C13.6228 6.5 12.5418 6.94777 11.7448 7.7448C10.9478 8.54183 10.5 9.62283 10.5 10.75C10.5 11.8772 10.9478 12.9582 11.7448 13.7552C12.5418 14.5522 13.6228 15 14.75 15Z" stroke="white" stroke-width="1.66667"/>
<path id="Vector_3" d="M17.5 14L21 17.525" stroke="white" stroke-width="1.66667" stroke-linecap="round"/>
</g>
</svg>
