<svg width="24" height="24" viewBox="0 0 24 24" fill="none" xmlns="http://www.w3.org/2000/svg">
<path fill-rule="evenodd" clip-rule="evenodd" d="M4.8 5C4.58385 5 4.37901 5.08492 4.22991 5.23218C4.08123 5.37903 4 5.57554 4 5.77778V18.2222C4 18.4245 4.08123 18.621 4.22991 18.7678C4.37901 18.9151 4.58385 19 4.8 19H9.2V5H4.8ZM2.82451 3.80921C3.35054 3.28968 4.06137 3 4.8 3H10.2C10.7523 3 11.2 3.44772 11.2 4V20C11.2 20.5523 10.7523 21 10.2 21H4.8C4.06137 21 3.35054 20.7103 2.82451 20.1908C2.29806 19.6708 2 18.963 2 18.2222V5.77778C2 5.03703 2.29806 4.32916 2.82451 3.80921ZM12.8 4C12.8 3.44772 13.2477 3 13.8 3H19.2C19.9386 3 20.6495 3.28968 21.1755 3.80921C21.7019 4.32917 22 5.03703 22 5.77778V10.2222C22 10.7745 21.5523 11.2222 21 11.2222H13.8C13.2477 11.2222 12.8 10.7745 12.8 10.2222V4ZM14.8 5V9.22222H20V5.77778C20 5.57553 19.9188 5.37903 19.7701 5.23218C19.621 5.08492 19.4162 5 19.2 5H14.8ZM12.8 13.7778C12.8 13.2255 13.2477 12.7778 13.8 12.7778H21C21.5523 12.7778 22 13.2255 22 13.7778V18.2222C22 18.963 21.7019 19.6708 21.1755 20.1908C20.6495 20.7103 19.9386 21 19.2 21H13.8C13.2477 21 12.8 20.5523 12.8 20V13.7778ZM14.8 14.7778V19H19.2C19.4162 19 19.621 18.9151 19.7701 18.7678C19.9188 18.621 20 18.4245 20 18.2222V14.7778H14.8Z" fill="white"/>
</svg>
