<svg width="24" height="25" viewBox="0 0 24 25" fill="none" xmlns="http://www.w3.org/2000/svg">
<rect y="0.5" width="24" height="24" rx="12" fill="#F4511E"/>
<path d="M7.21212 17.2729C6.87879 17.2729 6.59343 17.166 6.35606 16.9524C6.11869 16.7388 6 16.482 6 16.182V8.54559C6 8.24559 6.11869 7.98877 6.35606 7.77513C6.59343 7.5615 6.87879 7.45468 7.21212 7.45468H7.81818V6.36377H9.0303V7.45468H14.9697V6.36377H16.1818V7.45468H16.7879C17.1212 7.45468 17.4066 7.5615 17.6439 7.77513C17.8813 7.98877 18 8.24559 18 8.54559V16.182C18 16.482 17.8813 16.7388 17.6439 16.9524C17.4066 17.166 17.1212 17.2729 16.7879 17.2729H7.21212ZM7.21212 16.182H16.7879V10.7274H7.21212V16.182ZM7.21212 9.6365H16.7879V8.54559H7.21212V9.6365Z" fill="white"/>
<rect x="8.18164" y="11.8184" width="1.09091" height="1.09091" fill="white"/>
<rect x="10.3633" y="11.8181" width="1.09091" height="1.09091" fill="white"/>
<rect x="10.3633" y="13.9998" width="1.09091" height="1.09091" fill="white"/>
<rect x="8.18164" y="13.9998" width="1.09091" height="1.09091" fill="white"/>
<rect x="12.5449" y="13.9998" width="1.09091" height="1.09091" fill="white"/>
<rect x="12.5449" y="11.8181" width="1.09091" height="1.09091" fill="white"/>
<rect x="14.7266" y="11.8181" width="1.09091" height="1.09091" fill="white"/>
</svg>
