<svg width="24" height="24" viewBox="0 0 24 24" fill="none" xmlns="http://www.w3.org/2000/svg">
<path fill-rule="evenodd" clip-rule="evenodd" d="M16.9497 16.9498C16.5592 17.3404 15.9261 17.3404 15.5355 16.9498L12.7071 14.1214C12.3166 13.7309 11.6834 13.7309 11.2929 14.1214L8.46447 16.9498C8.07394 17.3404 7.44078 17.3404 7.05025 16.9498C6.65973 16.5593 6.65973 15.9261 7.05025 15.5356L9.87868 12.7072C10.2692 12.3167 10.2692 11.6835 9.87868 11.293L7.05025 8.46455C6.65973 8.07402 6.65973 7.44086 7.05025 7.05033C7.44078 6.65981 8.07394 6.65981 8.46447 7.05033L11.2929 9.87876C11.6834 10.2693 12.3166 10.2693 12.7071 9.87876L15.5355 7.05033C15.9261 6.65981 16.5592 6.65981 16.9497 7.05033C17.3403 7.44086 17.3403 8.07402 16.9497 8.46455L14.1213 11.293C13.7308 11.6835 13.7308 12.3167 14.1213 12.7072L16.9497 15.5356C17.3403 15.9261 17.3403 16.5593 16.9497 16.9498Z" fill="#B71C1C"/>
</svg>
