<svg width="18" height="15" viewBox="0 0 18 15" fill="none" xmlns="http://www.w3.org/2000/svg">
<path fill-rule="evenodd" clip-rule="evenodd" d="M0.0761159 1.117C0.15186 0.934314 0.280072 0.778189 0.444541 0.668366C0.60901 0.558542 0.80235 0.49995 1.00012 0.5H11.0001C11.9194 0.5 12.8296 0.68106 13.6789 1.03284C14.5282 1.38463 15.2999 1.90024 15.9499 2.55025C16.5999 3.20026 17.1155 3.97194 17.4673 4.82122C17.8191 5.67049 18.0001 6.58075 18.0001 7.5C18.0001 8.41925 17.8191 9.3295 17.4673 10.1788C17.1155 11.0281 16.5999 11.7997 15.9499 12.4497C15.2999 13.0998 14.5282 13.6154 13.6789 13.9672C12.8296 14.3189 11.9194 14.5 11.0001 14.5H2.00012C1.7349 14.5 1.48055 14.3946 1.29301 14.2071C1.10547 14.0196 1.00012 13.7652 1.00012 13.5C1.00012 13.2348 1.10547 12.9804 1.29301 12.7929C1.48055 12.6054 1.7349 12.5 2.00012 12.5H11.0001C12.3262 12.5 13.598 11.9732 14.5357 11.0355C15.4733 10.0979 16.0001 8.82608 16.0001 7.5C16.0001 6.17392 15.4733 4.90215 14.5357 3.96447C13.598 3.02678 12.3262 2.5 11.0001 2.5H3.41412L5.20712 4.293C5.38927 4.4816 5.49007 4.7342 5.48779 4.9964C5.48551 5.2586 5.38034 5.50941 5.19493 5.69482C5.00953 5.88023 4.75871 5.9854 4.49652 5.98767C4.23432 5.98995 3.98172 5.88916 3.79312 5.707L0.293116 2.207C0.153183 2.06716 0.0578741 1.88895 0.0192471 1.69492C-0.0193799 1.5009 0.000411086 1.29977 0.0761159 1.117Z" fill="white"/>
</svg>
