<svg width="21" height="21" viewBox="0 0 21 21" fill="none" xmlns="http://www.w3.org/2000/svg">
<path fill-rule="evenodd" clip-rule="evenodd" d="M15.5204 0.142073C15.8304 0.327769 16.0162 0.666342 16.0062 1.02764L15.8433 6.91802L20.1651 10.8907C20.4302 11.1344 20.5438 11.5017 20.4626 11.8525C20.3813 12.2033 20.1178 12.4833 19.7725 12.5857L14.1611 14.2489L11.743 19.6117C11.5942 19.9417 11.2788 20.1655 10.9182 20.1969C10.5577 20.2283 10.2083 20.0625 10.0046 19.7632L6.6995 14.9057L0.887661 14.2486C0.529668 14.2081 0.221122 13.9782 0.079963 13.6468C-0.0611961 13.3153 -0.013144 12.9335 0.205751 12.6474L3.7769 7.97901L2.60077 2.20576C2.52869 1.85193 2.65296 1.48672 2.9259 1.25029C3.19883 1.01386 3.57803 0.942944 3.91797 1.06475L9.42568 3.03831L14.5103 0.131829C14.8241 -0.04754 15.2103 -0.0436233 15.5204 0.142073ZM13.9578 2.75137L10.0183 5.00326C9.76448 5.14834 9.4599 5.17509 9.1847 5.07648L4.91499 3.54653L5.82747 8.0256C5.88517 8.30884 5.81749 8.6032 5.64185 8.8328L2.86738 12.4597L7.38036 12.97C7.66995 13.0027 7.93084 13.1601 8.09478 13.4011L10.6537 17.1619L12.5262 13.0093C12.6457 12.7441 12.8748 12.5442 13.1536 12.4615L17.513 11.1694L14.1544 8.08209C13.9413 7.8862 13.8235 7.60757 13.8315 7.31823L13.9578 2.75137ZM15.4805 15.4512C15.8723 15.0619 16.5055 15.064 16.8947 15.4557L20.7094 19.2952C21.0987 19.687 21.0966 20.3201 20.7048 20.7094C20.313 21.0986 19.6799 21.0966 19.2906 20.7048L15.4759 16.8654C15.0867 16.4736 15.0887 15.8404 15.4805 15.4512Z" fill="#E64A19"/>
</svg>
