<svg width="20" height="11" viewBox="0 0 20 11" fill="none" xmlns="http://www.w3.org/2000/svg">
<path fill-rule="evenodd" clip-rule="evenodd" d="M1.9 5.66699C1.9 3.95699 3.29 2.56699 5 2.56699H9V0.666992H5C2.24 0.666992 0 2.90699 0 5.66699C0 8.42699 2.24 10.667 5 10.667H9V8.76699H5C3.29 8.76699 1.9 7.37699 1.9 5.66699ZM6 6.66699H14V4.66699H6V6.66699ZM15 0.666992H11V2.56699H15C16.71 2.56699 18.1 3.95699 18.1 5.66699C18.1 7.37699 16.71 8.76699 15 8.76699H11V10.667H15C17.76 10.667 20 8.42699 20 5.66699C20 2.90699 17.76 0.666992 15 0.666992Z" fill="#E64A19"/>
</svg>
