<svg width="22" height="24" viewBox="0 0 22 24" fill="none" xmlns="http://www.w3.org/2000/svg">
<path d="M20.8944 21.1158C20.8233 21.3288 20.6535 21.5651 20.375 21.6447C20.174 21.7022 13.5229 23.5914 13.3181 23.644C12.7325 23.7971 12.3255 23.6844 12.0583 23.453C11.6513 23.1016 6.94789 19.9636 1.01468 19.6674C0.380405 19.6367 0.691299 17.2787 2.50422 17.2787C3.74655 17.2787 7.37865 18.1639 7.8169 17.7329C8.15526 17.3999 8.30883 15.4324 6.8967 11.9993L4.0562 5.0977C3.94183 4.78627 3.95499 4.44351 4.09292 4.1414C4.23084 3.83929 4.4828 3.60135 4.79587 3.47758C5.10893 3.3538 5.45873 3.35381 5.77178 3.47761C6.08484 3.60141 6.33678 3.83937 6.47468 4.14149L8.95435 10.164C9.19532 10.7517 9.49248 10.9745 9.81586 10.8521C10.1043 10.7444 10.1642 10.5558 9.98941 9.98404L7.43483 2.60371C7.37964 2.44487 7.35693 2.27691 7.36798 2.10944C7.37903 1.94198 7.42363 1.77829 7.49923 1.62774C7.57484 1.4772 7.67996 1.34273 7.8086 1.23205C7.93723 1.12137 8.08685 1.03663 8.2489 0.982686C8.41094 0.927877 8.58244 0.905068 8.75352 0.915577C8.92459 0.926086 9.09185 0.969704 9.24565 1.04392C9.39944 1.11813 9.53674 1.22146 9.6496 1.34796C9.76247 1.47446 9.84868 1.62162 9.90326 1.78096L12.333 8.79888C12.5477 9.41595 12.775 9.73917 13.1346 9.5898C13.3506 9.50043 13.3356 9.17598 13.2781 8.89315L11.5726 2.19478C11.5257 2.03009 11.513 1.85785 11.5351 1.68824C11.5572 1.51863 11.6138 1.35509 11.7015 1.2073C11.7892 1.0595 11.9062 0.930439 12.0457 0.827743C12.1851 0.725046 12.3441 0.650796 12.5133 0.609382C12.6825 0.567968 12.8584 0.560229 13.0307 0.586623C13.203 0.613017 13.3681 0.673009 13.5164 0.763052C13.6646 0.853096 13.7929 0.971365 13.8938 1.11087C13.9946 1.25037 14.0659 1.40828 14.1035 1.57527L15.6767 7.74839C15.9064 8.65563 16.1174 8.98253 16.4832 8.89315C16.8566 8.80378 16.8391 8.50259 16.7879 8.25405L15.6991 2.9551C15.6546 2.66031 15.7273 2.36002 15.902 2.11619C16.0767 1.87235 16.3402 1.70358 16.6381 1.64468C16.936 1.58579 17.2456 1.64126 17.503 1.79966C17.7604 1.95807 17.946 2.20731 18.0215 2.49597L19.2051 8.26384L19.2064 8.26507V8.26629L19.9156 11.7251C20.0704 12.3776 20.2477 12.9922 20.4774 13.5946C21.8321 17.1317 21.1254 20.4069 20.8944 21.1158Z" fill="white"/>
</svg>
