<svg width="20" height="20" viewBox="0 0 20 20" fill="none" xmlns="http://www.w3.org/2000/svg">
<path d="M12.287 0.100717C12.2018 0.0510274 12.1078 0.0189039 12.0104 0.00618574C11.913 -0.00653247 11.814 0.000404246 11.7193 0.0265988C11.6245 0.0527934 11.5357 0.0977314 11.4581 0.158841C11.3804 0.21995 11.3154 0.29603 11.2667 0.382726L11.266 0.384082L8.61717 5.04808L8.29707 4.9064C7.50693 4.5534 6.61862 4.49947 5.79277 4.75436C4.96692 5.00925 4.25805 5.55613 3.79435 6.29611L3.78969 6.30357L3.78502 6.3117L3.78368 6.31102L0.315953 12.1953L0.312618 12.2V12.2054H0.311285C0.00296227 12.7504 -0.0803949 13.3974 0.0794608 14.0047C0.239317 14.612 0.629362 15.1302 1.16421 15.4458C1.57647 15.6931 2.05448 15.8031 2.5313 15.7604L2.49262 15.8295L2.49195 15.8302C2.35471 16.0714 2.27138 16.3403 2.24788 16.6179L1.99447 18.952V18.9574C1.95246 19.5085 2.55998 19.8563 3.00211 19.5472L3.00878 19.5431L4.84401 18.1317C5.03474 17.9947 5.20079 17.8199 5.32749 17.6205V17.6273C5.32754 18.1274 5.48304 18.6147 5.77177 19.0196C6.0605 19.4245 6.46772 19.7264 6.93525 19.882C7.40279 20.0376 7.90674 20.0391 8.37514 19.8862C8.84355 19.7333 9.25245 19.4338 9.54346 19.0306C9.62792 19.1119 9.71795 19.1888 9.81354 19.2611C10.5071 19.7817 11.4134 20 12.3363 20H18.4982C18.8655 20 19.2199 19.8624 19.4938 19.6136C19.7676 19.3647 19.9417 19.022 19.9827 18.651H19.9987V17.3277H20V11.3214C19.9994 10.9485 19.8915 10.5839 19.6896 10.2725C19.4876 9.96116 19.2006 9.71663 18.8637 9.56904L11.6948 6.40593L14.1522 2.07614L14.1535 2.0741C14.2024 1.98751 14.234 1.89197 14.2465 1.79294C14.259 1.69392 14.2522 1.59336 14.2264 1.49701C14.2007 1.40067 14.1565 1.31045 14.0964 1.23149C14.0362 1.15254 13.9614 1.08642 13.8761 1.03691L13.8741 1.03623L12.2903 0.102073L12.287 0.100717ZM7.94696 6.22764L6.17575 9.34601C5.82557 9.51757 5.53556 9.79416 5.34483 10.1385L3.20551 13.9015C3.11676 14.057 2.98957 14.1861 2.83656 14.2761C2.68354 14.3662 2.51003 14.4139 2.33324 14.4147C2.15931 14.4156 1.98836 14.3688 1.83842 14.2791L1.83575 14.2778C1.72037 14.2116 1.61908 14.1227 1.53776 14.0164C1.45643 13.9101 1.3967 13.7884 1.36201 13.6584C1.32733 13.5284 1.3184 13.3928 1.33573 13.2592C1.35306 13.1257 1.39631 12.997 1.46297 12.8806L4.91737 7.01944C5.21043 6.55297 5.65798 6.20847 6.17913 6.0482C6.70028 5.88794 7.26063 5.92249 7.75891 6.14561H7.76157L7.94696 6.22764ZM9.39608 10.4564L11.0252 7.58617L18.3348 10.813L18.3328 10.8103C18.432 10.8521 18.5167 10.9229 18.5761 11.0138C18.6355 11.1048 18.6669 11.2116 18.6663 11.3208V11.859H18.6649V17.2958H14.7904C14.6206 17.2954 14.4543 17.2827 14.2916 17.2579L13.8628 17.1623C13.2145 16.972 12.6466 16.5683 12.2483 16.0146C11.7148 15.273 10.7345 15.0859 9.97159 15.5163L9.97092 15.517C9.51078 15.778 8.96661 16.0864 8.53848 16.3305L7.79625 16.7508L7.78892 16.7555C7.48203 16.9349 7.11769 16.9833 6.77578 16.89C6.43387 16.7967 6.14231 16.5694 5.96502 16.258C5.78883 15.9458 5.74156 15.5754 5.83356 15.2278C5.92556 14.8803 6.14933 14.584 6.45584 14.4039L9.27337 12.7498C9.39419 12.7064 9.50014 12.6285 9.57855 12.5254C9.65696 12.4224 9.70451 12.2986 9.71551 12.1688C9.78332 11.5783 9.67185 10.9807 9.39608 10.4564ZM3.01612 16.2729L4.73998 17.2938C4.6616 17.4052 4.56534 17.5023 4.45522 17.5812L4.45056 17.5846L3.44025 18.3615L2.77271 17.9663L2.91142 16.6891V16.6816C2.92475 16.5366 2.9601 16.3983 3.01612 16.2729ZM12.261 4.05224L10.5271 3.0408L11.178 1.89378L12.9085 2.91064L12.261 4.05224Z" fill="#BF360C"/>
</svg>
