<svg width="16" height="16" viewBox="0 0 16 16" fill="none" xmlns="http://www.w3.org/2000/svg">
<path d="M4.45964 12.5C4.25894 12.5 4.09071 12.4281 3.95495 12.2844C3.81918 12.1406 3.7513 11.9625 3.7513 11.75V10.25H12.9596V3.5H14.3763C14.577 3.5 14.7452 3.57188 14.881 3.71563C15.0168 3.85938 15.0846 4.0375 15.0846 4.25V15.5L12.2513 12.5H4.45964ZM0.917969 11.75V1.25C0.917969 1.0375 0.985851 0.859375 1.12161 0.715625C1.25738 0.571875 1.42561 0.5 1.6263 0.5H10.8346C11.0353 0.5 11.2036 0.571875 11.3393 0.715625C11.4751 0.859375 11.543 1.0375 11.543 1.25V8C11.543 8.2125 11.4751 8.39063 11.3393 8.53438C11.2036 8.67813 11.0353 8.75 10.8346 8.75H3.7513L0.917969 11.75ZM10.1263 7.25V2H2.33464V7.25H10.1263Z" fill="#E64A19"/>
</svg>
