<svg width="12" height="12" viewBox="0 0 12 12" fill="none" xmlns="http://www.w3.org/2000/svg">
<path d="M11.8653 5.51082C11.7874 5.35509 11.673 5.22057 11.5317 5.11878L10.7531 4.53364C10.7126 4.50573 10.6835 4.46419 10.6712 4.41661C10.6537 4.36941 10.6537 4.31752 10.6712 4.27033L10.9931 3.31655C11.0448 3.14597 11.0568 2.96585 11.0282 2.78993C11.0015 2.61069 10.9289 2.4414 10.8175 2.29841C10.7104 2.15529 10.5697 2.04074 10.4077 1.96488C10.2529 1.89054 10.0818 1.85633 9.91018 1.86541H9.03212C8.98019 1.86478 8.92987 1.84733 8.8887 1.81567C8.84754 1.78402 8.81776 1.73988 8.80383 1.68987L8.55212 0.812158C8.50309 0.634284 8.41056 0.471401 8.28285 0.338196C8.15504 0.208413 7.9987 0.110237 7.82626 0.051478C7.65193 -0.00198894 7.46751 -0.0140111 7.28771 0.0163697C7.10955 0.0516418 6.94274 0.129992 6.80186 0.244574L6.13453 0.771198C6.09755 0.804523 6.04969 0.823244 5.9999 0.823861C5.95494 0.828153 5.9098 0.817897 5.87111 0.794604L5.20964 0.267979C5.07386 0.157054 4.91315 0.0807496 4.74135 0.0456266C4.572 0.00533054 4.39556 0.00533054 4.22622 0.0456266C4.05623 0.0921492 3.89973 0.178388 3.76963 0.297236C3.63644 0.426785 3.53437 0.584833 3.47109 0.759495L3.21938 1.64305C3.2066 1.69515 3.17542 1.74087 3.13157 1.77179C3.08551 1.80395 3.02942 1.81849 2.97352 1.81274H2.1423C1.96267 1.80525 1.78391 1.84139 1.62132 1.91807C1.45647 1.99181 1.31336 2.10666 1.2057 2.2516C1.09736 2.39416 1.02507 2.56078 0.994967 2.73726C0.965699 2.90871 0.977406 3.08542 1.03009 3.25219L1.31692 4.24048C1.33201 4.28747 1.33224 4.33797 1.31757 4.38509C1.30291 4.43221 1.27406 4.47366 1.23497 4.5038L0.456425 5.08893C0.314765 5.19426 0.198861 5.33001 0.116909 5.48683C0.0400049 5.6424 0 5.81359 0 5.98712C0 6.16065 0.0400049 6.33184 0.116909 6.48742C0.198606 6.64395 0.314676 6.77998 0.456425 6.88531L1.23497 7.47045C1.27406 7.50058 1.30291 7.54204 1.31757 7.58916C1.33224 7.63628 1.33201 7.68677 1.31692 7.73376L0.994967 8.68754C0.940435 8.8595 0.926411 9.04174 0.953991 9.22001C0.98326 9.39438 1.05585 9.55939 1.16473 9.69983C1.27185 9.84611 1.41526 9.96314 1.58034 10.0392C1.73546 10.1129 1.90639 10.1469 2.07791 10.1387H2.95011C3.0029 10.1364 3.05478 10.153 3.09645 10.1855C3.13853 10.2144 3.16787 10.2584 3.1784 10.3084L3.43011 11.1919C3.48214 11.3668 3.57435 11.5271 3.69938 11.66C3.89029 11.8588 4.14853 11.9791 4.42354 11.9975C4.69855 12.0159 4.97054 11.931 5.18623 11.7595L5.85941 11.227C5.90001 11.1943 5.95063 11.1764 6.00282 11.1764C6.05502 11.1764 6.10563 11.1943 6.14624 11.227L6.80771 11.7537C6.9482 11.8719 7.11796 11.9509 7.29942 11.9819C7.36576 11.9877 7.43211 11.9877 7.49845 11.9819C7.61367 11.982 7.7282 11.9642 7.83796 11.9292C8.01174 11.8746 8.16914 11.7775 8.29589 11.6467C8.42264 11.5159 8.51474 11.3556 8.56382 11.1802L8.82139 10.2908C8.83192 10.2409 8.86126 10.1969 8.90334 10.1679C8.94861 10.1337 9.00477 10.1171 9.06139 10.1211H9.89847C10.0775 10.1282 10.2557 10.0942 10.4195 10.0217C10.5809 9.94467 10.7215 9.8301 10.8295 9.68756C10.9374 9.54502 11.0096 9.37866 11.0399 9.20246C11.0707 9.02238 11.0567 8.83748 10.999 8.66413L10.6829 7.71621C10.6654 7.66901 10.6654 7.61712 10.6829 7.56992C10.6953 7.52234 10.7243 7.48081 10.7648 7.45289L11.5434 6.86776C11.6844 6.76331 11.7988 6.62696 11.877 6.46986C11.9593 6.31497 12.0015 6.142 12 5.96664C11.9886 5.80658 11.9426 5.65146 11.8653 5.51082ZM8.6809 5.06553L6.09356 7.65184C5.99338 7.7499 5.8764 7.82918 5.74819 7.8859C5.61823 7.93856 5.47892 7.96665 5.33843 7.96782C5.19518 7.9688 5.05342 7.93886 4.92281 7.88005C4.79186 7.82515 4.67264 7.7457 4.57159 7.64599L3.29548 6.36454C3.19958 6.2526 3.14947 6.10861 3.15516 5.96135C3.16085 5.81408 3.22192 5.67438 3.32617 5.57017C3.43043 5.46596 3.57018 5.40492 3.7175 5.39923C3.86482 5.39354 4.00887 5.44363 4.12085 5.53949L5.33843 6.75658L7.85553 4.23463C7.9652 4.12565 8.11357 4.06448 8.26821 4.06448C8.42286 4.06448 8.57122 4.12565 8.6809 4.23463C8.73938 4.28937 8.78601 4.35552 8.81788 4.42899C8.84976 4.50247 8.8662 4.5817 8.8662 4.66178C8.8662 4.74187 8.84976 4.8211 8.81788 4.89458C8.78601 4.96805 8.73938 5.0342 8.6809 5.08893V5.06553Z" fill="url(#paint0_linear_6576_7716)"/>
<defs>
<linearGradient id="paint0_linear_6576_7716" x1="0" y1="0" x2="12.0273" y2="0.0273769" gradientUnits="userSpaceOnUse">
<stop stop-color="#BF360C"/>
<stop offset="1" stop-color="#F4511E"/>
</linearGradient>
</defs>
</svg>
