<svg width="18" height="18" viewBox="0 0 18 18" fill="none" xmlns="http://www.w3.org/2000/svg">
<path d="M9 0C4.05 0 0 4.05 0 9C0 13.95 4.05 18 9 18C13.95 18 18 13.95 18 9C18 4.05 13.95 0 9 0ZM7.95 12.75C7.53579 13.1642 6.86421 13.1642 6.45 12.75L3.33494 9.63494C2.98427 9.28427 2.98427 8.71573 3.33494 8.36506C3.68527 8.01473 4.25313 8.01434 4.60394 8.36417L6.90627 10.6601C7.06856 10.8219 7.33126 10.8217 7.49332 10.6597L13.392 4.761C13.7445 4.40846 14.3164 4.40947 14.6677 4.76326C15.0173 5.11528 15.0163 5.68371 14.6655 6.0345L7.95 12.75Z" fill="#5ADB2F"/>
</svg>
