<svg width="13" height="14" viewBox="0 0 13 14" fill="none" xmlns="http://www.w3.org/2000/svg">
<path d="M8.29895 10.4718V11.1039C8.29895 11.6068 8.10942 12.089 7.77205 12.4446C7.43468 12.8002 6.97711 13 6.5 13C6.02289 13 5.56532 12.8002 5.22795 12.4446C4.89058 12.089 4.70105 11.6068 4.70105 11.1039V10.4718M8.29895 10.4718H4.70105M8.29895 10.4718H10.4517C10.6814 10.4718 10.7965 10.4718 10.8894 10.439C10.9769 10.4078 11.0563 10.3557 11.1215 10.2869C11.1867 10.218 11.236 10.1342 11.2654 10.042C11.2972 9.94343 11.2972 9.82208 11.2972 9.57811C11.2972 9.4713 11.2972 9.4182 11.2888 9.36701C11.274 9.27131 11.2385 9.18048 11.1851 9.10155C11.1563 9.0592 11.1203 9.02128 11.049 8.94607L10.8151 8.69957C10.7778 8.66022 10.7482 8.6135 10.728 8.5621C10.7079 8.51069 10.6975 8.4556 10.6976 8.39998V6.04751C10.6976 5.4665 10.589 4.89118 10.378 4.3544C10.1671 3.81762 9.8579 3.32988 9.46812 2.91905C9.07834 2.50821 8.61561 2.18232 8.10634 1.95998C7.59706 1.73763 7.05123 1.6232 6.5 1.6232C5.94877 1.6232 5.40293 1.73763 4.89366 1.95998C4.38439 2.18232 3.92166 2.50821 3.53188 2.91905C3.1421 3.32988 2.83291 3.81762 2.62196 4.3544C2.41101 4.89118 2.30244 5.4665 2.30244 6.04751V8.39998C2.30248 8.4556 2.29212 8.51069 2.27195 8.5621C2.25179 8.6135 2.22221 8.66022 2.18491 8.69957L1.95105 8.94607C1.87909 9.02191 1.84371 9.0592 1.81553 9.10092C1.76157 9.17991 1.72566 9.27098 1.71059 9.36701C1.70279 9.41757 1.70279 9.4713 1.70279 9.57811C1.70279 9.82208 1.70279 9.94343 1.73397 10.042C1.76355 10.1344 1.81299 10.2182 1.87842 10.2871C1.94386 10.3559 2.02351 10.4079 2.11115 10.439C2.2041 10.4718 2.31863 10.4718 2.5483 10.4718H4.70105M10.1093 1C10.9362 1.65695 11.5875 2.52838 12 3.52944M2.8913 1C2.06422 1.65687 1.41264 2.52831 1 3.52944" stroke="#9E9E9E" stroke-linecap="round" stroke-linejoin="round"/>
</svg>
