<svg width="18" height="17" viewBox="0 0 18 17" fill="none" xmlns="http://www.w3.org/2000/svg">
<path d="M8.99935 16.6667C4.39685 16.6667 0.666016 12.9358 0.666016 8.33333C0.666016 3.73083 4.39685 0 8.99935 0C13.6018 0 17.3327 3.73083 17.3327 8.33333C17.3327 12.9358 13.6018 16.6667 8.99935 16.6667ZM8.99935 15C10.7675 15 12.4632 14.2976 13.7134 13.0474C14.9636 11.7971 15.666 10.1014 15.666 8.33333C15.666 6.56522 14.9636 4.86953 13.7134 3.61929C12.4632 2.36905 10.7675 1.66667 8.99935 1.66667C7.23124 1.66667 5.53555 2.36905 4.2853 3.61929C3.03506 4.86953 2.33268 6.56522 2.33268 8.33333C2.33268 10.1014 3.03506 11.7971 4.2853 13.0474C5.53555 14.2976 7.23124 15 8.99935 15ZM9.83268 8.33333H13.166V10H8.16602V4.16667H9.83268V8.33333Z" fill="#E64A19"/>
</svg>
