<svg width="17" height="23" viewBox="0 0 17 23" fill="none" xmlns="http://www.w3.org/2000/svg">
<path d="M2.83333 0.5C1.27057 0.5 0 1.7332 0 3.25V19.75C0 21.2668 1.27057 22.5 2.83333 22.5H14.1667C15.7294 22.5 17 21.2668 17 19.75V7.375H11.3333C10.5497 7.375 9.91667 6.76055 9.91667 6V0.5H2.83333ZM11.3333 0.5V6H17L11.3333 0.5ZM3.54167 3.25H6.375C6.76458 3.25 7.08333 3.55938 7.08333 3.9375C7.08333 4.31562 6.76458 4.625 6.375 4.625H3.54167C3.15208 4.625 2.83333 4.31562 2.83333 3.9375C2.83333 3.55938 3.15208 3.25 3.54167 3.25ZM3.54167 6H6.375C6.76458 6 7.08333 6.30937 7.08333 6.6875C7.08333 7.06563 6.76458 7.375 6.375 7.375H3.54167C3.15208 7.375 2.83333 7.06563 2.83333 6.6875C2.83333 6.30937 3.15208 6 3.54167 6ZM5.94115 16.9055C5.67109 17.7777 4.84323 18.375 3.90469 18.375H3.54167C3.15208 18.375 2.83333 18.0656 2.83333 17.6875C2.83333 17.3094 3.15208 17 3.54167 17H3.90469C4.21901 17 4.49349 16.8023 4.58203 16.5102L5.24167 14.3832C5.39219 13.8977 5.8526 13.5625 6.375 13.5625C6.8974 13.5625 7.35781 13.8934 7.50833 14.3832L8.02187 16.0418C8.34948 15.7754 8.76562 15.625 9.20833 15.625C9.91224 15.625 10.5542 16.0117 10.8685 16.6219L11.0633 17H13.4583C13.8479 17 14.1667 17.3094 14.1667 17.6875C14.1667 18.0656 13.8479 18.375 13.4583 18.375H10.625C10.3549 18.375 10.1115 18.2289 9.99193 17.9969L9.60234 17.2363C9.52708 17.0902 9.37656 17 9.21276 17C9.04896 17 8.89401 17.0902 8.82318 17.2363L8.43359 17.9969C8.30521 18.2504 8.0263 18.4008 7.73854 18.375C7.45078 18.3492 7.20286 18.1559 7.12318 17.8895L6.375 15.4961L5.94115 16.9055Z" fill="black"/>
</svg>
