<svg width="21" height="22" viewBox="0 0 21 22" fill="none" xmlns="http://www.w3.org/2000/svg">
<path d="M17.1906 3.63214C16.0255 2.6039 14.1345 2.6039 12.9694 3.63214L4.18305 11.3861C2.1727 13.1603 2.1727 16.0343 4.18305 17.8084C6.19339 19.5826 9.45006 19.5826 11.4604 17.8084L18.7187 11.403C19.2392 10.9436 20.0891 10.9436 20.6096 11.403C21.1301 11.8623 21.1301 12.6124 20.6096 13.0718L13.3514 19.4772C10.2953 22.1743 5.34819 22.1743 2.29208 19.4772C-0.764027 16.7802 -0.764027 12.4144 2.29208 9.71733L11.0784 1.96335C13.2893 0.0122159 16.8707 0.0122159 19.0816 1.96335C21.2925 3.91449 21.2925 7.07508 19.0816 9.02621L10.6773 16.4431C9.31158 17.6483 7.0959 17.6483 5.7302 16.4431C4.3645 15.2378 4.3645 13.2825 5.7302 12.0772L12.6064 6.0089C13.1269 5.54957 13.9769 5.54957 14.4974 6.0089C15.0179 6.46824 15.0179 7.21836 14.4974 7.6777L7.62117 13.746C7.30123 14.0284 7.30123 14.4919 7.62117 14.7743C7.94111 15.0566 8.46637 15.0566 8.78631 14.7743L17.1906 7.35742C18.3557 6.32918 18.3557 4.66039 17.1906 3.63214Z" fill="black"/>
</svg>
