<svg width="17" height="17" viewBox="0 0 17 17" fill="none" xmlns="http://www.w3.org/2000/svg">
<path d="M15.2541 12.5054C14.7082 11.9554 13.3861 11.1528 12.7446 10.8294C11.9093 10.4086 11.8405 10.3743 11.184 10.862C10.746 11.1875 10.4548 11.4783 9.9423 11.369C9.42975 11.2597 8.31597 10.6434 7.34073 9.67132C6.36549 8.69923 5.71338 7.55322 5.60372 7.04243C5.49406 6.53164 5.78969 6.24393 6.11214 5.80498C6.56659 5.18626 6.53221 5.08314 6.14377 4.24786C5.84091 3.5982 5.01486 2.28857 4.46279 1.74547C3.87221 1.16215 3.87221 1.26527 3.49167 1.42339C3.18185 1.55371 2.88463 1.71214 2.60374 1.89671C2.05373 2.26211 1.74847 2.56562 1.535 3.02176C1.32152 3.4779 1.22561 4.54726 2.32805 6.54986C3.43048 8.55246 4.20394 9.57645 5.80482 11.1728C7.4057 12.7691 8.6367 13.6274 10.4363 14.6366C12.6625 15.8833 13.5164 15.6403 13.9739 15.4272C14.4314 15.214 14.7364 14.9116 15.1025 14.3616C15.2875 14.0812 15.4463 13.7843 15.5768 13.4748C15.7353 13.0956 15.8384 13.0956 15.2541 12.5054Z" stroke="#BF360C" stroke-width="1.5" stroke-miterlimit="10"/>
</svg>
