<svg width="14" height="14" viewBox="0 0 14 14" fill="none" xmlns="http://www.w3.org/2000/svg">
<path d="M1.64844 12.3438H2.69844L9.16719 5.875L8.11719 4.825L1.64844 11.2938V12.3438ZM12.3734 4.7875L9.18594 1.6375L10.2359 0.5875C10.5234 0.3 10.8766 0.15625 11.2953 0.15625C11.7141 0.15625 12.0672 0.3 12.3547 0.5875L13.4047 1.6375C13.6922 1.925 13.8422 2.27188 13.8547 2.67813C13.8672 3.08438 13.7297 3.43125 13.4422 3.71875L12.3734 4.7875ZM11.2859 5.89375L3.33594 13.8438H0.148438V10.6562L8.09844 2.70625L11.2859 5.89375ZM8.64219 5.35L8.11719 4.825L9.16719 5.875L8.64219 5.35Z" fill="#BF360C"/>
</svg>
