<svg width="32" height="32" viewBox="0 0 32 32" fill="none" xmlns="http://www.w3.org/2000/svg">
<path d="M0.400391 11.9266V8.24324L8.24372 0.399902H11.9271L0.400391 11.9266ZM0.400391 3.43324V0.399902H3.43372L0.400391 3.43324ZM23.2371 6.33657C22.9482 6.01879 22.6379 5.70852 22.3063 5.40577C21.9746 5.10301 21.6349 4.8355 21.2871 4.60324L25.4904 0.399902H29.1737L23.2371 6.33657ZM4.73372 21.1566L8.07039 17.8199C8.27261 18.1377 8.48235 18.4266 8.69959 18.6866C8.91683 18.9466 9.15488 19.1921 9.41372 19.4232C8.60483 19.6255 7.78901 19.8785 6.96626 20.1824C6.1435 20.4863 5.39932 20.8111 4.73372 21.1566ZM25.5337 12.6199V12.5332C25.5337 11.9843 25.4904 11.4499 25.4037 10.9299C25.3171 10.4099 25.1871 9.90435 25.0137 9.41323L31.6004 2.82657V6.55324L25.5337 12.6199ZM14.0937 3.17324L16.9104 0.399902H20.5937L17.8204 3.17324C17.5026 3.11546 17.1993 3.07212 16.9104 3.04324C16.6215 3.01435 16.3182 2.9999 16.0004 2.9999C15.6826 2.9999 15.3648 3.01435 15.0471 3.04324C14.7293 3.07212 14.4115 3.11546 14.0937 3.17324ZM0.400391 20.5499V16.8666L6.64039 10.6266C6.58261 10.9443 6.53928 11.2621 6.51039 11.5799C6.4815 11.8977 6.46706 12.2155 6.46706 12.5332C6.46706 12.851 6.4815 13.1543 6.51039 13.4432C6.53928 13.7321 6.58261 14.021 6.64039 14.3099L0.400391 20.5499ZM31.1237 24.1466C30.8926 23.7999 30.6257 23.4677 30.3229 23.1499C30.0202 22.8321 29.6949 22.5432 29.3471 22.2832L31.6004 20.0299V23.7132L31.1237 24.1466ZM26.0971 20.5932C25.8948 20.5066 25.6926 20.4268 25.4904 20.354C25.2882 20.2812 25.0859 20.2165 24.8837 20.1599C24.6237 20.0732 24.3712 19.9866 24.1263 19.8999C23.8813 19.8132 23.6282 19.741 23.3671 19.6832L31.6004 11.4066V15.1332L26.0971 20.5932ZM16.0004 19.4666C14.0937 19.4666 12.4615 18.7877 11.1037 17.4299C9.74595 16.0721 9.06706 14.4399 9.06706 12.5332C9.06706 10.6266 9.74595 8.99435 11.1037 7.63657C12.4615 6.27879 14.0937 5.5999 16.0004 5.5999C17.9071 5.5999 19.5393 6.27879 20.8971 7.63657C22.2548 8.99435 22.9337 10.6266 22.9337 12.5332C22.9337 14.4399 22.2548 16.0721 20.8971 17.4299C19.5393 18.7877 17.9071 19.4666 16.0004 19.4666ZM16.0004 15.9999C16.9537 15.9999 17.7701 15.6602 18.4496 14.9807C19.1291 14.3012 19.4682 13.4854 19.4671 12.5332C19.4659 11.5811 19.1267 10.7652 18.4496 10.0858C17.7724 9.4063 16.956 9.06657 16.0004 9.06657C15.0447 9.06657 14.2289 9.4063 13.5529 10.0858C12.8769 10.7652 12.5372 11.5811 12.5337 12.5332C12.5303 13.4854 12.87 14.3018 13.5529 14.9824C14.2359 15.6631 15.0517 16.0022 16.0004 15.9999ZM2.13372 31.5999V28.5232C2.13372 27.541 2.37928 26.631 2.87039 25.7932C3.3615 24.9555 4.04039 24.3199 4.90706 23.8866C6.38039 23.1355 8.04901 22.4999 9.91292 21.9799C11.7768 21.4599 13.806 21.1999 16.0004 21.1999C18.1948 21.1999 20.2245 21.4599 22.0896 21.9799C23.9547 22.4999 25.6227 23.1355 27.0937 23.8866C27.9604 24.3199 28.6393 24.9555 29.1304 25.7932C29.6215 26.631 29.8671 27.541 29.8671 28.5232V31.5999H2.13372ZM5.64372 28.1332H26.3571C26.2993 27.8732 26.1982 27.6496 26.0537 27.4624C25.9093 27.2752 25.7215 27.1233 25.4904 27.0066C24.4504 26.4866 23.129 25.9666 21.5263 25.4466C19.9235 24.9266 18.0815 24.6666 16.0004 24.6666C13.9192 24.6666 12.0779 24.9266 10.4763 25.4466C8.87466 25.9666 7.5527 26.4866 6.51039 27.0066C6.27928 27.1221 6.0915 27.281 5.94706 27.4832C5.80261 27.6855 5.7015 27.9021 5.64372 28.1332Z" fill="#E64A19"/>
</svg>
