<svg width="16" height="17" viewBox="0 0 16 17" fill="none" xmlns="http://www.w3.org/2000/svg">
<path d="M8.95268 16.1188L15.6193 9.45212C15.7407 9.32532 15.8359 9.17579 15.8993 9.01212C16.0327 8.68751 16.0327 8.3234 15.8993 7.99879C15.8359 7.83512 15.7407 7.68559 15.6193 7.55879L8.95268 0.892122C8.82836 0.767804 8.68077 0.66919 8.51834 0.601909C8.35591 0.534629 8.18182 0.5 8.00601 0.5C7.65094 0.5 7.31042 0.64105 7.05934 0.892122C6.80827 1.14319 6.66722 1.48372 6.66722 1.83879C6.66722 2.19386 6.80827 2.53438 7.05934 2.78546L11.4593 7.17212L1.33934 7.17212C0.985722 7.17212 0.646582 7.3126 0.396534 7.56265C0.146485 7.8127 0.00601067 8.15183 0.00601066 8.50546C0.00601064 8.85908 0.146485 9.19822 0.396534 9.44826C0.646582 9.69831 0.985722 9.83879 1.33934 9.83879L11.4593 9.83879L7.05934 14.2255C6.93437 14.3494 6.83518 14.4969 6.76749 14.6594C6.6998 14.8218 6.66494 14.9961 6.66494 15.1721C6.66494 15.3481 6.6998 15.5224 6.76749 15.6849C6.83518 15.8474 6.93437 15.9948 7.05934 16.1188C7.18329 16.2438 7.33076 16.343 7.49324 16.4106C7.65572 16.4783 7.82999 16.5132 8.00601 16.5132C8.18203 16.5132 8.3563 16.4783 8.51878 16.4106C8.68126 16.343 8.82873 16.2438 8.95268 16.1188Z" fill="#E64A19"/>
</svg>
