<svg width="36" height="14" viewBox="0 0 36 14" fill="none" xmlns="http://www.w3.org/2000/svg">
<path d="M35.2471 9.53841L34.9027 11.3102C34.5842 12.9667 33.0092 14.081 31.2261 13.9102L27.6796 13.5729C26.1327 13.4256 24.9866 12.3135 24.5014 10.7338C23.8427 8.58848 23.4181 6.99816 23.4181 6.99816C21.7072 6.27653 19.8628 5.91307 18.0019 5.93083C15.8051 5.93083 14.2365 6.38978 12.5857 6.99816C12.5857 6.99816 12.1437 8.59062 11.5024 10.7338C11.0735 12.164 10.4105 13.4171 8.89613 13.5665L5.36909 13.9166C4.51021 13.9979 3.64909 13.7855 2.93032 13.3152C2.21155 12.8448 1.67888 12.1452 1.42175 11.3337L0.884457 9.56616C0.619402 8.72 0.595831 7.81828 0.816326 6.9598C1.03682 6.10132 1.49288 5.3192 2.13452 4.69913C5.22177 1.74262 10.7788 0.0775863 17.9846 0.066913C25.2033 0.060509 30.1039 1.71701 33.5009 4.67138C34.9308 5.91375 35.5873 7.78371 35.2471 9.53841Z" fill="#E64A19"/>
</svg>
