<svg width="20" height="20" viewBox="0 0 20 20" fill="none" xmlns="http://www.w3.org/2000/svg">
<path d="M10.8806 0.989298L6.0587 6.03102L1.25706 11.1683C0.878918 11.566 0.666668 12.1041 0.666668 12.6649C0.666668 13.2257 0.878918 13.7637 1.25706 14.1615L5.62219 18.7256C5.81127 18.9216 6.06648 19.0322 6.33279 19.0334H18.5145V16.9105H11.4085L18.7379 9.24711C18.9266 9.04996 19.0764 8.81583 19.1786 8.55813C19.2807 8.30042 19.3333 8.02418 19.3333 7.74521C19.3333 7.46624 19.2807 7.19 19.1786 6.93229C19.0764 6.67458 18.9266 6.44046 18.7379 6.24331L13.7535 0.989298C13.565 0.791924 13.341 0.635346 13.0946 0.528516C12.8481 0.421686 12.5839 0.366699 12.3171 0.366699C12.0503 0.366699 11.7861 0.421686 11.5396 0.528516C11.2931 0.635346 11.0692 0.791924 10.8806 0.989298ZM6.749 16.9105L2.68842 12.6649L7.51036 7.52762L8.26157 6.73156L13.2865 11.9856L8.65748 16.8256L8.58642 16.9105H6.749Z" fill="#E64A19"/>
</svg>
