<svg width="16" height="20" viewBox="0 0 16 20" fill="none" xmlns="http://www.w3.org/2000/svg">
<path fill-rule="evenodd" clip-rule="evenodd" d="M6.90759 2.79272C6.97736 1.76591 7.84118 0.966309 8.88105 0.966309C9.94266 0.966309 10.7557 1.78802 10.8204 2.79707C11.0587 2.72029 11.2874 2.69176 11.4692 2.69176C12.5761 2.69176 13.4127 3.58501 13.4127 4.65251V5.38236C13.6488 5.30755 13.8755 5.27993 14.0574 5.27993C15.1643 5.27993 16.0009 6.17318 16.0009 7.24068V13.7111C16.0009 14.0793 15.7024 14.3778 15.3342 14.3778C14.966 14.3778 14.6676 14.0793 14.6676 13.7111V7.24068C14.6676 6.87952 14.3982 6.61326 14.0574 6.61326C13.9363 6.61326 13.7537 6.65312 13.621 6.7479C13.5226 6.81818 13.4127 6.94059 13.4127 7.24068V9.39749C13.4127 9.76568 13.1142 10.0642 12.746 10.0642C12.3779 10.0642 12.0794 9.76568 12.0794 9.39749V4.65251C12.0794 4.29134 11.81 4.02509 11.4692 4.02509C11.3554 4.02509 11.1715 4.06417 11.0357 4.16067C10.9343 4.2327 10.8245 4.35581 10.8245 4.65251V9.39749C10.8245 9.76568 10.5261 10.0642 10.1579 10.0642C9.78969 10.0642 9.49121 9.76568 9.49121 9.39749V2.92706C9.49121 2.56589 9.22184 2.29964 8.88105 2.29964C8.51647 2.29964 8.23637 2.58894 8.23637 2.92706V9.39749C8.23637 9.76568 7.93789 10.0642 7.5697 10.0642C7.20151 10.0642 6.90304 9.76568 6.90304 9.39749V4.65251C6.90304 4.35032 6.79279 4.22732 6.69643 4.15775C6.56618 4.0637 6.38857 4.02509 6.27562 4.02509C5.9337 4.02509 5.6482 4.308 5.6482 4.66976V11.9857C5.6482 12.3539 5.34972 12.6523 4.98153 12.6523C4.61334 12.6523 4.31487 12.3539 4.31487 11.9857V4.66976C4.31487 3.60113 5.16816 2.69176 6.27562 2.69176C6.45394 2.69176 6.67604 2.71918 6.90759 2.79272Z" fill="#E64A19"/>
<path fill-rule="evenodd" clip-rule="evenodd" d="M2.29466 10.0968C2.14475 10.0513 1.98448 10.0529 1.83549 10.1013C1.37836 10.2494 1.20996 10.7467 1.43644 11.1134L1.44013 11.1194L2.79621 13.3681C4.09465 15.5322 4.96863 16.714 5.87459 17.3797C6.73397 18.0112 7.68474 18.2208 9.29544 18.2208C10.8572 18.2208 12.2079 17.8159 13.1526 17.0701C14.0776 16.3399 14.6678 15.2425 14.6678 13.7111C14.6678 13.3429 14.9663 13.0445 15.3345 13.0445C15.7027 13.0445 16.0012 13.3429 16.0012 13.7111C16.0012 15.6306 15.2395 17.1214 13.9788 18.1166C12.7378 19.0963 11.0689 19.5541 9.29544 19.5541C7.57084 19.5541 6.28026 19.3324 5.08506 18.4541C3.93656 17.6102 2.94283 16.204 1.65329 14.0548C1.65316 14.0546 1.65343 14.055 1.65329 14.0548L0.299968 11.8107C-0.395213 10.6804 0.17731 9.23715 1.42345 8.83328C1.83184 8.70052 2.27113 8.69624 2.68204 8.821C3.08791 8.94423 3.44678 9.18751 3.7115 9.51859L5.48686 11.579C5.7272 11.8579 5.69592 12.2788 5.41699 12.5192C5.13807 12.7595 4.71712 12.7282 4.47677 12.4493L2.69266 10.3788C2.68621 10.3713 2.67992 10.3637 2.6738 10.3559C2.57691 10.2328 2.44458 10.1423 2.29466 10.0968Z" fill="#E64A19"/>
</svg>
