<svg width="24" height="34" viewBox="0 0 24 34" fill="none" xmlns="http://www.w3.org/2000/svg">
<path d="M12.0001 21.1999C14.8774 21.1999 17.2001 18.8772 17.2001 15.9999V5.5999C17.2001 2.72257 14.8774 0.399902 12.0001 0.399902C9.12277 0.399902 6.80011 2.72257 6.80011 5.5999V15.9999C6.80011 18.8772 9.12277 21.1999 12.0001 21.1999ZM22.2441 15.9999C21.3948 15.9999 20.6841 16.6239 20.5454 17.4732C19.8348 21.5466 16.2814 24.6666 12.0001 24.6666C7.71877 24.6666 4.16544 21.5466 3.45477 17.4732C3.39298 17.0658 3.18806 16.6938 2.87676 16.4237C2.56547 16.1538 2.16816 16.0035 1.75611 15.9999C0.698774 15.9999 -0.133227 16.9359 0.0227735 17.9759C0.872107 23.1759 5.03211 27.2492 10.2668 27.9946V31.5999C10.2668 32.5532 11.0468 33.3332 12.0001 33.3332C12.9534 33.3332 13.7334 32.5532 13.7334 31.5999V27.9946C16.2844 27.6309 18.653 26.4635 20.4952 24.6619C22.3374 22.8602 23.5572 20.5181 23.9774 17.9759C24.1508 16.9359 23.3014 15.9999 22.2441 15.9999Z" fill="#E64A19"/>
</svg>
