<svg width="24" height="27" viewBox="0 0 24 27" fill="none" xmlns="http://www.w3.org/2000/svg">
<path d="M4.49979 26.2588L6.91326 24.65L8.86326 21.2725L14.4306 24.4868C14.7259 24.6573 15.0776 24.7022 15.4083 24.6116C15.739 24.5211 16.0216 24.3024 16.194 24.0038L17.2249 22.2183C17.5668 21.6261 17.6639 20.9076 17.4915 20.2496L16.8362 17.7487L19.1671 13.7115C19.4624 13.882 19.8141 13.9269 20.1448 13.8363C20.4755 13.7457 20.7582 13.5271 20.9306 13.2285L22.8806 9.851C23.5975 8.6092 23.1818 7.02269 21.9536 6.31362L13.046 1.17076C11.8178 0.461687 10.236 0.894917 9.51903 2.13671L7.56903 5.51421C7.39664 5.8128 7.34862 6.16689 7.43553 6.49858C7.52245 6.83028 7.73718 7.1124 8.03249 7.2829L5.70159 11.3201L3.20806 12.0031C2.54666 12.1841 1.98135 12.6212 1.63647 13.2183L0.605567 15.0038C0.433176 15.3024 0.385156 15.6565 0.472072 15.9882C0.558988 16.3199 0.773719 16.602 1.06903 16.7725L6.63633 19.9868L4.68633 23.3643L4.49979 26.2588ZM11.746 3.42242L20.6536 8.56528L19.3536 10.8169L10.446 5.67409L11.746 3.42242ZM3.86339 14.504L6.87362 13.6796C7.20432 13.589 7.48697 13.3705 7.65941 13.0719L10.2594 8.56861L16.9402 12.4258L14.3402 16.9291C14.1673 17.2286 14.1191 17.582 14.2069 17.9134L14.998 20.9326L14.6171 21.5923L3.48249 15.1637L3.86339 14.504Z" fill="white"/>
</svg>
