<svg width="18" height="19" viewBox="0 0 18 19" fill="none" xmlns="http://www.w3.org/2000/svg">
<path d="M17.5937 5.07903L13.7214 1.20605C13.5927 1.07725 13.4398 0.975088 13.2715 0.905385C13.1033 0.835681 12.9229 0.799805 12.7408 0.799805C12.5587 0.799805 12.3783 0.835681 12.21 0.905385C12.0418 0.975088 11.8889 1.07725 11.7601 1.20605L1.07315 11.8934C0.94382 12.0217 0.841287 12.1744 0.771507 12.3426C0.701727 12.5109 0.666093 12.6914 0.666675 12.8735V16.7465C0.666675 17.1143 0.812771 17.467 1.07282 17.727C1.33288 17.987 1.68559 18.1331 2.05336 18.1331H5.92654C6.1087 18.1337 6.28917 18.0981 6.45745 18.0283C6.62572 17.9585 6.77845 17.856 6.90675 17.7267L17.5937 7.04022C17.7225 6.91146 17.8247 6.75859 17.8944 6.59033C17.9641 6.42208 18 6.24175 18 6.05963C18 5.87751 17.9641 5.69717 17.8944 5.52892C17.8247 5.36067 17.7225 5.20779 17.5937 5.07903ZM2.34023 12.5867L10.1707 4.75664L11.6163 6.20305L3.78671 14.0322L2.34023 12.5867ZM2.05336 14.2601L4.53985 16.7465H2.05336V14.2601ZM6.21341 16.4597L4.76692 15.0133L12.5973 7.18322L14.043 8.62963L6.21341 16.4597Z" fill="#E64A19"/>
</svg>
