<svg width="28" height="29" viewBox="0 0 28 29" fill="none" xmlns="http://www.w3.org/2000/svg">
<path d="M14 0.290039C15.8565 0.290039 17.637 1.02754 18.9497 2.34029C20.2625 3.65305 21 5.43352 21 7.29004C21 9.14655 20.2625 10.927 18.9497 12.2398C17.637 13.5525 15.8565 14.29 14 14.29C12.1435 14.29 10.363 13.5525 9.05025 12.2398C7.7375 10.927 7 9.14655 7 7.29004C7 5.43352 7.7375 3.65305 9.05025 2.34029C10.363 1.02754 12.1435 0.290039 14 0.290039ZM14 17.79C21.735 17.79 28 20.9225 28 24.79V28.29H0V24.79C0 20.9225 6.265 17.79 14 17.79Z" fill="#E64A19"/>
</svg>
