<svg width="31" height="32" viewBox="0 0 31 32" fill="none" xmlns="http://www.w3.org/2000/svg">
<path d="M30 5.18478C30.5523 5.18478 31 5.63249 31 6.18478V7.44793C31 8.00022 30.5523 8.44793 30 8.44793H26.1053V12.3427C26.1053 12.895 25.6575 13.3427 25.1053 13.3427H23.8421C23.2898 13.3427 22.8421 12.895 22.8421 12.3427V8.44793H18.9474C18.3951 8.44793 17.9474 8.00022 17.9474 7.44793V6.18477C17.9474 5.63249 18.3951 5.18478 18.9474 5.18478H22.8421V1.29004C22.8421 0.737755 23.2898 0.290039 23.8421 0.290039H25.1053C25.6575 0.290039 26.1053 0.737754 26.1053 1.29004V5.18478H30ZM17.1316 16.6058C17.7809 16.6056 18.4035 16.3475 18.8625 15.8882C19.3214 15.4289 19.5792 14.8061 19.5789 14.1568C19.5787 13.5075 19.3206 12.8849 18.8613 12.4259C18.402 11.967 17.7792 11.7092 17.1299 11.7095C16.8084 11.7096 16.4901 11.773 16.1931 11.8961C15.8961 12.0193 15.6263 12.1997 15.3991 12.4271C15.1718 12.6545 14.9916 12.9244 14.8686 13.2215C14.7457 13.5186 14.6825 13.837 14.6826 14.1585C14.6827 14.48 14.7461 14.7983 14.8692 15.0953C14.9924 15.3923 15.1728 15.6621 15.4002 15.8893C15.6276 16.1166 15.8976 16.2969 16.1946 16.4198C16.4917 16.5427 16.8101 16.6059 17.1316 16.6058ZM22.8421 21.8824L22.0051 20.9524C21.6991 20.6116 21.3247 20.3391 20.9065 20.1525C20.4882 19.966 20.0353 19.8696 19.5773 19.8696C19.1193 19.8696 18.6664 19.966 18.2482 20.1525C17.8299 20.3391 17.4556 20.6116 17.1495 20.9524L16.0792 22.145L8.15789 13.3427L3.26316 18.7807V8.44793H13.6842C14.2365 8.44793 14.6842 8.00022 14.6842 7.44793V6.18477C14.6842 5.63249 14.2365 5.18478 13.6842 5.18478H3.26316C2.39771 5.18478 1.56772 5.52857 0.955757 6.14053C0.343796 6.75249 0 7.58249 0 8.44793V28.0269C0 28.8923 0.343796 29.7223 0.955757 30.3343C1.56772 30.9462 2.39771 31.29 3.26316 31.29H22.8421C23.7075 31.29 24.5375 30.9462 25.1495 30.3343C25.7615 29.7223 26.1053 28.8923 26.1053 28.0269V17.6058C26.1053 17.0535 25.6575 16.6058 25.1053 16.6058H23.8421C23.2898 16.6058 22.8421 17.0535 22.8421 17.6058V21.8824Z" fill="#E64A19"/>
</svg>
