<svg width="40" height="41" viewBox="0 0 40 41" fill="none" xmlns="http://www.w3.org/2000/svg">
<path opacity="0.39" d="M1.05263 25.5532C0.77193 25.5532 0.526316 25.4479 0.31579 25.2374C0.105263 25.0269 0 24.7813 0 24.5006C0 24.2199 0.105263 23.9742 0.31579 23.7637C0.526316 23.5532 0.77193 23.4479 1.05263 23.4479C1.33333 23.4479 1.57895 23.5532 1.78947 23.7637C2 23.9742 2.10526 24.2199 2.10526 24.5006C2.10526 24.7813 2 25.0269 1.78947 25.2374C1.57895 25.4479 1.33333 25.5532 1.05263 25.5532ZM1.05263 17.1321C0.77193 17.1321 0.526316 17.0269 0.31579 16.8164C0.105263 16.6058 0 16.3602 0 16.0795C0 15.7988 0.105263 15.5532 0.31579 15.3427C0.526316 15.1321 0.77193 15.0269 1.05263 15.0269C1.33333 15.0269 1.57895 15.1321 1.78947 15.3427C2 15.5532 2.10526 15.7988 2.10526 16.0795C2.10526 16.3602 2 16.6058 1.78947 16.8164C1.57895 17.0269 1.33333 17.1321 1.05263 17.1321ZM7.36842 34.7027C6.86316 34.7027 6.44 34.5321 6.09895 34.1911C5.75789 33.8486 5.58737 33.4255 5.58737 32.9216C5.58737 32.4178 5.75789 31.9946 6.09895 31.6521C6.4414 31.3111 6.86456 31.1406 7.36842 31.1406C7.87228 31.1406 8.29544 31.3111 8.6379 31.6521C8.98035 31.9932 9.15088 32.4164 9.14947 32.9216C9.14807 33.4269 8.97754 33.85 8.6379 34.1911C8.29544 34.5321 7.87228 34.7027 7.36842 34.7027ZM7.36842 26.2816C6.86316 26.2816 6.44 26.1111 6.09895 25.77C5.75789 25.429 5.58737 25.0058 5.58737 24.5006C5.58737 23.9953 5.75789 23.5721 6.09895 23.2311C6.44 22.89 6.86316 22.7195 7.36842 22.7195C7.87368 22.7195 8.29684 22.89 8.6379 23.2311C8.97895 23.5721 9.14947 23.9953 9.14947 24.5006C9.14947 25.0058 8.97895 25.429 8.6379 25.77C8.29544 26.1111 7.87228 26.2816 7.36842 26.2816ZM7.36842 17.8606C6.86316 17.8606 6.44 17.69 6.09895 17.349C5.75789 17.0079 5.58737 16.5848 5.58737 16.0795C5.58737 15.5743 5.75789 15.1511 6.09895 14.81C6.44 14.469 6.86316 14.2985 7.36842 14.2985C7.87368 14.2985 8.29684 14.469 8.6379 14.81C8.97895 15.1511 9.14947 15.5743 9.14947 16.0795C9.14947 16.5848 8.97895 17.0079 8.6379 17.349C8.29544 17.69 7.87228 17.8606 7.36842 17.8606ZM7.36842 9.43951C6.86316 9.43951 6.44 9.26899 6.09895 8.92793C5.75789 8.58688 5.58737 8.16372 5.58737 7.65846C5.58737 7.1532 5.75789 6.73004 6.09895 6.38899C6.44 6.04793 6.86316 5.87741 7.36842 5.87741C7.87368 5.87741 8.29684 6.04793 8.6379 6.38899C8.97895 6.73004 9.14947 7.1532 9.14947 7.65846C9.14947 8.16372 8.97895 8.58688 8.6379 8.92793C8.29544 9.26899 7.87228 9.43951 7.36842 9.43951ZM15.8 27.01C15.1039 27.01 14.5102 26.7672 14.0189 26.2816C13.5263 25.796 13.28 25.2058 13.28 24.5111C13.28 23.8164 13.5228 23.2227 14.0084 22.73C14.494 22.2374 15.0842 21.9911 15.7789 21.9911C16.4737 21.9911 17.0674 22.2339 17.56 22.7195C18.0526 23.2051 18.2989 23.7953 18.2989 24.49C18.2989 25.1848 18.0561 25.7785 17.5705 26.2711C17.0849 26.7637 16.4947 27.01 15.8 27.01ZM15.8 18.589C15.1039 18.589 14.5102 18.3462 14.0189 17.8606C13.5263 17.375 13.28 16.7848 13.28 16.09C13.28 15.3953 13.5228 14.8016 14.0084 14.309C14.494 13.8164 15.0842 13.57 15.7789 13.57C16.4737 13.57 17.0674 13.8128 17.56 14.2985C18.0526 14.7841 18.2989 15.3742 18.2989 16.069C18.2989 16.7637 18.0561 17.3574 17.5705 17.85C17.0849 18.3427 16.4947 18.589 15.8 18.589ZM15.7895 34.7027C15.2842 34.7027 14.8611 34.5321 14.52 34.1911C14.1789 33.8486 14.0084 33.4255 14.0084 32.9216C14.0084 32.4178 14.1789 31.9946 14.52 31.6521C14.8625 31.3111 15.2856 31.1406 15.7895 31.1406C16.2933 31.1406 16.7165 31.3111 17.0589 31.6521C17.4014 31.9932 17.5719 32.4164 17.5705 32.9216C17.5691 33.4269 17.3986 33.85 17.0589 34.1911C16.7165 34.5321 16.2933 34.7027 15.7895 34.7027ZM15.7895 9.43951C15.2842 9.43951 14.8611 9.26899 14.52 8.92793C14.1789 8.58688 14.0084 8.16372 14.0084 7.65846C14.0084 7.1532 14.1789 6.73004 14.52 6.38899C14.8611 6.04793 15.2842 5.87741 15.7895 5.87741C16.2947 5.87741 16.7179 6.04793 17.0589 6.38899C17.4 6.73004 17.5705 7.1532 17.5705 7.65846C17.5705 8.16372 17.4 8.58688 17.0589 8.92793C16.7179 9.26899 16.2947 9.43951 15.7895 9.43951ZM15.7895 40.29C15.5088 40.29 15.2632 40.1848 15.0526 39.9743C14.8421 39.7637 14.7368 39.5181 14.7368 39.2374C14.7368 38.9567 14.8421 38.7111 15.0526 38.5006C15.2632 38.29 15.5088 38.1848 15.7895 38.1848C16.0702 38.1848 16.3158 38.29 16.5263 38.5006C16.7368 38.7111 16.8421 38.9567 16.8421 39.2374C16.8421 39.5181 16.7368 39.7637 16.5263 39.9743C16.3158 40.1848 16.0702 40.29 15.7895 40.29ZM15.7895 2.3953C15.5088 2.3953 15.2632 2.29004 15.0526 2.07951C14.8421 1.86899 14.7368 1.62337 14.7368 1.34267C14.7368 1.06197 14.8421 0.816355 15.0526 0.605829C15.2632 0.395302 15.5088 0.290039 15.7895 0.290039C16.0702 0.290039 16.3158 0.395302 16.5263 0.605829C16.7368 0.816355 16.8421 1.06197 16.8421 1.34267C16.8421 1.62337 16.7368 1.86899 16.5263 2.07951C16.3158 2.29004 16.0702 2.3953 15.7895 2.3953ZM24.2211 27.01C23.5249 27.01 22.9312 26.7672 22.44 26.2816C21.9474 25.796 21.7011 25.2058 21.7011 24.5111C21.7011 23.8164 21.9439 23.2227 22.4295 22.73C22.9151 22.2374 23.5053 21.9911 24.2 21.9911C24.8947 21.9911 25.4884 22.2339 25.9811 22.7195C26.4737 23.2051 26.72 23.7953 26.72 24.49C26.72 25.1848 26.4772 25.7785 25.9916 26.2711C25.506 26.7637 24.9158 27.01 24.2211 27.01ZM24.2211 18.589C23.5249 18.589 22.9312 18.3462 22.44 17.8606C21.9474 17.375 21.7011 16.7848 21.7011 16.09C21.7011 15.3953 21.9439 14.8016 22.4295 14.309C22.9151 13.8164 23.5053 13.57 24.2 13.57C24.8947 13.57 25.4884 13.8128 25.9811 14.2985C26.4737 14.7841 26.72 15.3742 26.72 16.069C26.72 16.7637 26.4772 17.3574 25.9916 17.85C25.506 18.3427 24.9158 18.589 24.2211 18.589ZM24.2105 34.7027C23.7053 34.7027 23.2821 34.5321 22.9411 34.1911C22.6 33.8486 22.4295 33.4255 22.4295 32.9216C22.4295 32.4178 22.6 31.9946 22.9411 31.6521C23.2835 31.3111 23.7067 31.1406 24.2105 31.1406C24.7144 31.1406 25.1375 31.3111 25.48 31.6521C25.8225 31.9932 25.993 32.4164 25.9916 32.9216C25.9902 33.4269 25.8196 33.85 25.48 34.1911C25.1375 34.5321 24.7144 34.7027 24.2105 34.7027ZM24.2105 9.43951C23.7053 9.43951 23.2821 9.26899 22.9411 8.92793C22.6 8.58688 22.4295 8.16372 22.4295 7.65846C22.4295 7.1532 22.6 6.73004 22.9411 6.38899C23.2821 6.04793 23.7053 5.87741 24.2105 5.87741C24.7158 5.87741 25.1389 6.04793 25.48 6.38899C25.8211 6.73004 25.9916 7.1532 25.9916 7.65846C25.9916 8.16372 25.8211 8.58688 25.48 8.92793C25.1389 9.26899 24.7158 9.43951 24.2105 9.43951ZM24.2105 40.29C23.9298 40.29 23.6842 40.1848 23.4737 39.9743C23.2632 39.7637 23.1579 39.5181 23.1579 39.2374C23.1579 38.9567 23.2632 38.7111 23.4737 38.5006C23.6842 38.29 23.9298 38.1848 24.2105 38.1848C24.4912 38.1848 24.7368 38.29 24.9474 38.5006C25.1579 38.7111 25.2632 38.9567 25.2632 39.2374C25.2632 39.5181 25.1579 39.7637 24.9474 39.9743C24.7368 40.1848 24.4912 40.29 24.2105 40.29ZM24.2105 2.3953C23.9298 2.3953 23.6842 2.29004 23.4737 2.07951C23.2632 1.86899 23.1579 1.62337 23.1579 1.34267C23.1579 1.06197 23.2632 0.816355 23.4737 0.605829C23.6842 0.395302 23.9298 0.290039 24.2105 0.290039C24.4912 0.290039 24.7368 0.395302 24.9474 0.605829C25.1579 0.816355 25.2632 1.06197 25.2632 1.34267C25.2632 1.62337 25.1579 1.86899 24.9474 2.07951C24.7368 2.29004 24.4912 2.3953 24.2105 2.3953ZM32.6316 34.7027C32.1263 34.7027 31.7032 34.5321 31.3621 34.1911C31.0211 33.8486 30.8505 33.4255 30.8505 32.9216C30.8505 32.4178 31.0211 31.9946 31.3621 31.6521C31.7046 31.3111 32.1277 31.1406 32.6316 31.1406C33.1354 31.1406 33.5586 31.3111 33.9011 31.6521C34.2421 31.9946 34.4126 32.4178 34.4126 32.9216C34.4126 33.4255 34.2421 33.8486 33.9011 34.1911C33.5586 34.5321 33.1354 34.7027 32.6316 34.7027ZM32.6316 26.2816C32.1263 26.2816 31.7032 26.1111 31.3621 25.77C31.0211 25.429 30.8505 25.0058 30.8505 24.5006C30.8505 23.9953 31.0211 23.5721 31.3621 23.2311C31.7032 22.89 32.1263 22.7195 32.6316 22.7195C33.1368 22.7195 33.56 22.89 33.9011 23.2311C34.2421 23.5721 34.4126 23.9953 34.4126 24.5006C34.4126 25.0058 34.2421 25.429 33.9011 25.77C33.56 26.1111 33.1368 26.2816 32.6316 26.2816ZM32.6316 17.8606C32.1263 17.8606 31.7032 17.69 31.3621 17.349C31.0211 17.0079 30.8505 16.5848 30.8505 16.0795C30.8505 15.5743 31.0211 15.1511 31.3621 14.81C31.7032 14.469 32.1263 14.2985 32.6316 14.2985C33.1368 14.2985 33.56 14.469 33.9011 14.81C34.2421 15.1511 34.4126 15.5743 34.4126 16.0795C34.4126 16.5848 34.2421 17.0079 33.9011 17.349C33.56 17.69 33.1368 17.8606 32.6316 17.8606ZM32.6316 9.43951C32.1263 9.43951 31.7032 9.26899 31.3621 8.92793C31.0211 8.58688 30.8505 8.16372 30.8505 7.65846C30.8505 7.1532 31.0211 6.73004 31.3621 6.38899C31.7032 6.04793 32.1263 5.87741 32.6316 5.87741C33.1368 5.87741 33.56 6.04793 33.9011 6.38899C34.2421 6.73004 34.4126 7.1532 34.4126 7.65846C34.4126 8.16372 34.2421 8.58688 33.9011 8.92793C33.56 9.26899 33.1368 9.43951 32.6316 9.43951ZM38.9474 25.5532C38.6667 25.5532 38.4211 25.4479 38.2105 25.2374C38 25.0269 37.8947 24.7813 37.8947 24.5006C37.8947 24.2199 38 23.9742 38.2105 23.7637C38.4211 23.5532 38.6667 23.4479 38.9474 23.4479C39.2281 23.4479 39.4737 23.5532 39.6842 23.7637C39.8947 23.9742 40 24.2199 40 24.5006C40 24.7813 39.8947 25.0269 39.6842 25.2374C39.4737 25.4479 39.2281 25.5532 38.9474 25.5532ZM38.9474 17.1321C38.6667 17.1321 38.4211 17.0269 38.2105 16.8164C38 16.6058 37.8947 16.3602 37.8947 16.0795C37.8947 15.7988 38 15.5532 38.2105 15.3427C38.4211 15.1321 38.6667 15.0269 38.9474 15.0269C39.2281 15.0269 39.4737 15.1321 39.6842 15.3427C39.8947 15.5532 40 15.7988 40 16.0795C40 16.3602 39.8947 16.6058 39.6842 16.8164C39.4737 17.0269 39.2281 17.1321 38.9474 17.1321Z" fill="#FFCDD2"/>
</svg>
