<svg width="48" height="49" viewBox="0 0 48 49" fill="none" xmlns="http://www.w3.org/2000/svg">
<path d="M8.8421 26.8164C7.45263 26.8164 6.31579 27.9532 6.31579 29.3427C6.31579 30.7321 7.45263 31.869 8.8421 31.869C10.2316 31.869 11.3684 30.7321 11.3684 29.3427C11.3684 27.9532 10.2316 26.8164 8.8421 26.8164ZM8.8421 36.9216C7.45263 36.9216 6.31579 38.0585 6.31579 39.4479C6.31579 40.8374 7.45263 41.9742 8.8421 41.9742C10.2316 41.9742 11.3684 40.8374 11.3684 39.4479C11.3684 38.0585 10.2316 36.9216 8.8421 36.9216ZM8.8421 16.7111C7.45263 16.7111 6.31579 17.8479 6.31579 19.2374C6.31579 20.6269 7.45263 21.7637 8.8421 21.7637C10.2316 21.7637 11.3684 20.6269 11.3684 19.2374C11.3684 17.8479 10.2316 16.7111 8.8421 16.7111ZM1.26316 17.9742C0.555789 17.9742 0 18.53 0 19.2374C0 19.9448 0.555789 20.5006 1.26316 20.5006C1.97053 20.5006 2.52632 19.9448 2.52632 19.2374C2.52632 18.53 1.97053 17.9742 1.26316 17.9742ZM8.8421 6.60583C7.45263 6.60583 6.31579 7.74267 6.31579 9.13214C6.31579 10.5216 7.45263 11.6585 8.8421 11.6585C10.2316 11.6585 11.3684 10.5216 11.3684 9.13214C11.3684 7.74267 10.2316 6.60583 8.8421 6.60583ZM46.7368 20.5006C47.4442 20.5006 48 19.9448 48 19.2374C48 18.53 47.4442 17.9742 46.7368 17.9742C46.0295 17.9742 45.4737 18.53 45.4737 19.2374C45.4737 19.9448 46.0295 20.5006 46.7368 20.5006ZM29.0526 11.6585C30.4421 11.6585 31.5789 10.5216 31.5789 9.13214C31.5789 7.74267 30.4421 6.60583 29.0526 6.60583C27.6632 6.60583 26.5263 7.74267 26.5263 9.13214C26.5263 10.5216 27.6632 11.6585 29.0526 11.6585ZM29.0526 2.81635C29.76 2.81635 30.3158 2.26057 30.3158 1.5532C30.3158 0.845829 29.76 0.290039 29.0526 0.290039C28.3453 0.290039 27.7895 0.845829 27.7895 1.5532C27.7895 2.26057 28.3453 2.81635 29.0526 2.81635ZM1.26316 28.0795C0.555789 28.0795 0 28.6353 0 29.3427C0 30.05 0.555789 30.6058 1.26316 30.6058C1.97053 30.6058 2.52632 30.05 2.52632 29.3427C2.52632 28.6353 1.97053 28.0795 1.26316 28.0795ZM18.9474 45.7637C18.24 45.7637 17.6842 46.3195 17.6842 47.0269C17.6842 47.7342 18.24 48.29 18.9474 48.29C19.6547 48.29 20.2105 47.7342 20.2105 47.0269C20.2105 46.3195 19.6547 45.7637 18.9474 45.7637ZM18.9474 2.81635C19.6547 2.81635 20.2105 2.26057 20.2105 1.5532C20.2105 0.845829 19.6547 0.290039 18.9474 0.290039C18.24 0.290039 17.6842 0.845829 17.6842 1.5532C17.6842 2.26057 18.24 2.81635 18.9474 2.81635ZM18.9474 11.6585C20.3368 11.6585 21.4737 10.5216 21.4737 9.13214C21.4737 7.74267 20.3368 6.60583 18.9474 6.60583C17.5579 6.60583 16.4211 7.74267 16.4211 9.13214C16.4211 10.5216 17.5579 11.6585 18.9474 11.6585ZM18.9474 25.5532C16.8505 25.5532 15.1579 27.2458 15.1579 29.3427C15.1579 31.4395 16.8505 33.1321 18.9474 33.1321C21.0442 33.1321 22.7368 31.4395 22.7368 29.3427C22.7368 27.2458 21.0442 25.5532 18.9474 25.5532ZM39.1579 26.8164C37.7684 26.8164 36.6316 27.9532 36.6316 29.3427C36.6316 30.7321 37.7684 31.869 39.1579 31.869C40.5474 31.869 41.6842 30.7321 41.6842 29.3427C41.6842 27.9532 40.5474 26.8164 39.1579 26.8164ZM39.1579 36.9216C37.7684 36.9216 36.6316 38.0585 36.6316 39.4479C36.6316 40.8374 37.7684 41.9742 39.1579 41.9742C40.5474 41.9742 41.6842 40.8374 41.6842 39.4479C41.6842 38.0585 40.5474 36.9216 39.1579 36.9216ZM39.1579 16.7111C37.7684 16.7111 36.6316 17.8479 36.6316 19.2374C36.6316 20.6269 37.7684 21.7637 39.1579 21.7637C40.5474 21.7637 41.6842 20.6269 41.6842 19.2374C41.6842 17.8479 40.5474 16.7111 39.1579 16.7111ZM39.1579 6.60583C37.7684 6.60583 36.6316 7.74267 36.6316 9.13214C36.6316 10.5216 37.7684 11.6585 39.1579 11.6585C40.5474 11.6585 41.6842 10.5216 41.6842 9.13214C41.6842 7.74267 40.5474 6.60583 39.1579 6.60583ZM46.7368 28.0795C46.0295 28.0795 45.4737 28.6353 45.4737 29.3427C45.4737 30.05 46.0295 30.6058 46.7368 30.6058C47.4442 30.6058 48 30.05 48 29.3427C48 28.6353 47.4442 28.0795 46.7368 28.0795ZM29.0526 36.9216C27.6632 36.9216 26.5263 38.0585 26.5263 39.4479C26.5263 40.8374 27.6632 41.9742 29.0526 41.9742C30.4421 41.9742 31.5789 40.8374 31.5789 39.4479C31.5789 38.0585 30.4421 36.9216 29.0526 36.9216ZM29.0526 45.7637C28.3453 45.7637 27.7895 46.3195 27.7895 47.0269C27.7895 47.7342 28.3453 48.29 29.0526 48.29C29.76 48.29 30.3158 47.7342 30.3158 47.0269C30.3158 46.3195 29.76 45.7637 29.0526 45.7637ZM18.9474 15.4479C16.8505 15.4479 15.1579 17.1406 15.1579 19.2374C15.1579 21.3342 16.8505 23.0269 18.9474 23.0269C21.0442 23.0269 22.7368 21.3342 22.7368 19.2374C22.7368 17.1406 21.0442 15.4479 18.9474 15.4479ZM18.9474 36.9216C17.5579 36.9216 16.4211 38.0585 16.4211 39.4479C16.4211 40.8374 17.5579 41.9742 18.9474 41.9742C20.3368 41.9742 21.4737 40.8374 21.4737 39.4479C21.4737 38.0585 20.3368 36.9216 18.9474 36.9216ZM29.0526 25.5532C26.9558 25.5532 25.2632 27.2458 25.2632 29.3427C25.2632 31.4395 26.9558 33.1321 29.0526 33.1321C31.1495 33.1321 32.8421 31.4395 32.8421 29.3427C32.8421 27.2458 31.1495 25.5532 29.0526 25.5532ZM29.0526 15.4479C26.9558 15.4479 25.2632 17.1406 25.2632 19.2374C25.2632 21.3342 26.9558 23.0269 29.0526 23.0269C31.1495 23.0269 32.8421 21.3342 32.8421 19.2374C32.8421 17.1406 31.1495 15.4479 29.0526 15.4479Z" fill="#E57373"/>
</svg>
