<svg width="18" height="18" viewBox="0 0 18 18" fill="none" xmlns="http://www.w3.org/2000/svg">
<path d="M10.8 11.7C11.055 11.7 11.2764 11.6064 11.4642 11.4192C11.652 11.232 11.7456 11.0106 11.745 10.755C11.7444 10.4994 11.6508 10.2783 11.4642 10.0917C11.2776 9.9051 11.0562 9.8112 10.8 9.81C10.5438 9.8088 10.3227 9.9027 10.1367 10.0917C9.9507 10.2807 9.8568 10.5018 9.855 10.755C9.8532 11.0082 9.9471 11.2296 10.1367 11.4192C10.3263 11.6088 10.5474 11.7024 10.8 11.7ZM10.125 8.82H11.475C11.475 8.385 11.52 8.0664 11.61 7.8642C11.7 7.662 11.91 7.3956 12.24 7.065C12.69 6.615 12.99 6.2514 13.14 5.9742C13.29 5.697 13.365 5.3706 13.365 4.995C13.365 4.32 13.1286 3.7689 12.6558 3.3417C12.183 2.9145 11.5644 2.7006 10.8 2.7C10.185 2.7 9.6489 2.8725 9.1917 3.2175C8.7345 3.5625 8.4156 4.02 8.235 4.59L9.45 5.085C9.585 4.71 9.7689 4.4289 10.0017 4.2417C10.2345 4.0545 10.5006 3.9606 10.8 3.96C11.16 3.96 11.4525 4.0614 11.6775 4.2642C11.9025 4.467 12.015 4.7406 12.015 5.085C12.015 5.295 11.955 5.4939 11.835 5.6817C11.715 5.8695 11.505 6.1056 11.205 6.39C10.71 6.825 10.4064 7.1664 10.2942 7.4142C10.182 7.662 10.1256 8.1306 10.125 8.82ZM5.4 14.4C4.905 14.4 4.4814 14.2239 4.1292 13.8717C3.777 13.5195 3.6006 13.0956 3.6 12.6V1.8C3.6 1.305 3.7764 0.8814 4.1292 0.5292C4.482 0.177 4.9056 0.0006 5.4 0H16.2C16.695 0 17.1189 0.1764 17.4717 0.5292C17.8245 0.882 18.0006 1.3056 18 1.8V12.6C18 13.095 17.8239 13.5189 17.4717 13.8717C17.1195 14.2245 16.6956 14.4006 16.2 14.4H5.4ZM5.4 12.6H16.2V1.8H5.4V12.6ZM1.8 18C1.305 18 0.8814 17.8239 0.5292 17.4717C0.177 17.1195 0.0006 16.6956 0 16.2V3.6H1.8V16.2H14.4V18H1.8Z" fill="#E64A19"/>
</svg>
