<svg width="32" height="36" viewBox="0 0 32 36" fill="none" xmlns="http://www.w3.org/2000/svg">
<path d="M31.0076 31.4409C30.8996 31.76 30.6421 32.114 30.2198 32.2332C29.9149 32.3194 19.8274 35.1493 19.5168 35.2281C18.6287 35.4574 18.0113 35.2886 17.6061 34.942C16.9888 34.4157 9.85532 29.7151 0.856622 29.2713C-0.10536 29.2255 0.366162 25.6932 3.11577 25.6932C4.99996 25.6932 10.5086 27.0192 11.1733 26.3736C11.6865 25.8748 11.9194 22.9275 9.77769 17.785L5.46959 7.4468C5.29613 6.98031 5.31609 6.46686 5.52528 6.01432C5.73447 5.56178 6.11661 5.20537 6.59142 5.01995C7.06623 4.83454 7.59676 4.83456 8.07156 5.02001C8.54636 5.20546 8.92847 5.5619 9.13763 6.01445L12.8984 15.0359C13.2639 15.9162 13.7146 16.25 14.2051 16.0666C14.6425 15.9052 14.7334 15.6227 14.4683 14.7663L10.5939 3.71096C10.5102 3.47301 10.4757 3.22142 10.4925 2.97057C10.5092 2.71972 10.5769 2.47453 10.6915 2.24901C10.8062 2.0235 10.9656 1.82208 11.1607 1.65629C11.3558 1.49049 11.5827 1.36356 11.8285 1.28275C12.0743 1.20065 12.3344 1.16649 12.5939 1.18223C12.8533 1.19797 13.107 1.26331 13.3403 1.37447C13.5735 1.48563 13.7817 1.64043 13.9529 1.82992C14.1241 2.0194 14.2549 2.23984 14.3376 2.47852L18.0227 12.991C18.3484 13.9153 18.6931 14.3995 19.2384 14.1757C19.566 14.0418 19.5433 13.5558 19.4562 13.1322L16.8695 3.09841C16.7983 2.8517 16.779 2.59369 16.8126 2.33963C16.8462 2.08557 16.932 1.8406 17.065 1.61921C17.198 1.39782 17.3755 1.20449 17.587 1.05066C17.7984 0.896822 18.0396 0.785601 18.2962 0.723565C18.5528 0.661529 18.8196 0.649936 19.0809 0.689473C19.3422 0.72901 19.5927 0.818874 19.8175 0.953754C20.0423 1.08863 20.237 1.26579 20.3899 1.47476C20.5429 1.68373 20.651 1.92027 20.7079 2.17041L23.0939 11.4174C23.4424 12.7764 23.7624 13.2661 24.3173 13.1322C24.8835 12.9983 24.857 12.5471 24.7793 12.1748L23.128 4.23731C23.0606 3.79573 23.1707 3.34592 23.4357 2.98067C23.7007 2.61542 24.1003 2.36261 24.5521 2.27439C25.0039 2.18617 25.4735 2.26926 25.8639 2.50654C26.2543 2.74382 26.5358 3.11717 26.6503 3.54957L28.4454 12.1895L28.4473 12.1913V12.1932L29.5229 17.3742C29.7578 18.3517 30.0267 19.2724 30.3751 20.1747C32.4297 25.4731 31.3579 30.379 31.0076 31.4409Z" fill="#E64A19"/>
</svg>
