<svg width="40" height="32" viewBox="0 0 40 32" fill="none" xmlns="http://www.w3.org/2000/svg">
<path d="M13.0669 19.4666H16.5336V15.9999C16.5336 15.5088 16.7 15.0974 17.0328 14.7658C17.3656 14.4341 17.777 14.2677 18.2669 14.2666H21.7336V17.7332L26.9336 12.5332L21.7336 7.33324V10.7999H18.2669C16.8225 10.7999 15.5947 11.3055 14.5836 12.3166C13.5725 13.3277 13.0669 14.5555 13.0669 15.9999V19.4666ZM6.13359 26.3999C5.18026 26.3999 4.36444 26.0607 3.68613 25.3824C3.00782 24.7041 2.66808 23.8877 2.66693 22.9332V3.86657C2.66693 2.91324 3.00666 2.09741 3.68613 1.4191C4.36559 0.740791 5.18142 0.401058 6.13359 0.399902H33.8669C34.8203 0.399902 35.6367 0.739636 36.3161 1.4191C36.9956 2.09857 37.3347 2.91439 37.3336 3.86657V22.9332C37.3336 23.8866 36.9944 24.703 36.3161 25.3824C35.6378 26.0619 34.8214 26.4011 33.8669 26.3999H6.13359ZM6.13359 22.9332H33.8669V3.86657H6.13359V22.9332ZM0.933594 31.5999V28.1332H39.0669V31.5999H0.933594Z" fill="#E64A19"/>
</svg>
