<svg width="19" height="19" viewBox="0 0 19 19" fill="none" xmlns="http://www.w3.org/2000/svg">
<path d="M17.2318 5.75841C18.6171 6.27385 18.5488 8.25485 17.1319 8.67382L10.6448 10.5921C10.3776 10.6713 10.137 10.8216 9.94865 11.027C9.7603 11.2323 9.63131 11.485 9.57546 11.758L8.36829 17.6302C8.04695 19.2003 5.8425 19.2926 5.38865 17.7578L0.81097 2.27709C0.730005 2.00328 0.726885 1.71234 0.80196 1.43686C0.877035 1.16138 1.02734 0.912254 1.23603 0.717388C1.44472 0.522522 1.70355 0.389619 1.98352 0.33357C2.26349 0.277522 2.55353 0.300542 2.82116 0.400053L17.2318 5.75841Z" fill="#E64A19"/>
</svg>
