<svg width="20" height="20" viewBox="0 0 20 20" fill="none" xmlns="http://www.w3.org/2000/svg">
<path d="M18.8628 9.30958L15.1106 12.6658L16.2538 17.685C16.3169 17.9575 16.3006 18.2432 16.2071 18.5061C16.1136 18.769 15.9471 18.9973 15.7284 19.1621C15.5098 19.3269 15.249 19.4209 14.9789 19.4321C14.7088 19.4434 14.4416 19.3714 14.211 19.2252L10.0002 16.5389L5.78689 19.2252C5.55627 19.3705 5.28935 19.4418 5.01972 19.4302C4.75009 19.4185 4.48982 19.3245 4.27167 19.1598C4.05353 18.9951 3.88726 18.7672 3.79381 18.5048C3.70037 18.2423 3.68392 17.9571 3.74653 17.685L4.89387 12.6658L1.14168 9.30958C0.937647 9.12678 0.790084 8.88572 0.717423 8.61651C0.644762 8.3473 0.650223 8.06186 0.733126 7.79584C0.816028 7.52983 0.972696 7.29502 1.18357 7.12076C1.39444 6.94649 1.65016 6.84048 1.9188 6.81597L6.83833 6.40455L8.7361 1.64378C8.83882 1.38432 9.01365 1.16239 9.23837 1.00619C9.46308 0.85 9.72753 0.766602 9.99809 0.766602C10.2686 0.766602 10.5331 0.85 10.7578 1.00619C10.9825 1.16239 11.1573 1.38432 11.2601 1.64378L13.157 6.40455L18.0765 6.81597C18.3457 6.83957 18.6022 6.94499 18.8138 7.11901C19.0255 7.29304 19.1828 7.52794 19.2663 7.79427C19.3497 8.06061 19.3554 8.34655 19.2828 8.61625C19.2101 8.88596 19.0623 9.12744 18.8578 9.31045L18.8628 9.30958Z" fill="#E64A19"/>
</svg>
