<svg width="8" height="11" viewBox="0 0 8 11" fill="none" xmlns="http://www.w3.org/2000/svg">
<path d="M4.00022 6.88828C4.88555 6.88828 5.60022 6.17361 5.60022 5.28828V2.08828C5.60022 1.20295 4.88555 0.488281 4.00022 0.488281C3.11489 0.488281 2.40022 1.20295 2.40022 2.08828V5.28828C2.40022 6.17361 3.11489 6.88828 4.00022 6.88828ZM7.15222 5.28828C6.89089 5.28828 6.67222 5.48028 6.62955 5.74161C6.41089 6.99495 5.31755 7.95495 4.00022 7.95495C2.68289 7.95495 1.58955 6.99495 1.37089 5.74161C1.35187 5.61626 1.28882 5.50177 1.19304 5.4187C1.09725 5.33562 0.975008 5.28938 0.848221 5.28828C0.522887 5.28828 0.266887 5.57628 0.314887 5.89628C0.576221 7.49628 1.85622 8.74961 3.46689 8.97895V10.0883C3.46689 10.3816 3.70689 10.6216 4.00022 10.6216C4.29355 10.6216 4.53355 10.3816 4.53355 10.0883V8.97895C5.31846 8.86706 6.04727 8.50785 6.61409 7.9535C7.18092 7.39914 7.55624 6.67851 7.68555 5.89628C7.73889 5.57628 7.47755 5.28828 7.15222 5.28828Z" fill="#E64A19"/>
</svg>
