<svg width="10" height="11" viewBox="0 0 10 11" fill="none" xmlns="http://www.w3.org/2000/svg">
<path d="M6.60016 5.07495V2.08828C6.60016 1.20295 5.88549 0.488281 5.00016 0.488281C4.17882 0.488281 3.51216 1.10695 3.42149 1.90161L6.60016 5.07495ZM8.24282 5.28828C8.02416 5.28828 7.83216 5.44828 7.80016 5.66695C7.77349 5.83761 7.73616 6.00828 7.68282 6.16295L8.36016 6.84028C8.52015 6.52028 8.63749 6.17361 8.69616 5.80561C8.70474 5.74105 8.69943 5.67539 8.68058 5.61305C8.66173 5.5507 8.62976 5.4931 8.58684 5.44412C8.54391 5.39513 8.49101 5.35588 8.43168 5.32901C8.37235 5.30213 8.30796 5.28824 8.24282 5.28828ZM0.578822 1.32028C0.52938 1.36962 0.490154 1.42823 0.463391 1.49275C0.436628 1.55727 0.422852 1.62643 0.422852 1.69628C0.422852 1.76613 0.436628 1.8353 0.463391 1.89981C0.490154 1.96433 0.52938 2.02294 0.578822 2.07228L3.40016 4.89895V5.12828C3.40016 5.76295 3.72016 6.36561 4.26949 6.68028C4.66949 6.90961 5.02149 6.91495 5.34682 6.84561L6.23216 7.73095C5.85349 7.90695 5.43216 8.00828 5.00016 8.00828C3.64549 8.00828 2.39749 7.06428 2.20016 5.66695C2.18362 5.56142 2.12994 5.46528 2.04877 5.39584C1.9676 5.32641 1.8643 5.28827 1.75749 5.28828C1.48016 5.28828 1.26682 5.53361 1.30416 5.80561C1.54949 7.38428 2.88282 8.63228 4.46682 8.87228V10.0883C4.46682 10.3816 4.70682 10.6216 5.00016 10.6216C5.29349 10.6216 5.53349 10.3816 5.53349 10.0883V8.87228C6.01339 8.80089 6.47509 8.63793 6.89349 8.39228L8.75482 10.2536C8.85454 10.3533 8.98979 10.4094 9.13082 10.4094C9.27185 10.4094 9.4071 10.3533 9.50682 10.2536C9.60654 10.1539 9.66257 10.0186 9.66257 9.87761C9.66257 9.73659 9.60654 9.60134 9.50682 9.50161L1.33082 1.32028C1.28148 1.27084 1.22287 1.23161 1.15835 1.20485C1.09384 1.17809 1.02467 1.16431 0.954822 1.16431C0.884972 1.16431 0.815808 1.17809 0.751289 1.20485C0.68677 1.23161 0.628162 1.27084 0.578822 1.32028Z" fill="#757575"/>
</svg>
