<svg width="12" height="15" viewBox="0 0 12 15" fill="none" xmlns="http://www.w3.org/2000/svg">
<path d="M6.00012 9.20039C7.21745 9.20039 8.20012 8.21772 8.20012 7.00039V2.60039C8.20012 1.38306 7.21745 0.400391 6.00012 0.400391C4.78279 0.400391 3.80012 1.38306 3.80012 2.60039V7.00039C3.80012 8.21772 4.78279 9.20039 6.00012 9.20039ZM10.3341 7.00039C9.97479 7.00039 9.67412 7.26439 9.61545 7.62372C9.31479 9.34706 7.81145 10.6671 6.00012 10.6671C4.18879 10.6671 2.68545 9.34706 2.38479 7.62372C2.35864 7.45136 2.27195 7.29394 2.14024 7.17971C2.00854 7.06548 1.84045 7.00191 1.66612 7.00039C1.21879 7.00039 0.866787 7.39639 0.932787 7.83639C1.29212 10.0364 3.05212 11.7597 5.26679 12.0751V13.6004C5.26679 14.0037 5.59679 14.3337 6.00012 14.3337C6.40345 14.3337 6.73345 14.0037 6.73345 13.6004V12.0751C7.81271 11.9212 8.81481 11.4273 9.59419 10.6651C10.3736 9.90282 10.8897 8.91196 11.0675 7.83639C11.1408 7.39639 10.7815 7.00039 10.3341 7.00039Z" fill="white"/>
</svg>
