<svg width="14" height="15" viewBox="0 0 14 15" fill="none" xmlns="http://www.w3.org/2000/svg">
<path d="M9.20033 6.70706V2.60039C9.20033 1.38306 8.21767 0.400391 7.00034 0.400391C5.871 0.400391 4.95434 1.25106 4.82967 2.34372L9.20033 6.70706ZM11.459 7.00039C11.1583 7.00039 10.8943 7.22039 10.8503 7.52106C10.8137 7.75572 10.7623 7.99039 10.689 8.20306L11.6203 9.13439C11.8403 8.69439 12.0017 8.21772 12.0823 7.71172C12.0941 7.62295 12.0868 7.53267 12.0609 7.44694C12.035 7.36122 11.991 7.28202 11.932 7.21466C11.873 7.14731 11.8003 7.09334 11.7187 7.05639C11.6371 7.01943 11.5486 7.00034 11.459 7.00039ZM0.921002 1.54439C0.853019 1.61223 0.799084 1.69282 0.762285 1.78153C0.725485 1.87025 0.706543 1.96535 0.706543 2.06139C0.706543 2.15743 0.725485 2.25254 0.762285 2.34125C0.799084 2.42996 0.853019 2.51055 0.921002 2.57839L4.80033 6.46506V6.78039C4.80033 7.65306 5.24033 8.48172 5.99567 8.91439C6.54567 9.22972 7.02967 9.23706 7.477 9.14172L8.69433 10.3591C8.17367 10.6011 7.59434 10.7404 7.00034 10.7404C5.13767 10.7404 3.42167 9.44239 3.15034 7.52106C3.12761 7.37596 3.05378 7.24376 2.94218 7.14829C2.83058 7.05282 2.68853 7.00037 2.54167 7.00039C2.16034 7.00039 1.867 7.33772 1.91834 7.71172C2.25567 9.88239 4.089 11.5984 6.267 11.9284V13.6004C6.267 14.0037 6.597 14.3337 7.00034 14.3337C7.40367 14.3337 7.73367 14.0037 7.73367 13.6004V11.9284C8.39353 11.8302 9.02837 11.6062 9.60367 11.2684L12.163 13.8277C12.3001 13.9648 12.4861 14.0419 12.68 14.0419C12.8739 14.0419 13.0599 13.9648 13.197 13.8277C13.3341 13.6906 13.4111 13.5046 13.4111 13.3107C13.4111 13.1168 13.3341 12.9308 13.197 12.7937L1.955 1.54439C1.88716 1.47641 1.80657 1.42247 1.71786 1.38567C1.62915 1.34887 1.53405 1.32993 1.438 1.32993C1.34196 1.32993 1.24686 1.34887 1.15814 1.38567C1.06943 1.42247 0.988845 1.47641 0.921002 1.54439Z" fill="#757575"/>
</svg>
