<svg width="20" height="21" viewBox="0 0 20 21" fill="none" xmlns="http://www.w3.org/2000/svg">
<path d="M2.31373 0.266602C1.8769 0.266602 1.45796 0.442196 1.14908 0.754757C0.840197 1.06732 0.666668 1.49124 0.666668 1.93327C0.666668 2.3753 0.840197 2.79922 1.14908 3.11178C1.45796 3.42434 1.8769 3.59994 2.31373 3.59994H8.35294V18.5999C8.35294 19.042 8.52647 19.4659 8.83535 19.7784C9.14424 20.091 9.56317 20.2666 10 20.2666C10.4368 20.2666 10.8558 20.091 11.1646 19.7784C11.4735 19.4659 11.6471 19.042 11.6471 18.5999V3.59994H17.6863C18.1231 3.59994 18.542 3.42434 18.8509 3.11178C19.1598 2.79922 19.3333 2.3753 19.3333 1.93327C19.3333 1.49124 19.1598 1.06732 18.8509 0.754757C18.542 0.442196 18.1231 0.266602 17.6863 0.266602H2.31373Z" fill="#E64A19"/>
</svg>
