<svg width="34" height="24" viewBox="0 0 34 24" fill="none" xmlns="http://www.w3.org/2000/svg">
<path fill-rule="evenodd" clip-rule="evenodd" d="M6.84199 3.9801H18.1628C18.9817 3.9801 19.767 4.3362 20.346 4.97008C20.925 5.60395 21.2503 6.46367 21.2503 7.3601V16.3734C21.2503 17.2699 20.925 18.1296 20.346 18.7635C19.767 19.3973 18.9817 19.7534 18.1628 19.7534H6.84199C6.02314 19.7534 5.23782 19.3973 4.6588 18.7635C4.07978 18.1296 3.75449 17.2699 3.75449 16.3734V7.3601C3.75449 6.46367 4.07978 5.60395 4.6588 4.97008C5.23782 4.3362 6.02314 3.9801 6.84199 3.9801ZM24.239 17.5835C23.9802 19.1411 23.2301 20.5498 22.1197 21.564C21.0093 22.5783 19.609 23.1337 18.1628 23.1334H6.84199C5.20428 23.1334 3.63364 22.4212 2.47561 21.1535C1.31757 19.8857 0.666992 18.1663 0.666992 16.3734L0.666992 7.3601C0.666992 5.56723 1.31757 3.8478 2.47561 2.58006C3.63364 1.31231 5.20428 0.600098 6.84199 0.600098H18.1628C19.609 0.599859 21.0093 1.15528 22.1197 2.16952C23.2301 3.18376 23.9802 4.59247 24.239 6.15006L27.4377 3.64886C28.0202 3.19291 28.7062 2.92152 29.4204 2.86448C30.1346 2.80744 30.8493 2.96697 31.4861 3.32554C32.1229 3.68411 32.6571 4.22786 33.0301 4.89707C33.4031 5.56628 33.6004 6.33506 33.6003 7.11899V16.6145C33.6004 17.3985 33.4031 18.1673 33.0301 18.8365C32.6571 19.5057 32.1229 20.0494 31.4861 20.408C30.8493 20.7666 30.1346 20.9261 29.4204 20.8691C28.7062 20.812 28.0202 20.5406 27.4377 20.0847L24.239 17.5835ZM24.3378 13.5072L29.2325 17.3356C29.3535 17.4306 29.4961 17.4871 29.6445 17.4991C29.793 17.5111 29.9416 17.4779 30.074 17.4034C30.2063 17.3288 30.3173 17.2157 30.3948 17.0766C30.4722 16.9374 30.5131 16.7775 30.5128 16.6145V7.11899C30.5131 6.95603 30.4722 6.79616 30.3948 6.65697C30.3173 6.51779 30.2063 6.4047 30.074 6.33015C29.9416 6.2556 29.793 6.22248 29.6445 6.23444C29.4961 6.24639 29.3535 6.30297 29.2325 6.39792L24.3378 10.2263V13.5072Z" fill="#E64A19"/>
</svg>
