<svg width="21" height="15" viewBox="0 0 21 15" fill="none" xmlns="http://www.w3.org/2000/svg">
<path fill-rule="evenodd" clip-rule="evenodd" d="M3.9375 2.25H11.1562C11.6784 2.25 12.1792 2.48705 12.5484 2.90901C12.9176 3.33097 13.125 3.90326 13.125 4.5V10.5C13.125 11.0967 12.9176 11.669 12.5484 12.091C12.1792 12.5129 11.6784 12.75 11.1562 12.75H3.9375C3.41535 12.75 2.9146 12.5129 2.54538 12.091C2.17617 11.669 1.96875 11.0967 1.96875 10.5V4.5C1.96875 3.90326 2.17617 3.33097 2.54538 2.90901C2.9146 2.48705 3.41535 2.25 3.9375 2.25ZM15.0307 11.3055C14.8657 12.3424 14.3874 13.2801 13.6794 13.9553C12.9713 14.6304 12.0784 15.0002 11.1562 15H3.9375C2.89321 15 1.89169 14.5259 1.15327 13.682C0.414843 12.8381 0 11.6935 0 10.5L0 4.5C0 3.30653 0.414843 2.16193 1.15327 1.31802C1.89169 0.474106 2.89321 5.12966e-08 3.9375 5.12966e-08H11.1562C12.0784 -0.000159004 12.9713 0.369573 13.6794 1.04473C14.3874 1.71989 14.8657 2.65765 15.0307 3.6945L17.0704 2.0295C17.4418 1.72598 17.8793 1.54532 18.3347 1.50735C18.7901 1.46939 19.2458 1.57558 19.6519 1.81427C20.0579 2.05297 20.3986 2.41493 20.6364 2.86041C20.8742 3.30589 21 3.81765 21 4.3395V10.6605C21 11.1823 20.8742 11.6941 20.6364 12.1396C20.3986 12.5851 20.0579 12.947 19.6519 13.1857C19.2458 13.4244 18.7901 13.5306 18.3347 13.4926C17.8793 13.4547 17.4418 13.274 17.0704 12.9705L15.0307 11.3055ZM15.0938 8.592L18.2149 11.1405C18.292 11.2037 18.3829 11.2414 18.4776 11.2493C18.5723 11.2573 18.667 11.2352 18.7514 11.1856C18.8358 11.136 18.9066 11.0607 18.956 10.9681C19.0054 10.8754 19.0314 10.769 19.0312 10.6605V4.3395C19.0314 4.23102 19.0054 4.12459 18.956 4.03194C18.9066 3.93929 18.8358 3.86401 18.7514 3.81438C18.667 3.76476 18.5723 3.74271 18.4776 3.75067C18.3829 3.75863 18.292 3.79629 18.2149 3.8595L15.0938 6.408V8.592Z" fill="#E64A19"/>
</svg>
